<svg width="141" height="161" viewBox="0 0 141 161" fill="none" xmlns="http://www.w3.org/2000/svg">
<path d="M51.9197 112.574C58.0366 115.308 64.4347 116.338 71.1376 115.195C71.976 115.053 72.533 115.181 73.023 115.786C73.1699 115.968 73.3459 116.126 73.4984 116.302C76.6648 119.986 78.2307 124.441 80.2594 128.796C80.7729 128.775 81.2864 128.755 81.7999 128.731C81.6221 128.63 81.4878 128.45 81.3445 128.171C78.9856 123.58 77.523 118.521 73.4294 114.762C73.7506 114.659 73.9701 114.582 74.1933 114.52C76.9079 113.775 79.4573 112.682 81.8453 111.258C88.5446 107.262 93.2316 101.625 96.5794 94.9448C101 86.1243 102.642 76.7745 102.263 67.0768C102.214 65.8414 102.303 64.6677 102.95 63.6072C104.213 61.5425 105.483 59.4745 106.87 57.4836C108.173 55.6143 109.345 53.7878 108.007 51.521C113.181 48.9852 114.478 46.0982 113.511 39.3218C115.021 39.5582 116.224 39.1299 117.088 37.8551C116.543 37.9014 116.064 38.0025 115.594 37.9699C114.732 37.91 114.066 37.0704 114.072 36.1161C114.075 35.2063 114.935 35.6603 115.358 35.417C115.429 35.3759 115.534 35.3879 115.625 35.3759C117.946 35.0743 119.423 33.8081 120.029 31.7213C120.457 30.2478 120.245 28.8102 119.08 27.455C119.08 27.7394 119.045 27.885 119.085 28.0101C119.412 29.0278 118.975 29.9171 118.521 30.7772C118.225 31.3375 117.641 31.4608 117.037 31.2347C116.186 30.916 115.445 29.7098 115.471 28.764C117.144 28.62 117.922 28.0341 118.247 26.6719C118.539 25.4452 117.98 24.0899 116.892 23.4936C117.028 23.9699 117.153 24.4051 117.274 24.8403C117.548 25.8067 117.267 26.3858 116.425 26.5897C115.756 26.7525 115.376 26.3738 115.077 25.4366C114.827 24.6519 114.551 23.8534 114.13 23.1424C113.132 21.4581 112.049 19.8184 110.98 18.1719C110.713 17.7607 110.397 17.37 110.06 17.0068C107.797 14.5652 105.255 12.5229 101.76 11.99C101.851 9.13212 100.773 6.92872 98.2216 5.43466C97.3107 4.9018 96.6938 4.98061 96.2637 5.60942C96.799 5.87157 97.4885 6.01892 97.8605 6.42499C99.0763 7.75286 98.3559 10.0728 96.6139 10.7119C94.5526 11.4675 91.6947 9.99566 91.056 7.96703C90.2104 5.27189 88.8495 2.8389 85.9807 1.62411C82.5548 0.174598 79.0073 -0.529599 75.2367 0.462445C71.1231 1.5453 66.966 2.49622 64.1462 5.91612C64.0064 6.08574 63.6018 6.27079 63.4857 6.20225C63.2679 6.07203 63.0847 5.77562 63.0357 5.52204C62.8397 4.50258 63.5601 3.22269 64.5581 2.75151C65.1678 2.46367 65.7902 2.20152 66.5069 1.88283C64.2659 1.42879 62.7671 2.5442 61.3626 3.76069C60.3592 4.62937 59.4138 5.60086 60.0072 7.17545C59.4501 6.88417 58.9402 6.58947 58.5864 6.17484C56.4706 3.69558 53.6436 2.53391 50.3864 2.16725C50.1306 2.13813 49.8384 2.378 49.5644 2.49279C49.764 2.70525 49.9219 2.98967 50.1723 3.11646C50.7004 3.38546 51.2919 3.54138 51.8272 3.8001C52.6691 4.20788 53.1373 4.90351 53.2117 5.77905C53.2335 6.03605 53.0103 6.34275 52.8161 6.56206C52.7707 6.61346 52.3806 6.41985 52.1665 6.30848C51.2756 5.8493 50.4445 5.20678 49.4955 4.94635C47.5884 4.42034 45.6269 4.05711 43.6726 3.70072C39.4864 2.93827 35.5543 3.63562 32.1738 6.08746C29.8385 7.78198 27.7427 9.77807 25.596 11.6988C24.09 13.0455 22.377 13.7582 20.2976 13.6486C18.6554 13.5612 16.8608 11.243 18.0112 9.6804C18.3306 9.24692 18.6245 8.79459 18.9294 8.35254C18.8985 8.27201 18.8677 8.18977 18.8368 8.10924C18.4503 8.18634 18.0003 8.16749 17.6882 8.35425C16.1005 9.30689 15.4073 10.9072 14.6561 12.4115C13.1083 15.5059 13.2353 18.4786 15.7394 21.1343C15.7285 21.1874 15.734 21.2251 15.7158 21.2405C15.5416 21.3982 15.3656 21.5524 15.186 21.7049C12.1448 24.2749 9.58446 27.1945 7.76083 30.6692C6.16766 33.7036 5.22409 36.8785 5.19687 40.283C5.18054 42.2157 3.59462 43.0484 1.84903 42.0306C1.35728 41.7445 0.972599 41.2956 0.524405 40.9084C0.480856 41.6742 0.72582 42.3562 1.37724 42.8496C2.47505 43.6823 3.70531 43.6258 5.04445 43.1597C4.97187 44.0044 4.95554 44.7755 4.81763 45.5259C4.75049 45.8909 4.52912 46.2986 4.2406 46.5419C3.96116 46.7784 3.38958 47.0303 3.15369 46.912C2.79441 46.7304 2.5567 46.2558 2.37706 45.8617C2.26456 45.6133 2.3571 45.2843 2.3571 44.9913C1.35184 45.9971 1.62765 47.0097 2.3825 48.1371C1.10325 47.8647 0.4863 47.1194 0 46.2044C0.0381056 47.7002 0.595173 48.9784 1.66576 50.0458C3.13191 51.5073 4.9011 51.031 6.57956 50.6164C6.65759 50.7226 6.68662 50.7449 6.68843 50.7706C6.70114 50.9419 6.70476 51.1115 6.71565 51.2829C6.8717 53.8409 8.20903 55.7136 10.4464 57.0895C10.646 57.2129 10.7821 57.5692 10.7802 57.816C10.7748 58.7532 10.5825 59.7007 10.675 60.6242C10.8673 62.5243 11.7528 63.9995 13.8795 64.5238C13.9521 64.541 14.0065 64.6215 14.0664 64.6695C13.9085 65.5587 13.2934 65.8962 12.4496 66.0727C12.1865 66.1275 11.9905 66.4685 11.7655 66.6775C12.0758 66.7666 12.4115 66.9774 12.6892 66.9225C13.4186 66.7786 14.1208 66.5199 14.7723 66.3263C16.0388 67.8461 16.7138 69.5748 17.1221 71.403C17.2092 71.7954 17.2201 72.2768 17.0586 72.6367C15.1696 76.8533 15.1606 81.1316 16.5904 85.439C17.6175 88.5351 19.3195 91.2336 22.2645 93.0515C24.9192 94.6912 27.6737 94.8608 30.4645 93.3017C30.606 93.2229 30.7711 93.1817 30.9218 93.1252C31.272 97.1071 31.6185 101.038 31.9742 105.076C30.7911 104.588 29.8294 104.864 28.9257 105.398C28.1328 105.868 27.3326 106.332 26.5904 106.866C23.3442 109.198 20.7167 112.094 18.1128 115.036C13.5583 120.183 10.4536 126.089 7.75539 132.211C7.00598 133.91 5.89003 139.04 5.38559 140.831C5.32208 141.055 5.54164 141.352 5.62874 141.615C5.85193 141.434 6.11685 141.28 6.28379 141.06C6.41625 140.886 7.15659 137.344 7.22917 137.126C7.857 135.194 8.31427 133.191 9.14896 131.34C12.3389 124.257 16.4797 117.721 22.1049 112.091C24.3077 109.885 26.6249 107.811 29.3939 106.224C30.2558 105.73 31.125 105.715 32.172 105.856C30.8855 105.955 31.3355 106.544 31.6185 107.101C32.7436 109.315 34.3059 111.131 36.6412 112.33C38.6717 113.372 40.8564 113.852 43.1028 114.177C45.6378 114.544 47.9912 114.022 50.0852 112.685C50.7838 112.24 51.232 112.269 51.9215 112.575L51.9197 112.574ZM30.5407 91.9995C27.661 94.2817 23.8287 93.5347 21.1976 90.9355C18.61 88.3809 17.3489 85.2488 16.8481 81.8101C16.4235 78.9025 16.683 76.036 17.9151 73.3306C19.0437 70.8496 20.7784 68.8946 23.8051 68.3806C25.1606 68.151 26.4725 68.3772 27.681 68.9495C29.3268 69.7273 30.9816 70.5395 31.7982 72.2511C32.2065 73.1078 32.3716 73.9782 31.9579 74.9C31.8671 75.1039 32.0014 75.3986 32.0323 75.6505C32.2899 75.5151 32.6474 75.4432 32.7926 75.2358C34.4601 72.8628 36.095 70.4709 37.7681 68.0397C37.9985 68.0225 38.3523 68.0088 38.7025 67.9677C38.9675 67.9369 39.2288 67.8735 39.4937 67.8255C39.3721 67.5531 39.3068 67.2378 39.1181 67.0134C37.1765 64.6917 37.4324 62.1611 38.365 59.5499C38.3959 59.7486 38.4485 59.9457 38.454 60.1444C38.5011 62.305 39.8385 63.6586 41.6712 64.6746C41.9415 64.8254 42.3371 64.774 42.6746 64.8168C42.5929 64.5255 42.4823 64.2394 42.4333 63.943C42.2845 63.0623 41.996 62.1679 42.0613 61.2992C42.1829 59.6801 43.1536 58.4619 44.5908 57.4579C44.7015 58.0113 44.7341 58.4859 44.892 58.9211C45.6305 60.9463 47.6102 62.2313 49.9183 62.1833C50.1324 62.1782 50.3393 61.9538 50.5497 61.8304C50.401 61.6419 50.2866 61.3421 50.0943 61.2855C49.0546 60.9823 48.7388 60.1975 48.59 59.3289C48.1291 56.6269 49.3757 54.1236 51.9705 52.5833C51.9996 53.1196 52.1193 53.6353 52.0159 54.1082C51.9542 54.3943 51.5514 54.6154 51.2973 54.8621C51.0814 55.0711 50.8582 55.2733 50.6387 55.4789C50.8891 55.6931 51.1086 56.0375 51.3953 56.0974C52.3099 56.2859 52.8034 56.8393 53.395 57.4887C54.4038 58.5973 55.6414 59.5448 56.8807 60.4391C57.6392 60.9857 58.6771 60.3843 58.6753 59.5139C57.2618 59.8172 56.6993 59.4625 56.3817 58.0678C56.0805 56.7382 56.389 55.6246 57.2273 55.1534C57.4033 55.054 57.6755 54.9872 57.8624 55.0386C61.3173 55.9861 63.2915 55.813 66.5577 54.2453C66.6829 56.058 64.7867 57.4442 63.0338 56.8445C62.8215 56.7708 62.4369 56.7777 62.3262 56.901C62.2082 57.0347 62.2409 57.3842 62.3407 57.5795C63.4875 59.8155 65.8609 60.9103 68.5374 60.2969C74.2768 58.9828 77.5666 55.3316 79.1634 50.1298C79.2142 49.967 79.2577 49.8025 79.3086 49.6397C79.3158 49.6157 79.3467 49.5986 79.3666 49.5798C80.2848 50.8014 80.4118 54.1887 79.2432 55.4446C78.7279 55.9981 77.8478 56.2448 77.1402 56.644C76.7881 56.8428 76.4561 57.0724 76.1131 57.2882C76.4942 57.4853 76.8644 57.8245 77.2599 57.8571C79.4991 58.0387 81.2556 56.9884 82.9159 55.7428C83.1953 55.5337 83.453 55.3007 83.7778 55.0334C84.0518 55.6605 84.2695 56.2414 84.5544 56.7914C85.5234 58.6658 87.191 59.5533 89.3376 59.6698C89.8021 59.6955 90.3029 59.5807 90.7402 59.418C90.9525 59.3392 91.192 58.9793 91.1648 58.7789C91.1412 58.6058 90.7221 58.3214 90.5352 58.3574C89.5898 58.5339 89.3557 57.9633 89.2269 57.3139C89.0799 56.5703 89.011 55.8113 88.8712 54.8038C90.2104 55.9672 91.5531 56.5738 93.0864 56.6954C93.8885 56.7588 94.7195 56.7674 95.5089 56.644C96.1494 56.5446 96.5341 56.6868 96.6647 57.2403C96.877 58.1466 97.1184 59.0667 97.1492 59.9868C97.1855 61.0851 96.643 61.9109 95.3728 62.1165C95.3438 62.1217 95.3111 62.1268 95.2857 62.1405C94.8375 62.3684 94.0463 62.4129 94.2822 63.1069C94.5199 63.8093 95.1804 63.417 95.6849 63.3296C97.924 62.9407 99.666 61.9041 100.771 59.896C100.864 60.6139 100.98 61.3301 101.045 62.0514C101.831 70.6286 101.263 79.0926 98.5646 87.3631C96.2637 94.4171 92.7072 100.801 87.102 106.044C82.709 110.154 77.5539 113.012 71.4389 114.135C63.4929 115.593 56.1259 113.96 49.2868 110.084C42.201 106.07 36.6467 100.608 32.6165 93.778C32.2936 93.2314 31.8907 92.7277 31.5696 92.1794C31.281 91.6877 30.9218 91.7031 30.5371 92.0064L30.5407 91.9995ZM44.0573 113.107C41.0469 112.884 38.1292 112.236 35.6886 110.423C34.872 109.817 34.2242 109.006 33.5238 108.27C33.3968 108.138 33.3478 107.912 33.326 107.723C32.9014 103.952 32.4841 100.181 32.0686 96.4097C32.0159 95.9403 31.9706 95.4691 31.9179 94.9654C36.4253 101.827 42.1792 107.423 49.7024 111.556C47.9223 112.718 46.0497 113.256 44.0573 113.108V113.107Z" fill="black"/>
<path d="M77.651 81.2578C77.7834 78.0559 78.5668 74.6047 80.5381 71.4484C81.2381 70.3272 81.9399 69.2805 83.0298 68.5233C85.5669 66.7631 88.336 67.1745 90.2293 69.6154C91.4715 71.2173 92.0555 73.0885 92.3166 75.0616C92.8425 79.0425 92.2078 82.845 90.4197 86.4418C89.4731 88.344 88.1656 89.9476 86.3648 91.1071C83.9402 92.6689 81.7876 92.232 80.0684 89.9203C78.2477 87.4721 77.6656 84.6853 77.6492 81.2559L77.651 81.2578ZM78.7627 83.9972C79.2233 82.177 79.6368 80.3222 80.1681 78.5019C80.6596 76.8109 81.7404 75.504 83.2075 74.5556C85.6067 73.0066 88.6915 73.9731 89.7814 76.5943C90.3417 77.9394 90.8441 79.3028 90.7606 80.8045C90.7498 81.0102 90.835 81.2214 90.8749 81.4307C91.6111 78.2598 91.5966 75.1472 90.329 72.1438C90.0171 71.4029 89.5637 70.6876 89.0378 70.0796C87.6614 68.4869 85.8407 68.1702 84.0834 69.3224C83.0896 69.974 82.1013 70.7822 81.4213 71.7415C78.8008 75.4366 78.2422 79.6268 78.7609 83.9991L78.7627 83.9972Z" fill="black"/>
<path d="M51.8671 80.4353C51.9995 77.2334 52.7829 73.7822 54.7542 70.6259C55.4542 69.5047 56.156 68.458 57.2459 67.7008C59.7829 65.9406 62.5521 66.352 64.4453 68.7929C65.6876 70.3948 66.2715 72.266 66.5327 74.2391C67.0586 78.22 66.4239 82.0225 64.6358 85.6193C63.6891 87.5215 62.3816 89.1251 60.5808 90.2846C58.1562 91.8464 56.0036 91.4095 54.2845 89.0978C52.4637 86.6496 51.8816 83.8628 51.8653 80.4334L51.8671 80.4353ZM52.9788 83.1747C53.4394 81.3545 53.8529 79.4996 54.3842 77.6794C54.8757 75.9884 55.9565 74.6814 57.4236 73.7331C59.8228 72.1841 62.9075 73.1506 63.9974 75.7718C64.5578 77.1169 65.0601 78.4803 64.9767 79.982C64.9658 80.1877 65.051 80.3988 65.0909 80.6082C65.8272 77.4373 65.8127 74.3247 64.5451 71.3213C64.2332 70.5804 63.7798 69.8651 63.2539 69.2571C61.8775 67.6644 60.0567 67.3477 58.2995 68.4999C57.3057 69.1515 56.3174 69.9597 55.6373 70.919C53.0169 74.6141 52.4583 78.8043 52.977 83.1765L52.9788 83.1747Z" fill="black"/>
<path d="M27.9766 80.1621C27.8134 78.2108 27.5214 76.5343 26.1378 75.251C26.1904 75.1655 26.2411 75.0799 26.2937 74.9944C26.5766 75.0781 26.9629 75.0727 27.1225 75.262C27.6194 75.8517 28.1942 76.4542 28.4463 77.1587C29.2116 79.2902 29.3784 81.5254 29.2189 83.7825C29.2116 83.8736 29.2098 83.9682 29.1771 84.0519C28.9722 84.5853 29.0049 85.4481 28.1924 85.3352C27.4126 85.2278 27.7463 84.4633 27.7808 83.9682C27.8769 82.603 27.5432 81.3725 26.68 80.3241C25.6735 79.1009 24.3678 79.2683 23.6442 80.6699C22.8463 82.2135 23.374 84.2358 24.8502 85.1568C25.0805 85.3006 25.4178 85.2624 25.6917 85.3516C25.9002 85.4208 26.2466 85.5646 26.2448 85.6683C26.2393 85.8977 26.0852 86.2872 25.9328 86.3163C25.4904 86.4037 24.9536 86.4965 24.5673 86.3254C21.8036 85.0968 21.2613 80.9248 23.5771 78.9771C24.6199 78.1016 25.96 78.1889 27.0971 79.2246C27.36 79.4631 27.5849 79.7416 27.9766 80.1621Z" fill="black"/>
<path d="M71.0424 97.8992C70.6151 97.8834 69.9527 97.8903 69.2994 97.8175C69.0524 97.7885 68.8265 97.5711 68.5904 97.4406C68.8225 97.2994 69.0579 97.0352 69.2887 97.0395C70.3341 97.0615 71.382 97.1245 72.419 97.2559C72.6368 97.2838 72.8101 97.6567 73.0052 97.8709C72.7526 97.9682 72.4994 98.1374 72.2451 98.1422C71.9225 98.1489 71.5996 98.0209 71.0439 97.9013L71.0424 97.8992Z" fill="black"/>
<path d="M28.2902 91.4927C28.5096 90.6645 28.651 90.0675 29.4127 90.1039C29.9767 90.1312 30.3267 90.4661 30.265 91.054C30.1997 91.6729 29.8896 92.2427 29.2168 92.1881C28.865 92.1608 28.5477 91.7002 28.2902 91.4945V91.4927Z" fill="black"/>
<path d="M21.2563 74.1187C20.7558 74.5373 20.4566 74.9141 20.0757 75.0379C19.9361 75.0834 19.3485 74.4445 19.4084 74.2643C19.5444 73.8529 19.9524 73.5307 20.2516 73.174C20.5255 73.4306 20.7975 73.6873 21.2581 74.1187H21.2563Z" fill="black"/>
<path d="M19.4806 77.5153C18.9982 77.8393 18.7081 78.1706 18.3871 78.2015C18.1912 78.2197 17.7252 77.6809 17.7759 77.559C17.9246 77.2058 18.2728 76.9364 18.5412 76.6324C18.7951 76.8709 19.049 77.1075 19.4806 77.5153V77.5153Z" fill="black"/>
<path d="M48.6977 105.935C49.0536 105.008 50.139 103.152 51.6337 103.152C53.1284 103.152 109.731 95.2017 137.845 91.2264C138.645 91.0939 140.194 91.3059 139.98 93.2141C139.766 95.1222 126.19 125.547 119.428 140.521L30.0142 160L2.7897 146.881C1.90001 146.086 0.814588 144.099 3.59042 142.508C6.36626 140.918 28.9397 135.15 40.7124 129.717L48.6977 105.935Z" fill="white"/>
<path d="M30.0142 160L119.428 140.521C126.19 125.547 139.766 95.1222 139.98 93.2141C140.194 91.3059 138.645 91.0939 137.845 91.2264C109.731 95.2017 53.1284 103.152 51.6337 103.152C50.139 103.152 49.0536 105.008 48.6977 105.935L40.7124 129.717M30.0142 160L2.7897 146.881C1.90001 146.086 0.814588 144.099 3.59042 142.508C6.36626 140.918 28.9397 135.15 40.7124 129.717M30.0142 160L40.7124 129.717" stroke="black"/>
<path d="M81.8096 132.933C81.3216 132.555 80.8937 132.099 80.4699 131.602L80.3522 131.703L80.4699 131.602C79.9412 130.983 79.5855 130.266 79.3821 129.464L81.8096 132.933ZM81.8096 132.933C82.2577 133.28 82.7566 133.55 83.298 133.843C83.3343 133.862 83.3709 133.882 83.4076 133.902C83.7274 134.071 84.0662 134.207 84.4242 134.322C85.322 134.613 86.2343 134.65 87.1694 134.469M81.8096 132.933L87.1694 134.469M89.169 116.533C88.6352 116.725 88.1333 116.931 87.6717 117.204L89.169 116.533ZM89.169 116.533C89.5295 116.404 89.9237 116.39 90.3704 116.441L90.3705 116.441C90.7916 116.489 91.2067 116.596 91.635 116.732C91.7312 116.763 91.8204 116.807 91.9472 116.87C91.9755 116.884 92.0058 116.899 92.0384 116.915L92.1056 116.777C92.1509 116.798 92.1969 116.82 92.2435 116.843C92.2435 116.843 92.2436 116.843 92.2436 116.843L89.169 116.533ZM95.9369 120.417C95.7244 119.898 95.4097 119.428 95.0284 118.98C94.7428 118.646 94.399 118.355 94.0163 118.071L95.9369 120.417ZM95.9369 120.417C95.9375 120.418 95.9381 120.42 95.939 120.422C95.9462 120.441 95.9628 120.483 95.9807 120.521L95.9812 120.522C96.2276 121.038 96.3388 121.605 96.3859 122.218L96.3859 122.218C96.4288 122.776 96.4571 123.334 96.4669 123.891L96.4669 123.891C96.4781 124.528 96.3497 125.156 96.1337 125.79L95.9369 120.417ZM95.7208 127.275C95.7208 127.275 95.7208 127.275 95.7208 127.275L96.1619 127.511L95.7208 127.275ZM95.7208 127.275C95.3604 127.955 94.9387 128.596 94.4637 129.204L94.3314 129.099C94.3314 129.099 94.3314 129.099 94.3314 129.099M95.7208 127.275L95.6737 127.003C95.2998 127.747 94.8505 128.445 94.3314 129.099M94.3314 129.099C94.231 129.226 94.1306 129.352 94.0304 129.478C93.4469 130.214 92.8653 130.947 92.2761 131.675L92.276 131.675C92.1341 131.85 91.9653 132.017 91.781 132.176L94.3314 129.099ZM87.1694 134.469C87.9802 134.311 88.7606 134.046 89.5144 133.692L89.5144 133.692C90.3338 133.307 91.0763 132.783 91.7809 132.176L87.1694 134.469ZM79.3821 129.464C79.1988 128.741 79.2508 128.015 79.4797 127.275L79.3821 129.464ZM79.4798 127.275C79.6809 126.626 79.9995 126.024 80.3988 125.446L79.4798 127.275ZM82.2116 123.046C82.5011 122.697 82.7932 122.352 83.0918 122.015L80.3988 125.446C80.9701 124.619 81.572 123.817 82.2115 123.046L82.2116 123.046ZM84.1348 120.719C84.2586 120.558 84.3806 120.399 84.5015 120.244L83.0918 122.015C83.4611 121.598 83.8044 121.15 84.1348 120.719ZM85.8678 118.619C86.3653 118.053 86.983 117.612 87.6716 117.204L84.5015 120.244C84.9348 119.692 85.3959 119.156 85.8677 118.619L85.8678 118.619ZM93.8307 117.931C93.89 117.976 93.9515 118.022 94.0163 118.071L92.1049 116.777L92.0375 116.915C92.0643 116.928 92.091 116.941 92.1177 116.954C92.4703 117.128 92.8167 117.298 93.1585 117.477L93.1588 117.477C93.3889 117.597 93.5911 117.75 93.8307 117.931ZM96.0628 125.999C95.9399 126.365 95.83 126.691 95.6738 127.002L96.1336 125.79C96.1093 125.861 96.0858 125.931 96.0628 125.999Z" stroke="black"/>
<path d="M83.1679 123.434C83.1785 123.422 83.1878 123.41 83.1965 123.4L83.2124 123.422L83.1679 123.434ZM83.1679 123.434C83.1696 123.44 83.1708 123.449 83.172 123.457C83.1749 123.478 83.1782 123.501 83.1913 123.511C83.2059 123.522 83.2378 123.524 83.2604 123.517L83.2164 123.478L83.1679 123.434ZM83.6909 123.194C83.6804 123.203 83.6698 123.211 83.6592 123.219L83.6604 123.186L83.6763 123.176L83.6909 123.194ZM83.6909 123.194C83.7068 123.182 83.7282 123.15 83.7236 123.144M83.6909 123.194L83.6764 123.176L83.7236 123.144M83.7236 123.144C83.7099 123.123 83.685 123.099 83.6638 123.098M83.7236 123.144L83.6762 123.175L83.6615 123.157L83.6638 123.098M83.6638 123.098C83.6496 123.098 83.6344 123.099 83.6194 123.102L83.6614 123.156L83.6638 123.098ZM83.5652 123.124L83.6226 123.212L83.6601 123.186L83.6614 123.157L83.6188 123.102C83.5995 123.107 83.5806 123.114 83.5652 123.124ZM83.5652 123.124L83.6223 123.212L83.6001 123.227M83.5652 123.124C83.5542 123.131 83.5432 123.139 83.5322 123.146C83.561 123.173 83.5831 123.201 83.6001 123.227M83.2953 123.4L83.2882 123.402L83.288 123.402L83.2695 123.407L83.2128 123.422L83.1969 123.4C83.1969 123.399 83.197 123.399 83.197 123.399C83.2146 123.378 83.2295 123.36 83.2478 123.347C83.2528 123.343 83.2578 123.339 83.2628 123.336C83.2694 123.352 83.2772 123.368 83.2863 123.384C83.2892 123.39 83.2922 123.395 83.2953 123.4ZM83.2953 123.4C83.2997 123.408 83.3045 123.415 83.3095 123.423L83.373 123.38M83.2953 123.4L83.373 123.38M83.373 123.38L83.3781 123.378M83.373 123.38L83.6001 123.227M83.3781 123.378L83.3106 123.424C83.3191 123.437 83.329 123.45 83.3407 123.463C83.3915 123.425 83.4419 123.387 83.492 123.349L83.3781 123.378ZM83.3781 123.378L83.6004 123.227M83.6004 123.227C83.6063 123.236 83.6115 123.245 83.6161 123.253C83.6234 123.247 83.6307 123.241 83.6379 123.236L83.6226 123.212L83.6004 123.227ZM83.6004 123.227C83.6003 123.227 83.6002 123.227 83.6001 123.227M83.6601 123.187L83.6588 123.219C83.6519 123.225 83.6451 123.23 83.6382 123.235L83.6229 123.212L83.6601 123.187ZM83.6761 123.176L83.6604 123.186L83.6615 123.157L83.6761 123.176Z" fill="black" stroke="black"/>
<path d="M88.9866 131.06C88.961 131.044 88.9304 131.033 88.9114 131.012C88.8961 130.995 88.8947 130.965 88.8872 130.941C88.9097 130.937 88.9343 130.925 88.9543 130.93C89.0094 130.944 89.062 130.971 89.1175 130.983C89.1976 130.999 89.2795 131.007 89.3608 131.016C89.4018 131.021 89.4525 131.024 89.4435 131.076C89.4393 131.1 89.3861 131.135 89.3579 131.133C89.2328 131.12 89.1088 131.097 88.9844 131.077L88.9866 131.06V131.06Z" fill="black"/>
<path d="M88.5715 126.934C88.5459 126.919 88.5152 126.908 88.4962 126.887C88.481 126.87 88.4796 126.84 88.4721 126.816C88.4946 126.812 88.5191 126.8 88.5392 126.805C88.5943 126.819 88.6468 126.846 88.7024 126.857C88.7824 126.874 88.8643 126.882 88.9456 126.891C88.9867 126.896 89.0374 126.899 89.0283 126.951C89.0242 126.975 88.9709 127.01 88.9428 127.007C88.8177 126.995 88.6937 126.971 88.5693 126.952L88.5715 126.934V126.934Z" fill="black"/>
<path d="M93.4461 130.118C93.4266 130.136 93.4156 130.151 93.4009 130.16C93.2991 130.222 93.1987 130.289 93.093 130.344C93.0545 130.364 93.0021 130.362 92.9563 130.361C92.9422 130.361 92.9211 130.333 92.9179 130.315C92.9154 130.303 92.9344 130.279 92.9493 130.272C93.094 130.2 93.2397 130.13 93.386 130.062C93.4014 130.054 93.4329 130.054 93.4391 130.063C93.4492 130.077 93.4447 130.102 93.4459 130.119L93.4461 130.118Z" fill="black"/>
<path d="M89.5541 119.286C89.5271 119.298 89.5018 119.321 89.4816 119.317C89.4573 119.313 89.4211 119.288 89.4178 119.268C89.3994 119.158 89.388 119.046 89.3788 118.935C89.3774 118.919 89.4059 118.886 89.4143 118.888C89.4426 118.895 89.4845 118.908 89.4917 118.929C89.5166 119.001 89.5315 119.077 89.5457 119.153C89.5534 119.194 89.5513 119.236 89.5544 119.286L89.5541 119.286Z" fill="black"/>
<path d="M80.3989 127.871C80.351 128.005 80.3051 128.139 80.2539 128.272C80.2434 128.299 80.2131 128.318 80.1919 128.341C80.1811 128.309 80.1535 128.271 80.1623 128.246C80.2139 128.106 80.2717 127.969 80.3335 127.833C80.3426 127.813 80.3832 127.808 80.4092 127.795L80.4147 127.871L80.399 127.871L80.3989 127.871Z" fill="black"/>
<path d="M92.2871 127.618C92.1756 127.704 92.0633 127.793 91.9477 127.877C91.935 127.886 91.9042 127.87 91.8817 127.866C91.8875 127.841 91.8853 127.807 91.9007 127.794C92.003 127.707 92.1085 127.624 92.2149 127.543C92.2286 127.532 92.2614 127.53 92.2728 127.539C92.2847 127.548 92.2811 127.577 92.2873 127.618L92.2871 127.618Z" fill="black"/>
<path d="M88.7101 123.546C88.5985 123.633 88.4862 123.721 88.3706 123.806C88.3579 123.815 88.3271 123.799 88.3046 123.794C88.3104 123.77 88.3083 123.736 88.3236 123.722C88.4259 123.636 88.5314 123.553 88.6378 123.471C88.6515 123.461 88.6844 123.458 88.6957 123.467C88.7076 123.477 88.7041 123.505 88.7102 123.546L88.7101 123.546Z" fill="black"/>
<path d="M95.0739 123.472C95.0381 123.485 95.0048 123.51 94.9862 123.501C94.9661 123.492 94.9461 123.451 94.9493 123.427C94.9635 123.323 94.9843 123.221 95.0079 123.12C95.0128 123.099 95.04 123.084 95.0569 123.066C95.0728 123.085 95.1034 123.105 95.1026 123.124C95.0972 123.237 95.085 123.35 95.0743 123.472L95.0739 123.472Z" fill="black"/>
<path d="M92.0556 121.342C92.0485 121.362 92.047 121.392 92.0339 121.399C91.9351 121.45 91.8346 121.498 91.7332 121.543C91.72 121.549 91.6908 121.54 91.682 121.528C91.6731 121.516 91.6742 121.488 91.6816 121.473C91.7096 121.417 91.9615 121.315 92.0231 121.331C92.0279 121.333 92.0325 121.335 92.0553 121.342L92.0556 121.342Z" fill="black"/>
<path d="M86.2723 119.187C86.2335 119.194 86.1913 119.213 86.1567 119.204C86.1109 119.192 86.0951 119.145 86.1152 119.1C86.1368 119.052 86.1828 119.033 86.2255 119.061C86.254 119.08 86.2666 119.122 86.2862 119.154L86.2721 119.187L86.2723 119.187Z" fill="black"/>
<path d="M83.9675 124.536C83.9621 124.499 83.9442 124.458 83.954 124.426C83.9688 124.379 84.0203 124.365 84.057 124.395C84.0806 124.414 84.0999 124.468 84.0894 124.493C84.0779 124.52 84.0304 124.532 83.9983 124.551C83.988 124.546 83.9776 124.541 83.9673 124.536L83.9675 124.536Z" fill="black"/>
<path d="M85.5173 130.295C85.5068 130.238 85.4864 130.197 85.4988 130.176C85.5124 130.153 85.5595 130.133 85.5869 130.139C85.6318 130.147 85.6488 130.193 85.6235 130.231C85.6073 130.256 85.5687 130.266 85.5171 130.295L85.5173 130.295Z" fill="black"/>
<path d="M83.0553 127.9C83.0004 127.911 82.9603 127.931 82.9434 127.919C82.9204 127.903 82.915 127.862 82.902 127.831C82.9328 127.819 82.9683 127.792 82.9925 127.8C83.0157 127.808 83.0269 127.852 83.0553 127.9V127.9Z" fill="black"/>
<path d="M89.1061 133.085C89.0533 133.096 89.012 133.117 88.9952 133.104C88.973 133.088 88.9699 133.046 88.9585 133.014C88.9882 133.005 89.0231 132.981 89.0465 132.99C89.0688 132.998 89.0792 133.039 89.1062 133.085L89.1061 133.085Z" fill="black"/>
<path d="M91.9655 118.83C91.9117 118.839 91.8766 118.855 91.8528 118.845C91.8362 118.838 91.8202 118.786 91.83 118.77C91.8415 118.75 91.8847 118.735 91.9074 118.742C91.9274 118.748 91.9382 118.786 91.9658 118.83L91.9655 118.83Z" fill="black"/>
<path d="M94.2568 126.483C94.2093 126.487 94.1808 126.498 94.1628 126.488C94.148 126.481 94.1456 126.449 94.1377 126.428C94.1585 126.421 94.184 126.402 94.1994 126.409C94.2181 126.416 94.2286 126.445 94.2568 126.483Z" fill="black"/>
<path d="M91.7888 124.948C91.7413 124.952 91.7128 124.963 91.6948 124.954C91.6801 124.946 91.6776 124.915 91.6698 124.894C91.6906 124.886 91.716 124.868 91.7314 124.874C91.7501 124.882 91.7607 124.91 91.7888 124.948Z" fill="black"/>
</svg>
