<svg width="367" height="417" viewBox="0 0 367 417" fill="none" xmlns="http://www.w3.org/2000/svg">
<path d="M135.362 291.988C151.31 299.081 167.99 301.752 185.466 298.788C187.652 298.419 189.104 298.752 190.381 300.321C190.764 300.792 191.223 301.201 191.621 301.658C199.876 311.213 203.959 322.768 209.248 334.065C210.586 334.011 211.925 333.958 213.264 333.896C212.8 333.634 212.45 333.167 212.077 332.443C205.927 320.537 202.114 307.414 191.441 297.663C192.278 297.397 192.851 297.197 193.433 297.037C200.51 295.103 207.157 292.268 213.382 288.575C230.848 278.212 243.068 263.591 251.796 246.263C263.321 223.385 267.602 199.134 266.613 173.98C266.485 170.776 266.717 167.732 268.406 164.981C271.699 159.626 275.01 154.262 278.625 149.098C282.021 144.25 285.077 139.512 281.591 133.633C295.078 127.055 298.461 119.567 295.939 101.991C299.875 102.604 303.012 101.493 305.264 98.1868C303.845 98.3068 302.596 98.569 301.37 98.4846C299.123 98.329 297.387 96.1514 297.401 93.6761C297.411 91.3163 299.653 92.4939 300.755 91.8629C300.94 91.7562 301.214 91.7874 301.451 91.7562C307.501 90.9741 311.352 87.6899 312.932 82.277C314.049 78.4551 313.495 74.7266 310.458 71.2113C310.458 71.949 310.368 72.3268 310.472 72.6512C311.324 75.291 310.184 77.5974 309.001 79.8284C308.23 81.2816 306.707 81.6015 305.131 81.0149C302.913 80.1883 300.982 77.0597 301.049 74.6066C305.41 74.2333 307.44 72.7134 308.287 69.1804C309.048 65.9984 307.591 62.4832 304.753 60.9366C305.108 62.1721 305.434 63.3009 305.751 64.4297C306.465 66.9361 305.732 68.4382 303.537 68.9671C301.791 69.3892 300.803 68.4071 300.022 65.9762C299.369 63.9408 298.65 61.8699 297.553 60.0256C294.951 55.6571 292.126 51.4041 289.34 47.1334C288.645 46.0668 287.821 45.0535 286.941 44.1114C281.042 37.7786 274.414 32.4813 265.303 31.0992C265.539 23.6865 262.729 17.9714 256.078 14.0962C253.703 12.714 252.094 12.9185 250.973 14.5494C252.369 15.2294 254.166 15.6116 255.136 16.6648C258.306 20.109 256.428 26.1262 251.886 27.7839C246.512 29.7437 239.061 25.9263 237.396 20.6645C235.191 13.674 231.643 7.36339 224.164 4.21254C215.232 0.452863 205.983 -1.37365 196.153 1.19947C185.428 4.00812 174.59 6.47458 167.238 15.3449C166.874 15.7849 165.819 16.2649 165.516 16.0871C164.948 15.7493 164.471 14.9805 164.343 14.3228C163.832 11.6786 165.71 8.35886 168.312 7.13674C169.902 6.39014 171.524 5.7102 173.393 4.8836C167.55 3.70592 163.643 6.59901 159.981 9.7543C157.365 12.0074 154.9 14.5272 156.447 18.6113C154.995 17.8558 153.666 17.0915 152.743 16.016C147.227 9.58542 139.856 6.57234 131.365 5.62131C130.698 5.54576 129.936 6.16793 129.222 6.46569C129.742 7.01675 130.154 7.75447 130.806 8.08333C132.183 8.78105 133.725 9.18546 135.121 9.85651C137.316 10.9142 138.536 12.7185 138.73 14.9894C138.787 15.656 138.205 16.4515 137.699 17.0203C137.581 17.1537 136.564 16.6515 136.006 16.3626C133.683 15.1716 131.516 13.5051 129.042 12.8296C124.07 11.4653 118.956 10.5231 113.861 9.59875C102.947 7.62114 92.6951 9.42988 83.8817 15.7893C77.7931 20.1845 72.3291 25.3619 66.7325 30.3437C62.806 33.8367 58.3401 35.6854 52.9186 35.401C48.6373 35.1744 43.9585 29.1615 46.9578 25.1086C47.7905 23.9842 48.5568 22.811 49.3516 21.6644C49.2712 21.4555 49.1908 21.2422 49.1103 21.0333C48.1027 21.2333 46.9294 21.1844 46.1158 21.6688C41.9763 24.1397 40.1691 28.2905 38.2106 32.1924C34.1752 40.2184 34.5064 47.9288 41.0349 54.8171C41.0065 54.9549 41.0207 55.0527 40.9734 55.0927C40.5192 55.5015 40.0603 55.9015 39.592 56.297C31.6632 62.9631 24.988 70.5358 20.2336 79.5484C16.08 87.4188 13.6199 95.6537 13.549 104.484C13.5064 109.497 9.3717 111.657 4.82068 109.017C3.53863 108.275 2.5357 107.11 1.3672 106.106C1.25366 108.093 1.89232 109.861 3.59067 111.141C6.4528 113.301 9.66028 113.154 13.1516 111.946C12.9624 114.137 12.9198 116.136 12.5603 118.083C12.3852 119.029 11.8081 120.087 11.0559 120.718C10.3273 121.331 8.83712 121.985 8.22212 121.678C7.28542 121.207 6.66568 119.976 6.19734 118.954C5.90403 118.31 6.1453 117.456 6.1453 116.696C3.52444 119.305 4.24352 121.931 6.21153 124.856C2.87632 124.149 1.26785 122.216 0 119.843C0.0993466 123.722 1.5517 127.038 4.34287 129.806C8.16535 133.597 12.7779 132.362 17.1538 131.286C17.3573 131.562 17.433 131.62 17.4377 131.686C17.4708 132.131 17.4803 132.571 17.5087 133.015C17.9155 139.65 21.4021 144.507 27.2352 148.076C27.7556 148.396 28.1104 149.32 28.1056 149.96C28.0914 152.391 27.59 154.849 27.8312 157.244C28.3327 162.172 30.6413 165.999 36.1858 167.359C36.3751 167.403 36.517 167.612 36.6731 167.736C36.2615 170.043 34.6578 170.918 32.458 171.376C31.772 171.518 31.2611 172.403 30.6744 172.945C31.4834 173.176 32.3586 173.723 33.0824 173.58C34.9842 173.207 36.815 172.536 38.5134 172.034C41.8155 175.976 43.5753 180.46 44.6397 185.202C44.8668 186.219 44.8952 187.468 44.4742 188.401C39.5494 199.338 39.5258 210.435 43.2536 221.607C45.9313 229.638 50.3687 236.637 58.0468 241.352C64.968 245.605 72.1493 246.045 79.4253 242.001C79.7943 241.797 80.2248 241.69 80.6174 241.544C81.5305 251.872 82.434 262.066 83.3613 272.541C80.2768 271.274 77.7695 271.99 75.4135 273.376C73.3462 274.594 71.2599 275.798 69.325 277.185C60.8616 283.233 54.0114 290.744 47.2228 298.374C35.3485 311.724 27.2541 327.043 20.2194 342.922C18.2656 347.33 15.3562 360.636 14.041 365.28C13.8754 365.862 14.4478 366.631 14.6749 367.315C15.2568 366.844 15.9475 366.444 16.3827 365.875C16.7281 365.422 18.6582 356.236 18.8475 355.672C20.4843 350.659 21.6765 345.464 23.8527 340.664C32.1694 322.292 42.965 305.338 57.6305 290.735C63.3737 285.015 69.4149 279.634 76.6341 275.518C78.8812 274.239 81.1473 274.199 83.8769 274.563C80.5228 274.821 81.696 276.349 82.434 277.794C85.3671 283.536 89.4403 288.246 95.5289 291.357C100.823 294.059 106.518 295.303 112.375 296.148C118.984 297.099 125.12 295.743 130.579 292.277C132.401 291.122 133.569 291.197 135.367 291.993L135.362 291.988ZM79.6239 238.624C72.1162 244.543 62.1247 242.606 55.2651 235.864C48.519 229.238 45.2311 221.114 43.9254 212.195C42.8184 204.653 43.4949 197.218 46.7071 190.201C49.6497 183.766 54.1723 178.696 62.0632 177.362C65.5971 176.767 69.0175 177.353 72.1682 178.838C76.459 180.855 80.7735 182.962 82.9024 187.401C83.9668 189.623 84.3973 191.881 83.3187 194.272C83.0822 194.801 83.4322 195.565 83.5127 196.219C84.1844 195.867 85.1164 195.681 85.4949 195.143C89.8425 188.988 94.1049 182.784 98.4667 176.478C99.0675 176.434 99.99 176.398 100.903 176.291C101.594 176.211 102.275 176.047 102.966 175.922C102.649 175.216 102.478 174.398 101.986 173.816C96.9245 167.794 97.5915 161.23 100.023 154.458C100.104 154.973 100.241 155.484 100.255 156C100.378 161.604 103.865 165.114 108.643 167.75C109.348 168.141 110.379 168.008 111.259 168.119C111.046 167.363 110.757 166.621 110.63 165.852C110.242 163.568 109.489 161.248 109.66 158.995C109.977 154.795 112.508 151.636 116.254 149.031C116.543 150.467 116.628 151.698 117.04 152.827C118.965 158.079 124.126 161.413 130.144 161.288C130.702 161.275 131.242 160.693 131.79 160.373C131.402 159.884 131.104 159.106 130.603 158.959C127.892 158.173 127.069 156.137 126.681 153.884C125.48 146.876 128.73 140.383 135.495 136.388C135.57 137.779 135.883 139.117 135.613 140.343C135.452 141.085 134.402 141.659 133.739 142.299C133.176 142.841 132.595 143.365 132.022 143.898C132.675 144.454 133.247 145.347 133.995 145.503C136.379 145.992 137.666 147.427 139.208 149.111C141.839 151.987 145.065 154.444 148.296 156.764C150.274 158.182 152.98 156.622 152.975 154.364C149.29 155.151 147.823 154.231 146.995 150.613C146.21 147.165 147.014 144.276 149.2 143.054C149.659 142.796 150.368 142.623 150.855 142.756C159.863 145.214 165.01 144.765 173.525 140.699C173.852 145.401 168.908 148.996 164.338 147.44C163.785 147.249 162.782 147.267 162.493 147.587C162.186 147.934 162.271 148.84 162.531 149.347C165.521 155.146 171.709 157.986 178.687 156.395C193.65 152.987 202.227 143.516 206.39 130.024C206.523 129.602 206.636 129.175 206.769 128.753C206.788 128.691 206.868 128.646 206.92 128.598C209.314 131.766 209.645 140.552 206.598 143.81C205.255 145.245 202.96 145.885 201.115 146.92C200.198 147.436 199.332 148.031 198.438 148.591C199.431 149.102 200.396 149.982 201.428 150.067C207.265 150.538 211.845 147.814 216.173 144.583C216.902 144.041 217.574 143.436 218.421 142.743C219.135 144.37 219.703 145.876 220.445 147.303C222.972 152.164 227.319 154.466 232.916 154.769C234.127 154.835 235.433 154.538 236.573 154.115C237.126 153.911 237.751 152.978 237.68 152.458C237.618 152.009 236.525 151.271 236.038 151.365C233.573 151.822 232.963 150.342 232.627 148.658C232.244 146.729 232.064 144.761 231.7 142.148C235.191 145.165 238.692 146.738 242.69 147.054C244.781 147.218 246.947 147.24 249.005 146.92C250.675 146.663 251.678 147.032 252.019 148.467C252.572 150.818 253.201 153.204 253.282 155.591C253.376 158.439 251.962 160.582 248.65 161.115C248.575 161.128 248.49 161.141 248.423 161.177C247.255 161.768 245.192 161.884 245.807 163.683C246.427 165.506 248.149 164.488 249.464 164.261C255.302 163.252 259.843 160.564 262.724 155.355C262.966 157.217 263.269 159.075 263.439 160.946C265.487 183.193 264.007 205.147 256.972 226.598C250.973 244.894 241.701 261.453 227.087 275.052C215.634 285.713 202.194 293.126 186.251 296.037C165.535 299.819 146.328 295.583 128.498 285.531C110.024 275.118 95.5431 260.951 85.036 243.237C84.1939 241.819 83.1437 240.513 82.3063 239.09C81.5541 237.815 80.6174 237.855 79.6145 238.642L79.6239 238.624ZM114.864 293.37C107.015 292.793 99.4081 291.113 93.0452 286.411C90.9163 284.838 89.2275 282.736 87.4014 280.825C87.0702 280.482 86.9425 279.896 86.8857 279.407C85.7787 269.626 84.6906 259.844 83.6073 250.063C83.4701 248.845 83.3518 247.623 83.2146 246.316C94.9659 264.115 109.967 278.629 129.581 289.348C124.94 292.361 120.058 293.757 114.864 293.375V293.37Z" fill="black"/>
<path d="M202.447 210.762C202.792 202.458 204.835 193.506 209.974 185.319C211.799 182.411 213.629 179.696 216.47 177.732C223.085 173.167 230.305 174.234 235.241 180.565C238.479 184.72 240.002 189.573 240.682 194.691C242.054 205.017 240.399 214.879 235.737 224.209C233.269 229.142 229.86 233.302 225.165 236.309C218.844 240.36 213.232 239.227 208.75 233.231C204.003 226.881 202.485 219.653 202.443 210.758L202.447 210.762ZM205.346 217.868C206.546 213.147 207.624 208.336 209.01 203.614C210.291 199.228 213.109 195.838 216.934 193.379C223.189 189.361 231.231 191.868 234.073 198.666C235.534 202.155 236.843 205.692 236.626 209.587C236.597 210.12 236.82 210.668 236.924 211.211C238.843 202.986 238.805 194.913 235.501 187.123C234.687 185.201 233.505 183.346 232.134 181.769C228.546 177.638 223.799 176.816 219.217 179.805C216.627 181.495 214.05 183.591 212.277 186.08C205.445 195.664 203.989 206.532 205.341 217.873L205.346 217.868Z" fill="black"/>
<path d="M135.225 208.629C135.57 200.324 137.613 191.373 142.752 183.186C144.577 180.278 146.407 177.563 149.248 175.599C155.863 171.034 163.082 172.101 168.018 178.432C171.257 182.587 172.779 187.44 173.46 192.558C174.831 202.883 173.176 212.746 168.515 222.075C166.047 227.009 162.638 231.168 157.943 234.176C151.622 238.227 146.009 237.094 141.527 231.098C136.78 224.748 135.263 217.519 135.22 208.624L135.225 208.629ZM138.123 215.735C139.324 211.013 140.402 206.202 141.787 201.481C143.069 197.095 145.887 193.705 149.711 191.245C155.967 187.228 164.009 189.735 166.85 196.533C168.311 200.022 169.621 203.558 169.404 207.454C169.375 207.987 169.597 208.535 169.701 209.078C171.621 200.853 171.583 192.78 168.278 184.99C167.465 183.068 166.283 181.213 164.912 179.636C161.323 175.505 156.577 174.683 151.995 177.672C149.404 179.362 146.827 181.458 145.054 183.946C138.222 193.531 136.766 204.399 138.118 215.739L138.123 215.735Z" fill="black"/>
<path d="M72.9391 207.92C72.5136 202.859 71.7524 198.511 68.1449 195.182C68.2821 194.96 68.4144 194.738 68.5515 194.516C69.2891 194.734 70.2962 194.719 70.7122 195.211C72.0077 196.74 73.5065 198.303 74.1637 200.13C76.1589 205.659 76.5938 211.456 76.1778 217.311C76.1589 217.547 76.1541 217.792 76.069 218.01C75.5348 219.393 75.6199 221.631 73.5017 221.338C71.4687 221.059 72.3387 219.077 72.4285 217.792C72.6791 214.251 71.8091 211.06 69.5586 208.34C66.9346 205.168 63.5304 205.602 61.644 209.237C59.5637 213.241 60.9395 218.486 64.7881 220.875C65.3885 221.248 66.2679 221.149 66.9819 221.381C67.5256 221.56 68.4286 221.933 68.4239 222.202C68.4097 222.797 68.0078 223.807 67.6107 223.883C66.4571 224.109 65.0576 224.35 64.0505 223.906C56.8451 220.72 55.4314 209.898 61.469 204.847C64.1876 202.576 67.6816 202.802 70.646 205.489C71.3316 206.107 71.9179 206.83 72.9391 207.92Z" fill="black"/>
<path d="M185.218 253.926C184.104 253.885 182.377 253.903 180.674 253.714C180.03 253.639 179.441 253.075 178.825 252.737C179.43 252.371 180.044 251.685 180.646 251.696C183.371 251.753 186.103 251.917 188.807 252.257C189.375 252.33 189.826 253.297 190.335 253.853C189.676 254.105 189.016 254.544 188.353 254.556C187.512 254.574 186.671 254.242 185.222 253.932L185.218 253.926Z" fill="black"/>
<path d="M73.7565 237.31C74.3286 235.161 74.6973 233.613 76.6831 233.707C78.1535 233.778 79.066 234.647 78.9052 236.172C78.735 237.777 77.9265 239.255 76.1725 239.113C75.2552 239.042 74.4278 237.848 73.7565 237.314V237.31Z" fill="black"/>
<path d="M55.4183 192.246C54.1134 193.331 53.3332 194.309 52.3404 194.63C51.9763 194.748 50.4444 193.091 50.6005 192.623C50.9551 191.556 52.0189 190.721 52.799 189.795C53.5129 190.461 54.2221 191.127 55.423 192.246H55.4183Z" fill="black"/>
<path d="M50.7885 201.055C49.5309 201.896 48.7744 202.755 47.9376 202.835C47.4269 202.883 46.2119 201.485 46.3442 201.169C46.7319 200.253 47.6397 199.554 48.3394 198.766C49.0014 199.384 49.6633 199.998 50.7885 201.055V201.055Z" fill="black"/>
<path d="M126.962 274.769C127.89 272.363 130.72 267.552 134.616 267.552C138.513 267.552 286.083 246.929 359.381 236.618C361.469 236.275 365.505 236.825 364.948 241.774C364.391 246.723 328.995 325.637 311.366 364.476L78.2514 415L7.2732 380.974C4.95365 378.911 2.1238 373.756 9.3608 369.631C16.5978 365.507 75.45 350.546 106.143 336.454L126.962 274.769Z" fill="white"/>
<path d="M78.2514 415L311.366 364.476C328.995 325.637 364.391 246.723 364.948 241.774C365.505 236.825 361.468 236.275 359.381 236.618C286.083 246.929 138.513 267.552 134.616 267.552C130.72 267.552 127.89 272.363 126.962 274.769L106.143 336.454M78.2514 415L7.2732 380.974C4.95365 378.911 2.1238 373.756 9.3608 369.631C16.5978 365.507 75.45 350.546 106.143 336.454M78.2514 415L106.143 336.454" stroke="black" stroke-width="3"/>
<mask id="path-11-inside-1_94_115" fill="white">
<path d="M217.394 312.923C216.927 313.553 216.38 314.19 215.851 314.838C215.248 315.519 214.218 316.687 213.624 317.375C213.578 317.428 213.528 317.48 213.445 317.572C212.456 318.843 211.118 320.489 210.143 321.771C209.074 323.178 208.013 324.594 207.144 326.138C206.427 327.41 205.837 328.735 205.451 330.15C204.725 332.821 204.863 335.441 205.9 338.002C206.671 339.908 207.695 341.656 209.134 343.156C210.256 344.325 211.349 345.523 212.691 346.445C213.541 347.029 214.435 347.553 215.327 348.072C216.73 348.888 218.188 349.578 219.748 350.059C222.205 350.817 224.696 350.966 227.213 350.508C231.497 349.728 235.396 348.048 238.856 345.388L238.933 345.329C240.016 344.495 241.1 343.661 241.964 342.588C243.672 340.468 245.375 338.343 247.076 336.217C248.451 334.497 249.671 332.676 250.708 330.731C251.378 329.474 251.837 328.137 252.279 326.791C252.66 325.627 252.996 324.452 253.108 323.23C253.389 320.174 253.188 317.138 252.571 314.139C252.393 313.27 252.002 312.441 251.663 311.612C251.031 310.069 250.092 308.711 249.004 307.46C248.145 306.471 247.138 305.638 246.083 304.859C245.278 304.264 244.489 303.645 243.601 303.176C242.761 302.733 241.913 302.306 241.057 301.893C240.501 301.625 239.938 301.365 239.358 301.159C238.846 300.978 238.309 300.851 237.774 300.75C236.996 300.603 236.208 300.508 235.427 300.378C234.246 300.183 233.078 300.281 231.961 300.669C230.494 301.178 229.057 301.769 227.704 302.554C225.43 303.872 223.444 305.512 221.727 307.506C220.215 309.26 218.775 311.066 217.394 312.923Z"/>
</mask>
<path d="M216.844 348.454L216.368 349.334L216.376 349.338L216.844 348.454ZM219.708 349.635L219.401 350.586L219.401 350.586L219.708 349.635ZM227.514 350.053L227.703 351.034L227.703 351.034L227.514 350.053ZM233.932 347.939L233.508 347.034L233.508 347.034L233.932 347.939ZM240.136 343.816L240.787 344.574L240.788 344.574L240.136 343.816ZM241.589 342.351L240.813 341.721L240.812 341.721L241.589 342.351ZM246.955 335.66L247.737 336.283L247.738 336.283L246.955 335.66ZM250.599 329.998L251.492 330.448L251.492 330.447L250.599 329.998ZM251.866 326.69L252.813 327.013L252.813 327.013L251.866 326.69ZM252.805 321.323L251.805 321.341L251.805 321.341L252.805 321.323ZM252.59 316.906L251.593 316.984L251.593 316.984L252.59 316.906ZM251.411 312.045L250.508 312.476L250.509 312.478L251.411 312.045ZM251.329 311.847L252.257 311.475L252.254 311.467L251.329 311.847ZM248.742 307.763L249.502 307.113L249.502 307.113L248.742 307.763ZM245.889 305.204L246.484 304.4L246.484 304.4L245.889 305.204ZM243.478 303.555L243.016 304.442L243.016 304.442L243.478 303.555ZM240.528 302.082L240.969 301.185L240.967 301.184L240.528 302.082ZM239.299 301.537L239.602 300.584L239.601 300.584L239.299 301.537ZM235.754 300.729L235.64 301.722L235.64 301.722L235.754 300.729ZM232.035 301.035L231.699 300.094L231.699 300.094L232.035 301.035ZM227.909 302.881L227.401 302.02L227.401 302.02L227.909 302.881ZM222.892 306.809L223.642 307.471L223.642 307.471L222.892 306.809ZM219.283 311.081L218.497 310.463L218.497 310.463L219.283 311.081ZM215.658 315.613L214.911 314.949L214.911 314.949L215.658 315.613ZM213.335 318.32L214.104 318.959L214.104 318.959L213.335 318.32ZM208.54 324.636L207.718 324.067L207.718 324.067L208.54 324.636ZM205.972 329.734L205.016 329.438L205.016 329.438L205.972 329.734ZM205.699 336.115L204.729 336.363L204.729 336.363L205.699 336.115ZM208.808 342.187L209.568 341.536L209.568 341.536L208.808 342.187ZM212.494 345.822L211.883 346.613L211.883 346.613L212.494 345.822ZM215.005 314.301L214.979 314.348L216.722 315.329L216.748 315.283L215.005 314.301ZM216.376 349.338C217.357 349.855 218.372 350.255 219.401 350.586L220.016 348.683C219.068 348.378 218.165 348.02 217.311 347.569L216.376 349.338ZM219.401 350.586C222.141 351.467 224.916 351.573 227.703 351.034L227.324 349.071C224.84 349.552 222.409 349.453 220.015 348.683L219.401 350.586ZM227.703 351.034C230.02 350.585 232.235 349.836 234.355 348.844L233.508 347.034C231.523 347.962 229.465 348.657 227.324 349.071L227.703 351.034ZM234.355 348.844C236.733 347.732 238.844 346.24 240.787 344.574L239.485 343.057C237.634 344.644 235.676 346.02 233.508 347.034L234.355 348.844ZM240.788 344.574C241.339 344.101 241.885 343.571 242.365 342.981L240.812 341.721C240.428 342.193 239.975 342.638 239.485 343.057L240.788 344.574ZM242.365 342.981C244.174 340.759 245.956 338.515 247.737 336.283L246.173 335.037C244.388 337.275 242.614 339.508 240.813 341.721L242.365 342.981ZM247.738 336.283C249.185 334.468 250.443 332.527 251.492 330.448L249.705 329.549C248.721 331.499 247.538 333.325 246.173 335.037L247.738 336.283ZM251.492 330.447C252.066 329.309 252.443 328.09 252.813 327.013L250.92 326.366C250.522 327.526 250.201 328.567 249.705 329.549L251.492 330.447ZM252.813 327.013C253.435 325.197 253.841 323.295 253.805 321.305L251.805 321.341C251.835 323.036 251.491 324.7 250.92 326.367L252.813 327.013ZM253.805 321.305C253.779 319.809 253.703 318.315 253.588 316.828L251.593 316.984C251.705 318.435 251.779 319.89 251.805 321.341L253.805 321.305ZM253.588 316.829C253.453 315.081 253.124 313.301 252.313 311.613L250.509 312.478C251.173 313.863 251.468 315.373 251.593 316.984L253.588 316.829ZM252.314 311.614C252.302 311.588 252.295 311.569 252.257 311.475L250.4 312.219C250.415 312.258 250.459 312.373 250.508 312.476L252.314 311.614ZM252.254 311.467C251.581 309.828 250.606 308.402 249.502 307.113L247.981 308.413C248.992 309.593 249.833 310.84 250.403 312.227L252.254 311.467ZM249.502 307.113C248.596 306.056 247.545 305.185 246.484 304.4L245.293 306.007C246.299 306.751 247.216 307.52 247.982 308.414L249.502 307.113ZM246.484 304.4C245.753 303.859 244.9 303.166 243.939 302.668L243.016 304.442C243.793 304.845 244.457 305.389 245.293 306.007L246.484 304.4ZM243.94 302.668C242.952 302.155 241.953 301.667 240.969 301.185L240.087 302.98C241.077 303.465 242.053 303.942 243.016 304.442L243.94 302.668ZM240.967 301.184C240.612 301.011 240.118 300.748 239.602 300.584L238.995 302.489C239.33 302.596 239.638 302.761 240.089 302.981L240.967 301.184ZM239.601 300.584C238.413 300.208 237.173 299.884 235.868 299.736L235.64 301.722C236.766 301.85 237.869 302.133 238.996 302.49L239.601 300.584ZM235.868 299.736C234.523 299.582 233.1 299.593 231.699 300.094L232.372 301.977C233.372 301.619 234.452 301.587 235.64 301.722L235.868 299.736ZM231.699 300.094C230.257 300.61 228.79 301.202 227.401 302.02L228.417 303.742C229.644 303.018 230.973 302.476 232.372 301.977L231.699 300.094ZM227.401 302.02C225.512 303.133 223.669 304.422 222.143 306.148L223.642 307.471C224.969 305.97 226.609 304.807 228.417 303.742L227.401 302.02ZM222.143 306.148C220.904 307.548 219.668 308.977 218.497 310.463L220.069 311.699C221.204 310.258 222.411 308.863 223.642 307.471L222.143 306.148ZM218.497 310.463C217.268 312.023 216.173 313.532 214.911 314.949L216.405 316.278C217.721 314.801 218.904 313.179 220.069 311.699L218.497 310.463ZM214.911 314.949C214.111 315.848 213.332 316.762 212.567 317.68L214.104 318.959C214.86 318.051 215.624 317.155 216.405 316.278L214.911 314.949ZM212.567 317.68C210.852 319.737 209.242 321.872 207.718 324.067L209.362 325.205C210.856 323.053 212.431 320.966 214.104 318.959L212.567 317.68ZM207.718 324.067C206.579 325.708 205.626 327.477 205.016 329.438L206.927 330.03C207.462 328.309 208.309 326.723 209.362 325.205L207.718 324.067ZM205.016 329.438C204.319 331.681 204.127 334.001 204.729 336.363L206.668 335.868C206.174 333.93 206.317 331.991 206.927 330.03L205.016 329.438ZM204.729 336.363C205.339 338.755 206.42 340.94 208.048 342.838L209.568 341.536C208.156 339.891 207.209 337.988 206.668 335.868L204.729 336.363ZM208.048 342.838C209.19 344.169 210.425 345.49 211.883 346.613L213.106 345.03C211.809 344.03 210.678 342.83 209.568 341.536L208.048 342.838ZM211.883 346.613C213.312 347.715 214.899 348.541 216.368 349.333L217.319 347.574C215.802 346.756 214.378 346.011 213.106 345.03L211.883 346.613ZM215.851 314.838L217.349 316.162L217.376 316.132L217.401 316.101L215.851 314.838ZM217.394 312.923L215.788 311.732L215.787 311.733L217.394 312.923ZM221.727 307.506L223.242 308.809L223.243 308.809L221.727 307.506ZM227.704 302.554L228.707 304.283L228.707 304.283L227.704 302.554ZM231.961 300.669L231.306 298.78L231.306 298.781L231.961 300.669ZM235.427 300.378L235.099 302.351L235.099 302.351L235.427 300.378ZM237.774 300.75L238.147 298.786L238.147 298.786L237.774 300.75ZM239.358 301.159L240.029 299.275L240.025 299.274L239.358 301.159ZM241.057 301.893L241.928 300.093L241.928 300.093L241.057 301.893ZM243.601 303.176L242.666 304.944L242.666 304.944L243.601 303.176ZM246.083 304.859L244.893 306.467L244.893 306.467L246.083 304.859ZM249.004 307.46L250.516 306.149L250.516 306.149L249.004 307.46ZM251.663 311.612L249.811 312.37L249.811 312.37L251.663 311.612ZM252.571 314.139L250.611 314.542L250.611 314.543L252.571 314.139ZM253.108 323.23L255.101 323.412L255.101 323.412L253.108 323.23ZM252.279 326.791L254.18 327.412L254.18 327.411L252.279 326.791ZM250.708 330.731L252.474 331.67L252.474 331.67L250.708 330.731ZM247.076 336.217L245.513 334.97L245.513 334.97L247.076 336.217ZM241.964 342.588L243.523 343.841L243.523 343.841L241.964 342.588ZM238.933 345.329L237.713 343.745L237.713 343.745L238.933 345.329ZM238.856 345.388L240.076 346.972L240.077 346.971L238.856 345.388ZM227.213 350.508L227.57 352.474L227.57 352.474L227.213 350.508ZM219.748 350.059L220.339 348.149L220.339 348.149L219.748 350.059ZM215.327 348.072L214.32 349.8L214.32 349.8L215.327 348.072ZM212.691 346.445L211.556 348.093L211.557 348.093L212.691 346.445ZM209.134 343.156L207.69 344.54L207.69 344.54L209.134 343.156ZM205.9 338.002L207.755 337.252L207.755 337.251L205.9 338.002ZM205.451 330.15L203.521 329.627L203.521 329.627L205.451 330.15ZM207.144 326.138L208.888 327.117L208.888 327.117L207.144 326.138ZM210.143 321.771L208.55 320.563L208.55 320.563L210.143 321.771ZM213.445 317.572L211.963 316.23L211.912 316.286L211.866 316.345L213.445 317.572ZM213.624 317.375L215.138 318.681L215.138 318.68L213.624 317.375ZM217.401 316.101C217.885 315.508 218.497 314.793 219.001 314.114L215.787 311.733C215.356 312.314 214.875 312.871 214.3 313.575L217.401 316.101ZM219 314.115C220.354 312.294 221.764 310.525 223.242 308.809L220.211 306.202C218.666 307.995 217.195 309.839 215.788 311.732L219 314.115ZM223.243 308.809C224.812 306.988 226.625 305.49 228.707 304.283L226.7 300.825C224.236 302.254 222.076 304.037 220.211 306.202L223.243 308.809ZM228.707 304.283C229.909 303.586 231.215 303.044 232.617 302.557L231.306 298.781C229.772 299.313 228.205 299.952 226.7 300.825L228.707 304.283ZM232.616 302.557C233.414 302.28 234.244 302.209 235.099 302.351L235.756 298.406C234.248 298.156 232.741 298.282 231.306 298.78L232.616 302.557ZM235.099 302.351C236.027 302.504 236.621 302.567 237.4 302.714L238.147 298.786C237.37 298.639 236.39 298.511 235.756 298.406L235.099 302.351ZM237.4 302.714C237.88 302.805 238.309 302.909 238.691 303.044L240.025 299.274C239.382 299.047 238.738 298.897 238.147 298.786L237.4 302.714ZM238.688 303.043C239.16 303.211 239.642 303.431 240.187 303.694L241.928 300.093C241.361 299.819 240.717 299.519 240.029 299.275L238.688 303.043ZM240.187 303.694C241.021 304.096 241.848 304.513 242.666 304.944L244.536 301.408C243.674 300.953 242.804 300.515 241.928 300.093L240.187 303.694ZM242.666 304.944C243.384 305.323 244.016 305.819 244.893 306.467L247.274 303.252C246.539 302.709 245.594 301.966 244.536 301.408L242.666 304.944ZM244.893 306.467C245.897 307.208 246.772 307.941 247.493 308.771L250.516 306.149C249.518 305.001 248.379 304.068 247.273 303.251L244.893 306.467ZM247.493 308.771C248.488 309.916 249.287 311.09 249.811 312.37L253.515 310.854C252.776 309.049 251.695 307.507 250.516 306.149L247.493 308.771ZM249.811 312.37C250.207 313.338 250.481 313.911 250.611 314.542L254.531 313.736C254.304 312.629 253.797 311.544 253.515 310.854L249.811 312.37ZM250.611 314.543C251.191 317.363 251.377 320.202 251.116 323.049L255.101 323.412C255.401 320.146 255.184 316.912 254.531 313.735L250.611 314.543ZM251.116 323.049C251.025 324.038 250.748 325.038 250.377 326.17L254.18 327.411C254.572 326.216 254.967 324.866 255.101 323.412L251.116 323.049ZM250.377 326.169C249.935 327.517 249.522 328.705 248.942 329.793L252.474 331.67C253.234 330.243 253.739 328.756 254.18 327.412L250.377 326.169ZM248.942 329.793C247.968 331.619 246.818 333.338 245.513 334.97L248.639 337.464C250.084 335.657 251.374 333.733 252.474 331.67L248.942 329.793ZM245.513 334.97C243.814 337.095 242.112 339.218 240.406 341.336L243.523 343.841C245.232 341.718 246.937 339.592 248.639 337.464L245.513 334.97ZM240.406 341.336C239.716 342.192 238.828 342.887 237.713 343.745L240.153 346.912C241.205 346.103 242.484 345.13 243.523 343.841L240.406 341.336ZM237.713 343.745L237.636 343.804L240.077 346.971L240.153 346.912L237.713 343.745ZM237.637 343.804C234.441 346.261 230.84 347.815 226.855 348.541L227.57 352.474C232.153 351.64 236.351 349.836 240.076 346.972L237.637 343.804ZM226.855 348.541C224.656 348.941 222.491 348.812 220.339 348.149L219.156 351.969C221.92 352.821 224.736 352.99 227.57 352.474L226.855 348.541ZM220.339 348.149C218.959 347.723 217.642 347.104 216.335 346.344L214.32 349.8C215.818 350.671 217.416 351.433 219.157 351.969L220.339 348.149ZM216.335 346.344C215.438 345.823 214.605 345.333 213.824 344.797L211.557 348.093C212.477 348.725 213.432 349.284 214.32 349.8L216.335 346.344ZM213.825 344.798C212.692 344.019 211.762 343.004 210.579 341.772L207.69 344.54C208.751 345.645 210.005 347.027 211.556 348.093L213.825 344.798ZM210.579 341.772C209.354 340.496 208.455 338.98 207.755 337.252L204.045 338.753C204.888 340.835 206.035 342.816 207.69 344.54L210.579 341.772ZM207.755 337.251C206.885 335.104 206.767 332.932 207.382 330.674L203.521 329.627C202.682 332.709 202.84 335.778 204.045 338.753L207.755 337.251ZM207.382 330.674C207.714 329.454 208.231 328.283 208.888 327.117L205.4 325.158C204.624 326.538 203.959 328.016 203.521 329.627L207.382 330.674ZM208.888 327.117C209.681 325.708 210.662 324.394 211.737 322.98L208.55 320.563C207.487 321.962 206.346 323.479 205.4 325.158L208.888 327.117ZM211.736 322.98C212.715 321.692 213.981 320.14 215.025 318.798L211.866 316.345C210.931 317.547 209.521 319.286 208.55 320.563L211.736 322.98ZM214.928 318.913C214.968 318.869 215.073 318.756 215.138 318.681L212.109 316.07C212.082 316.101 212.089 316.091 211.963 316.23L214.928 318.913ZM215.138 318.68C215.723 318.003 216.746 316.843 217.349 316.162L214.352 313.514C213.75 314.194 212.712 315.371 212.109 316.07L215.138 318.68Z" fill="black" mask="url(#path-11-inside-1_94_115)"/>
<mask id="path-13-inside-2_94_115" fill="white">
<path d="M216.831 320.156C216.916 320.062 216.967 319.982 217.039 319.93C217.31 319.733 217.585 319.538 217.866 319.353C217.938 319.307 218.038 319.283 218.123 319.286C218.179 319.288 218.244 319.351 218.28 319.404C218.292 319.421 218.236 319.503 218.194 319.536C217.837 319.813 217.479 320.09 217.113 320.354C217.061 320.391 216.94 320.393 216.892 320.357C216.843 320.321 216.846 320.216 216.831 320.156Z"/>
</mask>
<path d="M216.831 320.156C216.916 320.062 216.967 319.982 217.039 319.93C217.31 319.733 217.585 319.538 217.866 319.353C217.938 319.307 218.038 319.283 218.123 319.286C218.179 319.288 218.244 319.351 218.28 319.404C218.292 319.421 218.236 319.503 218.194 319.536C217.837 319.813 217.479 320.09 217.113 320.354C217.061 320.391 216.94 320.393 216.892 320.357C216.843 320.321 216.846 320.216 216.831 320.156Z" fill="black"/>
<path d="M216.831 320.156L216.089 319.486L215.725 319.888L215.863 320.412L216.831 320.156ZM217.039 319.93L217.626 320.74L217.628 320.738L217.039 319.93ZM217.866 319.353L217.321 318.516L217.319 318.517L217.866 319.353ZM218.123 319.286L218.167 318.287L218.164 318.287L218.123 319.286ZM218.28 319.404L219.109 318.844L219.107 318.841L218.28 319.404ZM218.194 319.536L218.808 320.325L218.811 320.322L218.194 319.536ZM217.113 320.354L217.696 321.166L217.699 321.164L217.113 320.354ZM217.572 320.826C217.607 320.788 217.636 320.754 217.657 320.728C217.667 320.716 217.679 320.702 217.685 320.695C217.693 320.686 217.697 320.68 217.701 320.675C217.71 320.665 217.706 320.67 217.695 320.681C217.684 320.693 217.66 320.715 217.626 320.74L216.452 319.121C216.316 319.22 216.223 319.328 216.178 319.38C216.158 319.404 216.13 319.438 216.121 319.449C216.106 319.466 216.097 319.477 216.089 319.486L217.572 320.826ZM217.628 320.738C217.893 320.544 218.153 320.361 218.414 320.189L217.319 318.517C217.017 318.715 216.727 318.921 216.449 319.123L217.628 320.738ZM218.412 320.191C218.34 320.238 218.278 320.259 218.238 320.269C218.196 320.28 218.146 320.287 218.083 320.285L218.164 318.287C217.897 318.277 217.586 318.343 217.321 318.516L218.412 320.191ZM218.08 320.285C217.918 320.278 217.796 320.23 217.727 320.197C217.656 320.162 217.606 320.125 217.576 320.101C217.52 320.055 217.482 320.01 217.452 319.966L219.107 318.841C219.042 318.745 218.953 318.642 218.842 318.552C218.758 318.483 218.519 318.303 218.167 318.287L218.08 320.285ZM217.45 319.963C217.256 319.676 217.277 319.392 217.287 319.3C217.3 319.184 217.332 319.099 217.346 319.062C217.377 318.983 217.411 318.931 217.422 318.914C217.44 318.887 217.485 318.822 217.578 318.749L218.811 320.322C218.945 320.217 219.038 320.095 219.092 320.014C219.121 319.971 219.169 319.893 219.208 319.792C219.227 319.745 219.261 319.65 219.275 319.527C219.286 319.426 219.306 319.136 219.109 318.844L217.45 319.963ZM217.581 318.746C217.223 319.024 216.878 319.291 216.527 319.545L217.699 321.164C218.081 320.888 218.452 320.601 218.808 320.325L217.581 318.746ZM216.53 319.542C216.654 319.453 216.767 319.419 216.822 319.405C216.886 319.39 216.942 319.384 216.988 319.384C217.034 319.383 217.093 319.387 217.163 319.403C217.223 319.416 217.353 319.453 217.493 319.558L216.29 321.156C216.58 321.374 216.894 321.384 217.014 321.383C217.146 321.381 217.429 321.357 217.696 321.166L216.53 319.542ZM217.493 319.558C217.669 319.69 217.751 319.847 217.784 319.926C217.818 320.006 217.83 320.068 217.832 320.079C217.834 320.088 217.835 320.101 217.83 320.065C217.828 320.05 217.819 319.979 217.798 319.9L215.863 320.412C215.851 320.364 215.846 320.328 215.85 320.35C215.85 320.352 215.857 320.404 215.866 320.452C215.875 320.501 215.896 320.6 215.944 320.711C215.991 320.822 216.09 321.006 216.29 321.156L217.493 319.558Z" fill="black" mask="url(#path-13-inside-2_94_115)"/>
<path d="M232 339.938C231.934 339.899 231.853 339.87 231.804 339.815C231.764 339.771 231.761 339.693 231.741 339.63C231.8 339.619 231.864 339.588 231.916 339.601C232.06 339.638 232.197 339.708 232.342 339.737C232.551 339.78 232.765 339.8 232.977 339.824C233.085 339.837 233.217 339.845 233.193 339.98C233.182 340.043 233.043 340.133 232.97 340.127C232.643 340.096 232.319 340.034 231.995 339.984L232 339.938V339.938Z" fill="black"/>
<path d="M230.918 329.238C230.851 329.198 230.771 329.17 230.722 329.115C230.682 329.07 230.678 328.993 230.659 328.93C230.718 328.919 230.782 328.888 230.834 328.901C230.978 328.938 231.115 329.008 231.26 329.037C231.469 329.079 231.683 329.1 231.895 329.124C232.002 329.137 232.135 329.145 232.111 329.28C232.1 329.343 231.961 329.433 231.887 329.427C231.561 329.396 231.237 329.334 230.912 329.284L230.918 329.238V329.238Z" fill="black"/>
<path d="M243.627 337.495C243.577 337.541 243.548 337.579 243.51 337.602C243.244 337.765 242.983 337.936 242.707 338.079C242.606 338.132 242.47 338.125 242.35 338.124C242.314 338.123 242.259 338.052 242.25 338.006C242.244 337.973 242.293 337.911 242.332 337.892C242.709 337.706 243.089 337.524 243.471 337.347C243.511 337.329 243.593 337.327 243.609 337.351C243.635 337.389 243.624 337.453 243.627 337.496L243.627 337.495Z" fill="black"/>
<path d="M233.48 309.397C233.41 309.43 233.344 309.489 233.291 309.479C233.228 309.467 233.134 309.405 233.125 309.352C233.077 309.066 233.047 308.777 233.023 308.487C233.02 308.447 233.094 308.361 233.116 308.366C233.19 308.383 233.299 308.417 233.318 308.472C233.383 308.659 233.422 308.857 233.458 309.053C233.479 309.158 233.473 309.269 233.481 309.397L233.48 309.397Z" fill="black"/>
<path d="M209.611 331.667C209.486 332.013 209.367 332.362 209.233 332.705C209.206 332.775 209.127 332.825 209.072 332.884C209.043 332.801 208.972 332.703 208.995 332.639C209.129 332.277 209.28 331.92 209.441 331.568C209.465 331.516 209.571 331.501 209.638 331.47L209.653 331.667L209.612 331.666L209.611 331.667Z" fill="black"/>
<path d="M240.606 331.009C240.315 331.233 240.022 331.463 239.721 331.682C239.688 331.706 239.607 331.664 239.549 331.652C239.564 331.588 239.558 331.5 239.598 331.466C239.865 331.241 240.14 331.026 240.418 330.815C240.453 330.788 240.539 330.78 240.569 330.804C240.599 330.829 240.59 330.903 240.606 331.009L240.606 331.009Z" fill="black"/>
<path d="M231.28 320.449C230.989 320.672 230.696 320.903 230.395 321.122C230.362 321.145 230.282 321.103 230.223 321.091C230.238 321.028 230.232 320.94 230.272 320.905C230.539 320.68 230.814 320.465 231.092 320.254C231.127 320.227 231.213 320.219 231.243 320.243C231.274 320.268 231.264 320.342 231.28 320.448L231.28 320.449Z" fill="black"/>
<path d="M247.871 320.255C247.778 320.29 247.691 320.353 247.642 320.332C247.59 320.309 247.538 320.2 247.546 320.138C247.583 319.87 247.638 319.604 247.699 319.342C247.712 319.288 247.783 319.249 247.827 319.203C247.868 319.253 247.948 319.305 247.946 319.353C247.932 319.647 247.9 319.94 247.872 320.256L247.871 320.255Z" fill="black"/>
<path d="M240.002 314.732C239.984 314.783 239.98 314.86 239.946 314.879C239.688 315.011 239.426 315.135 239.162 315.252C239.127 315.267 239.051 315.244 239.028 315.213C239.005 315.182 239.008 315.111 239.027 315.071C239.1 314.926 239.757 314.66 239.917 314.703C239.93 314.707 239.942 314.712 240.002 314.732L240.002 314.732Z" fill="black"/>
<path d="M224.925 309.143C224.823 309.16 224.713 309.21 224.623 309.186C224.503 309.156 224.462 309.035 224.514 308.917C224.571 308.792 224.691 308.743 224.803 308.815C224.877 308.863 224.91 308.975 224.961 309.058L224.924 309.143L224.925 309.143Z" fill="black"/>
<path d="M218.915 323.018C218.901 322.921 218.854 322.815 218.88 322.731C218.919 322.608 219.053 322.572 219.149 322.65C219.211 322.7 219.261 322.839 219.233 322.904C219.203 322.975 219.079 323.008 218.995 323.057C218.968 323.044 218.941 323.031 218.914 323.017L218.915 323.018Z" fill="black"/>
<path d="M222.955 337.955C222.928 337.806 222.875 337.7 222.907 337.645C222.943 337.585 223.066 337.534 223.137 337.547C223.255 337.569 223.299 337.689 223.233 337.788C223.19 337.852 223.089 337.878 222.955 337.954L222.955 337.955Z" fill="black"/>
<path d="M216.537 331.742C216.394 331.77 216.289 331.823 216.245 331.792C216.185 331.75 216.171 331.642 216.137 331.562C216.218 331.532 216.31 331.461 216.374 331.481C216.434 331.501 216.463 331.616 216.537 331.742V331.742Z" fill="black"/>
<path d="M232.312 345.191C232.175 345.219 232.067 345.274 232.023 345.241C231.965 345.199 231.957 345.088 231.927 345.007C232.005 344.982 232.096 344.92 232.157 344.942C232.215 344.963 232.243 345.071 232.313 345.191L232.312 345.191Z" fill="black"/>
<path d="M239.767 308.216C239.627 308.239 239.535 308.282 239.473 308.256C239.43 308.237 239.388 308.102 239.414 308.06C239.444 308.009 239.556 307.97 239.616 307.987C239.668 308.002 239.696 308.101 239.768 308.216L239.767 308.216Z" fill="black"/>
<path d="M245.739 328.064C245.616 328.075 245.542 328.102 245.495 328.079C245.457 328.059 245.451 327.977 245.431 327.923C245.484 327.904 245.551 327.856 245.59 327.873C245.639 327.892 245.666 327.965 245.739 328.064Z" fill="black"/>
<path d="M239.305 324.084C239.182 324.094 239.108 324.122 239.061 324.098C239.023 324.079 239.017 323.997 238.997 323.943C239.05 323.924 239.117 323.876 239.156 323.893C239.205 323.912 239.232 323.985 239.305 324.084Z" fill="black"/>
</svg>
