<svg width="555" height="127" viewBox="0 0 555 127" fill="none" xmlns="http://www.w3.org/2000/svg">
<path d="M42.2767 23.8932L2 23.8932V125H553.155V23.8932H256.5" stroke="black" stroke-width="3"/>
<g clip-path="url(#clip0_73_46)">
<path fill-rule="evenodd" clip-rule="evenodd" d="M75.4951 5.37158C65.2766 5.37158 57 13.6482 57 23.8667C57 32.0508 62.2942 38.9634 69.6461 41.414C70.5708 41.5758 70.9176 41.021 70.9176 40.5355C70.9176 40.0962 70.8945 38.6397 70.8945 37.0908C66.2476 37.9462 65.0454 35.9579 64.6755 34.9176C64.4674 34.3858 63.5658 32.7444 62.7797 32.3051C62.1324 31.9584 61.2076 31.103 62.7566 31.0798C64.2131 31.0567 65.2535 32.4207 65.6002 32.9756C67.2648 35.773 69.9235 34.9869 70.987 34.5014C71.1488 33.2992 71.6343 32.4901 72.166 32.0277C68.0508 31.5653 63.7507 29.9701 63.7507 22.8957C63.7507 20.8844 64.4674 19.2198 65.6465 17.9252C65.4615 17.4628 64.8142 15.567 65.8314 13.0239C65.8314 13.0239 67.3804 12.5385 70.9176 14.9197C72.3972 14.5036 73.9693 14.2955 75.5414 14.2955C77.1135 14.2955 78.6856 14.5036 80.1652 14.9197C83.7024 12.5153 85.2513 13.0239 85.2513 13.0239C86.2686 15.567 85.6212 17.4628 85.4363 17.9252C86.6154 19.2198 87.332 20.8613 87.332 22.8957C87.332 29.9932 83.0088 31.5653 78.8936 32.0277C79.5641 32.6057 80.1421 33.7154 80.1421 35.4493C80.1421 37.923 80.1189 39.9113 80.1189 40.5355C80.1189 41.021 80.4657 41.5989 81.3905 41.414C85.062 40.1744 88.2524 37.8147 90.5127 34.6669C92.7729 31.5192 93.9892 27.7419 93.9903 23.8667C93.9903 13.6482 85.7137 5.37158 75.4951 5.37158Z" fill="black"/>
</g>
<path d="M113.796 36.3C112.276 36.3 111.056 35.98 110.136 35.34C109.236 34.68 108.576 33.73 108.156 32.49C107.756 31.25 107.556 29.76 107.556 28.02V19.89C107.556 18.11 107.736 16.6 108.096 15.36C108.476 14.1 109.136 13.14 110.076 12.48C111.036 11.82 112.366 11.49 114.066 11.49C115.586 11.49 116.806 11.75 117.726 12.27C118.666 12.77 119.346 13.55 119.766 14.61C120.186 15.65 120.396 16.97 120.396 18.57V19.47H117.216V18.72C117.216 17.66 117.146 16.8 117.006 16.14C116.866 15.46 116.576 14.96 116.136 14.64C115.716 14.3 115.046 14.13 114.126 14.13C113.126 14.13 112.396 14.36 111.936 14.82C111.496 15.28 111.216 15.91 111.096 16.71C110.996 17.49 110.946 18.38 110.946 19.38V28.38C110.946 29.54 111.026 30.51 111.186 31.29C111.366 32.07 111.696 32.65 112.176 33.03C112.656 33.41 113.336 33.6 114.216 33.6C115.096 33.6 115.776 33.39 116.256 32.97C116.736 32.55 117.066 31.93 117.246 31.11C117.426 30.29 117.516 29.27 117.516 28.05V26.37H114.426V23.97H120.576V36H118.446L118.116 33.21C117.796 34.11 117.296 34.85 116.616 35.43C115.936 36.01 114.996 36.3 113.796 36.3ZM124.241 36V11.7H127.571V36H124.241ZM134.173 36V14.22H130.063V11.7H141.553V14.22H137.563V36H134.173ZM143.895 36V11.7H147.285V22.2H153.525V11.7H156.915V36H153.525V24.63H147.285V36H143.895ZM166.982 36.27C165.222 36.27 163.872 35.92 162.932 35.22C161.992 34.52 161.352 33.54 161.012 32.28C160.672 31 160.502 29.51 160.502 27.81V11.7H163.742V27.96C163.742 29 163.812 29.95 163.952 30.81C164.092 31.67 164.392 32.35 164.852 32.85C165.332 33.35 166.042 33.6 166.982 33.6C167.942 33.6 168.652 33.35 169.112 32.85C169.572 32.35 169.872 31.67 170.012 30.81C170.152 29.95 170.222 29 170.222 27.96V11.7H173.432V27.81C173.432 29.51 173.262 31 172.922 32.28C172.582 33.54 171.942 34.52 171.002 35.22C170.082 35.92 168.742 36.27 166.982 36.27ZM177.001 36V11.7H182.581C183.681 11.7 184.631 11.82 185.431 12.06C186.251 12.3 186.931 12.67 187.471 13.17C188.011 13.67 188.411 14.31 188.671 15.09C188.931 15.85 189.061 16.75 189.061 17.79C189.061 18.79 188.931 19.66 188.671 20.4C188.431 21.12 188.051 21.69 187.531 22.11C187.031 22.53 186.381 22.8 185.581 22.92C186.561 23.14 187.351 23.52 187.951 24.06C188.551 24.58 188.991 25.26 189.271 26.1C189.571 26.92 189.721 27.91 189.721 29.07C189.721 30.11 189.601 31.06 189.361 31.92C189.121 32.78 188.741 33.51 188.221 34.11C187.721 34.71 187.071 35.18 186.271 35.52C185.491 35.84 184.561 36 183.481 36H177.001ZM180.391 33.57H182.671C184.191 33.57 185.201 33.22 185.701 32.52C186.221 31.8 186.481 30.65 186.481 29.07C186.481 28.05 186.341 27.2 186.061 26.52C185.801 25.82 185.371 25.3 184.771 24.96C184.191 24.6 183.401 24.42 182.401 24.42H180.391V33.57ZM180.391 21.84H182.401C183.361 21.84 184.111 21.71 184.651 21.45C185.191 21.17 185.571 20.73 185.791 20.13C186.011 19.53 186.121 18.75 186.121 17.79C186.121 16.67 185.951 15.86 185.611 15.36C185.271 14.86 184.741 14.55 184.021 14.43C183.301 14.29 182.361 14.22 181.201 14.22H180.391V21.84ZM199.588 36V11.7H202.978V33.57H209.188V36H199.588ZM211.692 36V11.7H215.022V36H211.692ZM218.954 36V11.7H221.264L228.164 27.84V11.7H230.984V36H228.824L221.834 19.41V36H218.954ZM234.803 36V11.7H238.193V23.16L243.773 11.7H246.923L242.123 22.41L247.703 36H244.403L239.753 24.6L238.193 27.42V36H234.803Z" fill="black"/>
<defs>
<clipPath id="clip0_73_46">
<rect width="36.9903" height="36.9903" fill="white" transform="translate(57 5.37158)"/>
</clipPath>
</defs>
</svg>
