<svg width="313" height="230" viewBox="0 0 313 230" fill="none" xmlns="http://www.w3.org/2000/svg">
<path d="M30.2764 99.9299L8.21338 106.428L43.7903 227.226L310.465 148.686L274.888 27.8877L134.356 69.2766" stroke="black" stroke-width="4" stroke-linecap="square"/>
<path d="M53.2345 112.9L44.6565 81.6505L48.9156 80.3962L61.8271 103.99L59.9279 77.1529L64.1487 75.9098L73.8778 106.82L70.3861 107.849L63.3959 85.3886L64.784 109.499L62.3283 110.222L50.4651 89.1969L56.7646 111.86L53.2345 112.9ZM78.6417 105.417L69.4881 74.3372L76.6251 72.2353C78.032 71.8209 79.2922 71.6165 80.4059 71.6221C81.5451 71.6202 82.5542 71.8373 83.4332 72.2734C84.3122 72.7095 85.0649 73.3774 85.6912 74.2771C86.3101 75.1512 86.8154 76.2533 87.2071 77.5835C87.5838 78.8625 87.7453 80.0242 87.6915 81.0687C87.6557 82.08 87.3844 82.9521 86.8775 83.6852C86.3962 84.4107 85.6666 85.0009 84.6886 85.4558C86.0249 85.368 87.1784 85.5564 88.1493 86.0211C89.1126 86.4602 89.9315 87.1641 90.606 88.133C91.2986 89.0688 91.8634 90.2785 92.3004 91.7622C92.6921 93.0924 92.8965 94.3526 92.9135 95.543C92.9305 96.7334 92.7194 97.8102 92.2804 98.7735C91.8669 99.7292 91.2125 100.575 90.3174 101.311C89.4403 102.015 88.3111 102.57 86.9298 102.976L78.6417 105.417ZM82.0622 101.032L84.9784 100.173C86.9225 99.6009 88.0825 98.7728 88.4583 97.6891C88.8522 96.5723 88.7515 95.0035 88.1563 92.9827C87.7721 91.6781 87.2729 90.6437 86.6586 89.8794C86.0624 89.082 85.3165 88.5789 84.421 88.3701C83.5436 88.1281 82.4654 88.1955 81.1863 88.5722L78.6155 89.3293L82.0622 101.032ZM77.6437 86.0294L80.2145 85.2723C81.4423 84.9107 82.3526 84.4619 82.9454 83.9259C83.5306 83.3644 83.8508 82.6585 83.9062 81.8082C83.9616 80.9579 83.8084 79.9188 83.4468 78.691C83.0249 77.2585 82.5024 76.2865 81.8792 75.7751C81.2559 75.2637 80.4613 75.0668 79.4952 75.1845C78.5216 75.2767 77.2929 75.5413 75.8093 75.9782L74.7733 76.2833L77.6437 86.0294ZM102.179 98.4853L93.9744 70.6283L88.7176 72.1765L87.7684 68.9534L102.464 64.6252L103.414 67.8483L98.3103 69.3513L106.515 97.2083L102.179 98.4853ZM114.844 94.7551L105.691 63.675L109.95 62.4206L119.103 93.5007L114.844 94.7551Z" fill="black"/>
<path d="M105.326 182.022L87.0191 119.862L114.953 111.635L117.71 120.997L103.513 125.178L108.056 140.603L118.877 137.417L121.679 146.932L110.859 150.119L116.328 168.691L130.679 164.464L133.414 173.75L105.326 182.022ZM139.65 171.913L121.343 109.753L131.012 106.905L152.566 133.082L143.751 103.153L155.109 99.8082L173.416 161.968L164.13 164.703L141.899 136.224L151.391 168.455L139.65 171.913ZM182.667 159.244L164.36 97.0837L191.219 89.1731L193.954 98.4588L180.831 102.324L185.442 117.979L196.876 114.611L199.701 124.204L188.267 127.571L196.403 155.198L182.667 159.244ZM212.809 152.118L209.984 142.525C211.365 142.118 212.519 141.695 213.446 141.255C214.373 140.816 215.057 140.308 215.5 139.733C215.927 139.107 216.148 138.347 216.163 137.453C216.162 136.508 215.966 135.37 215.574 134.04L201.471 86.1537L215.208 82.1081L229.492 130.608C230.486 133.985 230.888 136.952 230.696 139.511C230.54 142.003 229.58 144.121 227.813 145.864C226.047 147.607 223.271 149.036 219.485 150.151L212.809 152.118Z" fill="black"/>
</svg>
