<svg width="326" height="142" viewBox="0 0 326 142" fill="none" xmlns="http://www.w3.org/2000/svg">
<path d="M26.3347 72.658L4.01105 77.6414L17.9548 140.104L323.436 71.91L309.492 9.4475L197.5 34.448" stroke="black" stroke-width="3"/>
<g clip-path="url(#clip0_69_22)">
<path fill-rule="evenodd" clip-rule="evenodd" d="M49.4876 54.698C41.9384 56.3832 37.1889 63.8627 38.8741 71.4119C40.2238 77.458 45.2751 81.6917 51.1105 82.2897C51.8204 82.2567 51.9851 81.7896 51.905 81.431C51.8326 81.1065 51.5753 80.0342 51.3199 78.8899C48.0279 80.2882 46.8119 79.0176 46.367 78.3101C46.1256 77.9515 45.1888 76.8876 44.5357 76.6927C44.0003 76.5433 43.176 76.0638 44.3165 75.7913C45.3887 75.534 46.3823 76.3701 46.73 76.7229C48.421 78.515 50.2556 77.4958 50.9611 76.9618C50.8824 76.0469 51.1077 75.3691 51.4242 74.9398C48.3078 75.2769 44.8679 74.8075 43.7012 69.5812C43.3695 68.0953 43.6245 66.7473 44.282 65.5964C44.0691 65.2853 43.2782 63.9916 43.6103 61.945C43.6103 61.945 44.6746 61.3309 47.6805 62.5068C48.705 61.9553 49.8321 61.5423 50.9935 61.2831C52.1549 61.0238 53.3506 60.9182 54.5123 60.9817C56.729 58.622 57.9572 58.7423 57.9572 58.7423C59.1281 60.4533 58.9625 61.9606 58.9022 62.3327C59.9867 63.0947 60.7869 64.1892 61.1224 65.6922C62.2929 70.9356 59.3583 72.81 56.3944 73.8303C56.985 74.1467 57.595 74.8712 57.881 76.1522C58.289 77.9797 58.5998 79.4523 58.7027 79.9135C58.7828 80.2722 59.1343 80.642 59.787 80.3528C62.295 78.8315 64.2628 76.5621 65.4135 73.8638C66.5642 71.1656 66.8398 68.1745 66.2015 65.3114C64.5162 57.7623 57.0368 53.0127 49.4876 54.698Z" fill="black"/>
</g>
<path d="M85.5197 71.0366C84.3329 71.3016 83.3246 71.2643 82.4947 70.925C81.677 70.5665 80.9961 69.9398 80.452 69.0449C79.9236 68.1464 79.5077 67.0179 79.2044 65.6594L77.7874 59.3116C77.4771 57.9218 77.3545 56.7115 77.4194 55.6805C77.4965 54.6305 77.8445 53.7659 78.4634 53.0868C79.0979 52.4041 80.0788 51.9147 81.4062 51.6184C82.593 51.3534 83.5908 51.3438 84.3998 51.5894C85.2209 51.816 85.8878 52.3065 86.4004 53.0609C86.9096 53.7997 87.3037 54.7937 87.5826 56.043L87.7394 56.7457L85.2565 57.3L85.1258 56.7144C84.9411 55.8867 84.7365 55.2275 84.5122 54.7366C84.2843 54.23 83.9708 53.8902 83.5714 53.717C83.1842 53.5248 82.6315 53.5088 81.9132 53.6692C81.1324 53.8435 80.6025 54.1503 80.3235 54.5896C80.0602 55.0255 79.9513 55.5662 79.9971 56.2117C80.055 56.8381 80.171 57.5418 80.3453 58.3225L81.914 65.3496C82.1162 66.2553 82.3477 66.9987 82.6086 67.5798C82.8851 68.1575 83.2439 68.5528 83.6849 68.7658C84.1259 68.9789 84.6899 69.0087 85.377 68.8553C86.0641 68.7019 86.5584 68.4194 86.86 68.0078C87.1616 67.5963 87.3112 67.0547 87.3088 66.383C87.3064 65.7114 87.1989 64.8993 86.9862 63.9468L86.6934 62.6351L84.2808 63.1736L83.8625 61.2998L88.6643 60.2278L90.7611 69.6206L89.098 69.9919L88.3541 67.871C88.2611 68.6295 87.9997 69.2944 87.5699 69.8658C87.14 70.4372 86.4566 70.8275 85.5197 71.0366ZM93.6224 68.9819L89.387 50.0089L91.987 49.4285L96.2224 68.4015L93.6224 68.9819ZM101.377 67.2509L97.5805 50.2455L94.3715 50.9618L93.9322 48.9942L102.903 46.9916L103.343 48.9591L100.227 49.6546L104.024 66.66L101.377 67.2509ZM108.968 65.5563L104.732 46.5833L107.379 45.9924L109.209 54.1906L114.082 53.103L112.251 44.9048L114.898 44.3139L119.134 63.2869L116.487 63.8778L114.505 55.0003L109.633 56.0879L111.615 64.9654L108.968 65.5563ZM127.04 61.7432C125.666 62.0499 124.551 62.012 123.695 61.6293C122.839 61.2466 122.169 60.5929 121.684 59.6684C121.195 58.7283 120.803 57.5945 120.506 56.2672L117.698 43.6888L120.228 43.1241L123.062 55.8196C123.244 56.6316 123.464 57.3612 123.723 58.0082C123.982 58.6553 124.335 59.1339 124.781 59.4442C125.243 59.7509 125.841 59.8223 126.575 59.6585C127.325 59.4912 127.835 59.1722 128.107 58.7016C128.379 58.2311 128.495 57.6479 128.455 56.952C128.414 56.2561 128.303 55.5022 128.122 54.6902L125.288 41.9946L127.794 41.4351L130.602 54.0135C130.898 55.3409 131.025 56.5339 130.983 57.5925C130.937 58.6356 130.608 59.5123 129.996 60.2227C129.4 60.9296 128.415 61.4364 127.04 61.7432ZM134.816 59.7861L130.581 40.8131L134.937 39.8405C135.796 39.6488 136.559 39.5769 137.225 39.6248C137.907 39.6693 138.503 39.8397 139.012 40.1359C139.52 40.4322 139.944 40.8622 140.283 41.4259C140.619 41.9739 140.877 42.654 141.058 43.466C141.233 44.2468 141.283 44.9487 141.209 45.5718C141.147 46.1758 140.949 46.6871 140.617 47.1057C140.3 47.5207 139.839 47.8448 139.235 48.078C140.039 48.0789 140.722 48.2379 141.284 48.555C141.844 48.8564 142.306 49.3106 142.671 49.9177C143.048 50.5057 143.338 51.2525 143.54 52.1582C143.721 52.9702 143.793 53.7329 143.755 54.4462C143.718 55.1595 143.548 55.7957 143.247 56.3548C142.961 56.9104 142.536 57.3907 141.97 57.7956C141.417 58.1814 140.719 58.4684 139.876 58.6566L134.816 59.7861ZM137.039 57.2979L138.82 56.9005C140.006 56.6356 140.734 56.1863 141.002 55.5526C141.283 54.8998 141.285 53.9565 141.01 52.7229C140.832 51.9265 140.575 51.2872 140.238 50.8051C139.913 50.3039 139.486 49.9728 138.958 49.8119C138.443 49.632 137.795 49.6291 137.014 49.8034L135.445 50.1537L137.039 57.2979ZM134.995 48.1393L136.564 47.789C137.314 47.6217 137.877 47.3894 138.253 47.0923C138.626 46.7796 138.846 46.3698 138.913 45.863C138.98 45.3562 138.93 44.728 138.763 43.9784C138.568 43.104 138.294 42.5012 137.941 42.17C137.588 41.8389 137.121 41.6892 136.538 41.721C135.951 41.7372 135.205 41.8464 134.299 42.0486L133.667 42.1898L134.995 48.1393ZM152.452 55.8491L148.217 36.8761L150.864 36.2852L154.676 53.3609L159.524 52.2785L159.948 54.1758L152.452 55.8491ZM161.903 53.7394L157.667 34.7664L160.267 34.186L164.503 53.159L161.903 53.7394ZM167.572 52.4737L163.337 33.5007L165.14 33.0981L173.341 44.4973L170.528 31.8955L172.73 31.4039L176.965 50.3769L175.279 50.7534L166.929 39.0186L169.821 51.9718L167.572 52.4737ZM179.947 49.7112L175.712 30.7382L178.359 30.1473L180.356 39.0951L182.716 29.1748L185.175 28.6257L183.294 37.8245L190.019 47.4628L187.443 48.0379L181.825 39.9475L181.099 42.4212L182.594 49.1203L179.947 49.7112Z" fill="black"/>
<defs>
<clipPath id="clip0_69_22">
<rect width="28" height="28" fill="white" transform="translate(35.8239 57.7482) rotate(-12.5841)"/>
</clipPath>
</defs>
</svg>
