<svg width="142" height="113" viewBox="0 0 142 113" fill="none" xmlns="http://www.w3.org/2000/svg">
<path d="M28.5728 19.0332L18.8232 16.4208L2 79.206L119.843 110.782L136.666 47.9967L84.9407 34.1369" stroke="black" stroke-width="3" stroke-linecap="square"/>
<path d="M35.1768 30.1201L40.1077 12.9927L42.4665 13.6247L41.7643 28.4005L48.5654 15.2589L50.9029 15.8853L46.6095 33.1835L44.6757 32.6653L47.8326 20.1189L41.5732 31.834L40.2131 31.4696L40.6712 18.2L37.1318 30.6439L35.1768 30.1201ZM49.2479 33.8904L53.86 16.6776L57.8126 17.7367C58.5918 17.9455 59.2419 18.2108 59.7631 18.5327C60.2983 18.8583 60.7098 19.2494 60.9974 19.7061C61.285 20.1628 61.4469 20.692 61.483 21.2939C61.5229 21.8816 61.4442 22.5438 61.2468 23.2804C61.057 23.9888 60.7998 24.5804 60.4752 25.0552C60.1685 25.5197 59.7911 25.8513 59.3431 26.0501C58.9092 26.2527 58.3975 26.3206 57.8081 26.2538C58.4605 26.5956 58.948 27.0147 59.2705 27.5111C59.5968 27.9933 59.7794 28.5585 59.8183 29.2067C59.8752 29.8444 59.7935 30.5742 59.5733 31.3959C59.376 32.1325 59.1106 32.7827 58.7774 33.3463C58.4442 33.9099 58.0365 34.3549 57.5542 34.6812C57.0862 35.0113 56.5366 35.2209 55.9053 35.3099C55.2921 35.3885 54.603 35.3253 53.838 35.1203L49.2479 33.8904ZM52.1104 32.8126L53.7254 33.2453C54.8021 33.5338 55.584 33.4776 56.071 33.0767C56.576 32.6653 56.9784 31.9001 57.2783 30.7809C57.4719 30.0584 57.5341 29.4297 57.4648 28.8949C57.4135 28.3497 57.2076 27.8998 56.8471 27.545C56.5046 27.18 55.9792 26.9025 55.2708 26.7127L53.8471 26.3312L52.1104 32.8126ZM54.3367 24.5037L55.7605 24.8852C56.4405 25.0674 56.9965 25.1177 57.4283 25.036C57.864 24.9401 58.2167 24.7006 58.4864 24.3173C58.7561 23.9341 58.982 23.4024 59.1643 22.7224C59.3768 21.9291 59.4102 21.3231 59.2642 20.9044C59.1183 20.4857 58.8017 20.1655 58.3145 19.9438C57.831 19.708 57.1785 19.48 56.3568 19.2598L55.783 19.1061L54.3367 24.5037ZM62.2831 37.3832L66.417 21.9555L63.5057 21.1754L63.984 19.3903L72.1229 21.5711L71.6446 23.3562L68.8183 22.5989L64.6844 38.0266L62.2831 37.3832ZM69.2976 39.2627L73.9098 22.0499L76.2685 22.682L71.6564 39.8948L69.2976 39.2627Z" fill="black"/>
<path d="M35.2734 71.5571L42.8206 43.3907L55.4781 46.7823L54.3414 51.0246L47.9083 49.3009L46.0355 56.2903L50.9385 57.6041L49.7831 61.916L44.8801 60.6022L42.6253 69.0174L49.1279 70.7597L48.0005 74.9673L35.2734 71.5571ZM50.8263 75.7245L58.3735 47.5581L62.755 48.7321L64.8935 63.8404L68.5273 50.2788L73.6738 51.6578L66.1266 79.8242L61.919 78.6968L60.06 62.5453L56.1467 77.1501L50.8263 75.7245ZM70.3184 80.9474L77.8656 52.781L90.0363 56.0421L88.9088 60.2497L82.9626 58.6564L81.0618 65.7502L86.2431 67.1385L85.0784 71.4851L79.8972 70.0968L76.5429 82.6152L70.3184 80.9474ZM83.5659 85.2797L84.7306 80.933C85.3565 81.1008 85.899 81.2089 86.3581 81.2573C86.8172 81.3058 87.1991 81.2715 87.5038 81.1544C87.8147 81.014 88.0778 80.774 88.2931 80.4341C88.5146 80.0711 88.7061 79.5882 88.8676 78.9854L94.6818 57.2869L100.906 58.9547L95.0175 80.9314C94.6076 82.4615 94.0658 83.6953 93.3921 84.6329C92.7479 85.5535 91.8822 86.1415 90.7951 86.3968C89.708 86.6522 88.3067 86.55 86.5912 86.0903L83.5659 85.2797Z" fill="black"/>
</svg>
