<svg width="390" height="185" viewBox="0 0 390 185" fill="none" xmlns="http://www.w3.org/2000/svg">
<mask id="mask0_40_6" style="mask-type:alpha" maskUnits="userSpaceOnUse" x="0" y="0" width="390" height="185">
<rect width="390" height="185" fill="#D9D9D9"/>
</mask>
<g mask="url(#mask0_40_6)">
<g clip-path="url(#clip0_40_6)">
<path d="M135.38 158.381C136.647 152.922 138.032 147.837 138.985 142.671C141.803 127.435 145.126 112.329 149.031 97.3289C153.463 80.2867 160.534 64.5768 170.261 49.9644C176.05 41.266 182.906 33.4877 190.181 26.1121C195.718 20.5 202.408 16.4743 210.035 14.1835C215.077 12.6691 220.057 10.9294 225.133 9.52996C228.627 8.56667 232.203 7.75673 235.793 7.33978C239.859 6.87491 243.982 6.78865 248.086 6.76948C254.4 6.74072 260.713 6.82219 267.026 7.02348C273.701 7.23435 280.219 8.64814 286.771 9.86544C295.345 11.4566 303.792 13.5125 311.814 16.944C321.965 21.286 331.544 26.7015 339.824 34.1347C344.271 38.1269 349.027 41.9753 352.632 46.6815C365.077 62.9234 375.152 80.6126 382.403 99.8353C385.303 107.523 386.726 115.584 387.85 123.707C389.145 133.11 390.311 142.508 389.983 152.045C389.473 166.796 387.507 181.346 384.317 195.738C380.375 213.533 376.409 231.328 372.405 249.108C370.329 258.319 366.149 266.696 362.021 275.088C349.127 301.27 330.745 322.831 307.439 340.108C293.746 350.259 278.434 356.676 261.541 359.331C250.819 361.018 240.097 361.142 229.337 360.352C222.49 359.848 215.62 359.317 208.835 358.301C198.128 356.69 188.101 352.684 177.983 348.941C165.004 344.139 153.782 336.619 143.608 327.413C129.929 315.038 121.449 299.669 117.988 281.457C116.155 271.805 115.812 262.096 116.374 252.328C117.055 240.481 119.254 228.84 121.53 217.233C123.606 206.651 125.987 196.127 128.182 185.564C128.277 185.099 128.063 184.323 127.72 184.049C117.402 175.921 109.318 165.823 102.281 154.815C99.4337 150.358 96.8389 145.733 94.0965 141.204C93.9155 140.907 93.4632 140.615 93.13 140.605C89.3734 140.495 87.5166 138.928 86.6738 135.056C86.5358 134.428 86.431 133.79 86.3263 133.239C76.9706 133.992 68.7957 131.025 61.1779 126.06C59.0354 124.665 56.8738 123.304 54.698 121.962C54.3552 121.752 53.9124 121.656 53.5029 121.613C48.9084 121.119 44.2711 120.865 39.7194 120.103C34.2726 119.192 29.302 116.964 25.0122 113.355C22.4412 111.194 20.4129 108.634 19.2845 105.428C18.218 102.399 19.1274 100.286 22.0079 98.8912C24.4694 97.7027 27.1071 97.65 29.7495 97.6452C30.0781 97.6452 30.4066 97.6452 30.8446 97.3672C30.4685 97.1276 30.0971 96.8831 29.7162 96.6531C22.3507 92.2344 17.3706 85.8843 14.5853 77.7466C12.4809 71.5978 16.1565 66.8149 22.6412 67.366C25.3502 67.5961 27.8689 68.5067 30.1876 69.9444C30.5399 70.1601 30.8875 70.3757 31.3921 70.6825C29.9209 68.013 28.3831 65.5976 27.2261 63.0096C26.0977 60.4888 25.2836 57.8146 24.5028 55.1547C24.2076 54.1483 24.2933 52.9933 24.3837 51.9198C24.5218 50.2807 25.4121 49.1257 26.9071 48.3877C31.2826 46.231 35.1677 46.7966 39.11 50.2232C39.4528 50.5203 39.7956 50.8127 40.3621 50.9277C39.9527 50.1369 39.4861 49.3701 39.1528 48.5506C38.4529 46.8205 37.7388 45.0904 37.196 43.3124C36.6104 41.3762 37.0055 39.4401 38.0673 37.801C38.5291 37.0917 39.648 36.4447 40.4859 36.416C42.9379 36.3393 45.4042 36.5262 47.8562 36.7419C48.537 36.8042 49.2655 37.2211 49.8178 37.6668C51.4937 39.0327 53.1839 40.4033 54.7075 41.9322C59.6067 46.8397 64.4345 51.8239 69.3766 56.8656C69.4909 56.2618 69.5861 55.6531 69.7146 55.0493C70.5478 51.2296 72.319 48.1385 76.1898 46.7151C76.7135 46.5234 77.2706 46.418 77.8181 46.2838C79.4274 45.9004 80.551 46.4419 81.6032 47.7934C84.7075 51.8 87.8308 55.8065 91.2017 59.583C92.8157 61.3898 94.8916 62.8611 96.9627 64.1503C100.315 66.2302 103.157 68.7127 104.257 72.6138C104.923 74.9766 105.361 77.4639 105.471 79.9129C105.599 82.7261 105.271 85.5632 105.099 88.386C104.666 95.4885 105.771 102.442 107.004 109.392C107.271 110.892 107.566 112.387 107.918 113.868C108.013 114.266 108.299 114.75 108.642 114.941C111.365 116.475 113.055 118.914 114.508 121.569C115.26 122.945 115.06 124.282 114.108 125.471C113.379 126.381 112.603 127.282 111.741 128.058C110.989 128.734 110.894 129.271 111.427 130.153C115.507 136.901 120.078 143.284 125.52 148.987C128.062 151.652 130.743 154.192 133.381 156.766C133.895 157.269 134.504 157.676 135.38 158.376V158.381ZM239.507 358.195C246.401 358.411 253.233 357.879 260.065 356.892C277.81 354.323 293.655 347.297 307.905 336.485C319.956 327.341 330.607 316.721 340.062 304.912C350.532 291.838 358.493 277.23 365.072 261.865C366.877 257.648 368.439 253.249 369.467 248.782C373.771 230.129 377.851 211.429 381.97 192.738C385.217 177.992 387.002 163.068 387.188 147.952C387.283 139.997 386.069 132.17 385.093 124.311C383.57 112.075 380.599 100.243 375.019 89.2439C370.557 80.4496 365.801 71.7943 360.83 63.2828C355.15 53.554 348.48 44.568 339.586 37.4799C339.215 37.1828 338.867 36.8521 338.515 36.531C330.383 29.2464 321.051 23.8692 311.133 19.5415C303.292 16.1245 295.017 14.0781 286.614 12.5109C280.238 11.3224 273.901 9.8271 267.397 9.66415C260.094 9.47725 252.786 9.47725 245.477 9.46287C242.497 9.46287 239.473 9.35264 236.541 9.78876C228.556 10.9821 220.672 12.5972 213.011 15.3337C205.022 18.1852 197.613 21.9905 191.695 28.101C184.696 35.3281 178.002 42.8475 172.441 51.3303C164.585 63.3164 157.763 75.8105 153.958 89.7135C150.664 101.748 147.493 113.834 144.884 126.031C142.175 138.698 139.946 151.465 136.475 163.964C134.347 171.632 132.386 179.348 130.51 187.078C126.329 204.288 122.987 221.671 120.326 239.187C118.393 251.916 117.921 264.66 119.878 277.422C122.116 291.996 127.339 305.31 136.894 316.644C146.921 328.534 158.953 337.865 173.203 344.067C183.763 348.663 194.514 352.775 205.841 355.123C216.948 357.423 228.232 357.735 239.502 358.195H239.507ZM106.037 114.668C105.899 114.079 105.804 113.705 105.728 113.326C104.928 109.502 103.99 105.697 103.376 101.843C102.514 96.4231 102.086 90.9644 102.795 85.4578C103.071 83.3107 103.109 81.1062 102.995 78.94C102.705 73.419 100.519 68.9859 95.5391 66.1631C94.0489 65.3196 92.5205 64.342 91.3874 63.0815C87.5023 58.7731 83.7219 54.3592 80.0368 49.8686C79.1036 48.7279 78.2561 48.5554 77.042 48.9772C74.5281 49.8542 73.2045 51.7856 72.3666 54.201C71.3953 56.9902 72.3523 59.5782 72.9427 62.2572C73.7759 66.0193 75.8089 68.914 78.7084 71.2959C79.2464 71.7368 79.8273 72.1202 80.351 72.5707C81.289 73.3711 81.2128 74.0804 80.1987 74.7226C79.9511 74.8807 79.6988 75.1587 79.6178 75.4318C79.0227 77.5166 78.4656 79.6157 77.899 81.71C76.4755 86.9674 76.1755 92.2009 78.5513 97.2761C79.6749 99.6724 80.9938 101.978 82.2507 104.307C82.9316 105.567 83.7219 106.77 84.3694 108.045C84.5361 108.376 84.3504 108.884 84.3314 109.31C83.8886 109.272 83.3791 109.358 83.022 109.162C82.5888 108.922 82.2174 108.491 81.946 108.059C80.432 105.682 78.8465 103.343 77.4801 100.88C73.5426 93.8064 73.4997 86.5361 76.6326 79.1556C77.1563 77.9144 77.5562 76.6204 78.1038 75.3935C78.4799 74.5452 78.2276 74.1091 77.5324 73.5628C74.0854 70.8742 71.6191 67.5194 70.605 63.1486C70.3907 62.2285 69.8241 61.2843 69.1671 60.5942C63.0966 54.2154 56.9786 47.8845 50.8462 41.5679C50.0987 40.7963 49.1941 40.1637 48.3133 39.5407C47.9467 39.2771 47.461 39.0902 47.0135 39.0471C45.4232 38.8937 43.8235 38.7979 42.2285 38.7116C39.9051 38.587 39.2433 39.2436 39.3052 41.6254C39.3195 42.1382 39.3766 42.7038 39.6004 43.1495C41.1001 46.1256 42.4047 49.2407 44.2377 51.9964C47.9609 57.5845 51.6604 63.2109 56.0454 68.3245C56.4405 68.7846 56.731 69.331 57.0976 69.8102C59.5781 73.0452 62.0635 76.2801 64.5488 79.5103C64.7583 79.7834 65.1344 80.0231 65.1773 80.3202C65.263 80.9049 65.3915 81.7388 65.082 82.0503C64.7868 82.3474 63.9251 82.2276 63.3823 82.0599C62.9776 81.9353 62.6491 81.4656 62.3587 81.0918C60.2019 78.3217 58.0451 75.5469 55.9168 72.748C53.6077 69.7096 51.3271 66.6472 49.0322 63.5991C48.4609 62.8371 47.8514 62.0943 47.3134 61.3083C44.6757 57.4455 41.6286 53.923 37.9244 51.1098C35.2487 49.0778 32.192 48.0474 28.8545 49.9117C26.9595 50.9708 26.3548 51.6418 26.8405 53.7553C27.4166 56.281 28.0641 58.8785 29.2353 61.1549C34.0393 70.5435 40.2955 78.892 47.6705 86.4067C48.7275 87.485 49.6178 88.7311 50.5367 89.9388C51.089 90.6625 51.5032 91.5347 50.5796 92.2344C49.6702 92.9197 48.9703 92.2967 48.3704 91.597C47.3848 90.442 46.4279 89.2678 45.4137 88.1368C43.5902 86.1048 41.5667 84.2261 39.9336 82.0503C37.2864 78.5134 34.325 75.3504 30.8684 72.6138C28.1593 70.4716 25.0884 69.2495 21.7461 69.5227C17.5943 69.8629 15.1709 72.3119 16.7659 76.7067C16.823 76.8696 16.8754 77.0373 16.9325 77.2003C19.6035 84.5951 24.2266 90.3797 31.0065 94.3479C35.0439 96.7106 39.1242 98.9966 43.1807 101.321C43.9616 101.767 44.8043 102.332 44.252 103.353C43.714 104.35 42.738 104.163 41.8571 103.732C40.5764 103.104 39.3099 102.438 38.0244 101.815C33.7394 99.7443 29.2782 99.1308 24.6551 100.343C21.1176 101.268 20.3844 103.104 22.1317 106.334C24.4599 110.633 28.2403 113.274 32.4729 115.291C37.8006 117.831 43.514 118.665 49.3655 118.838C51.4651 118.9 53.5172 118.857 55.4978 120.247C57.9213 121.943 60.8256 122.921 63.3918 124.435C68.8052 127.622 74.5234 129.841 80.7986 130.412C82.2841 130.546 83.8124 130.469 85.2931 130.292C85.8597 130.225 86.3834 129.63 86.8929 129.233C87.6927 128.605 88.3879 127.814 89.2591 127.32C90.6446 126.53 92.192 126.026 93.5727 125.231C97.0293 123.228 100.453 121.138 102.524 117.51C103.333 116.092 104.009 114.591 106.047 114.673L106.037 114.668ZM128.981 182.247C129.21 181.452 129.353 181.001 129.472 180.546C131.01 174.656 132.505 168.757 134.114 162.89C134.481 161.549 134.314 160.705 133.086 159.996C132.348 159.569 131.738 158.913 131.1 158.328C122.644 150.593 115.669 141.679 110.161 131.6C109.942 131.202 109.699 130.819 109.461 130.416C105.104 133.992 101.343 138.118 95.8343 140.025C104.504 156.037 114.836 170.458 128.981 182.252V182.247ZM88.4069 132.568L88.0403 132.693C88.6307 134.059 89.1401 135.468 89.8352 136.781C90.4447 137.931 91.5159 138.42 92.811 138.036C94.2536 137.61 95.8438 137.351 97.0674 136.551C99.8479 134.73 102.533 132.741 105.08 130.603C107.366 128.686 109.451 126.525 111.541 124.383C111.941 123.975 112.289 122.95 112.065 122.595C110.941 120.817 109.761 119.034 108.328 117.51C107.266 116.379 105.609 116.94 104.738 118.215C103.743 119.676 102.728 121.176 101.467 122.398C98.2577 125.504 94.4536 127.761 90.4018 129.568C89.0401 130.177 88.3021 131.039 88.4069 132.568V132.568Z" fill="black"/>
<path d="M239.502 358.195C228.233 357.73 216.949 357.423 205.841 355.123C194.514 352.775 183.759 348.668 173.203 344.067C158.953 337.86 146.926 328.534 136.895 316.644C127.334 305.31 122.111 291.996 119.878 277.422C117.922 264.66 118.393 251.916 120.326 239.187C122.987 221.671 126.33 204.288 130.51 187.078C132.391 179.348 134.352 171.632 136.476 163.964C139.942 151.46 142.175 138.698 144.884 126.031C147.493 113.834 150.664 101.748 153.959 89.7136C157.763 75.8105 164.59 63.3164 172.441 51.3303C178.002 42.8476 184.697 35.3233 191.696 28.101C197.614 21.9953 205.022 18.1901 213.011 15.3337C220.677 12.5972 228.556 10.9773 236.541 9.78878C239.474 9.35266 242.497 9.4581 245.477 9.46289C252.786 9.47248 260.094 9.47727 267.398 9.66418C273.906 9.83191 280.239 11.3272 286.614 12.5109C295.017 14.0733 303.292 16.1197 311.134 19.5415C321.051 23.8692 330.383 29.2416 338.515 36.531C338.872 36.8473 339.215 37.1828 339.586 37.4799C348.48 44.5681 355.151 53.5588 360.831 63.2828C365.801 71.7943 370.558 80.4496 375.019 89.2439C380.599 100.243 383.57 112.075 385.093 124.311C386.074 132.17 387.288 139.997 387.188 147.952C387.003 163.068 385.217 177.992 381.97 192.738C377.852 211.434 373.771 230.134 369.467 248.782C368.439 253.249 366.877 257.648 365.073 261.866C358.493 277.235 350.527 291.838 340.062 304.912C330.607 316.721 319.956 327.341 307.906 336.485C293.651 347.297 277.81 354.323 260.066 356.892C253.238 357.879 246.406 358.411 239.507 358.195H239.502ZM241.378 125.26C241.345 114.261 239.75 107.11 236.588 101.168C234.255 96.7825 231.194 93.0252 226.723 90.7296C221.51 88.0553 216.292 87.8732 211.002 90.8494C205.47 93.9645 201.223 98.2826 198.214 103.837C192.257 114.831 190.5 126.549 192.638 138.842C193.757 145.283 196.085 151.24 200.47 156.214C207.165 163.801 216.634 165.009 224.981 159.344C228.742 156.794 231.68 153.449 234.032 149.586C239.117 141.233 241.278 132.065 241.369 125.26H241.378ZM320.018 130.771C319.98 119.772 318.404 112.675 315.276 106.751C312.957 102.361 309.915 98.5893 305.454 96.2697C300.207 93.5428 294.951 93.3415 289.618 96.3512C284.09 99.4711 279.843 103.794 276.839 109.348C270.888 120.347 269.14 132.065 271.288 144.358C272.421 150.842 274.768 156.838 279.22 161.822C285.876 169.279 295.27 170.458 303.54 164.889C307.349 162.325 310.32 158.956 312.691 155.05C317.771 146.692 319.928 137.528 320.018 130.771V130.771ZM250.939 169.284C251.281 169.284 251.719 169.418 251.953 169.255C252.467 168.905 253.229 168.416 253.238 167.961C253.252 167.506 252.519 166.983 252.034 166.586C251.848 166.432 251.448 166.499 251.153 166.514C247.568 166.72 244.192 164.41 244.525 160.025C244.54 159.852 244.578 159.641 244.501 159.512C244.197 158.999 243.854 158.515 243.525 158.021C243.059 158.443 242.326 158.783 242.173 159.301C241.564 161.395 241.84 163.437 243.092 165.268C244.978 168.028 247.677 169.236 250.939 169.284ZM156.12 187.874C156.392 188.195 156.677 188.832 157.072 188.904C157.468 188.981 158.187 188.612 158.387 188.238C159.801 185.569 161.129 182.851 162.453 180.134C162.605 179.822 162.7 179.161 162.576 179.089C162.21 178.878 161.638 178.687 161.3 178.84C160.781 179.07 160.253 179.506 159.962 180C158.82 181.936 157.749 183.91 156.706 185.904C156.43 186.431 156.354 187.059 156.12 187.874ZM304.525 262.417L304.625 262.709C306.711 262.062 308.825 261.482 310.867 260.706C311.324 260.533 311.891 259.575 311.772 259.163C311.515 258.281 310.705 258.621 310.029 258.861C308.691 259.34 307.353 259.843 305.982 260.203C305.03 260.452 304.006 260.428 303.04 260.634C302.687 260.706 302.397 261.084 302.078 261.324C302.378 261.645 302.621 262.096 302.992 262.249C303.449 262.436 304.011 262.369 304.525 262.417V262.417ZM366.825 213.557C366.682 213.313 366.563 212.886 366.296 212.737C366.13 212.646 365.639 212.896 365.458 213.121C363.697 215.311 361.959 217.516 360.25 219.744C360.074 219.974 359.959 220.492 360.093 220.669C360.278 220.923 360.816 221.187 361.035 221.086C361.754 220.746 362.587 220.381 363.035 219.773C364.263 218.1 365.325 216.303 366.434 214.539C366.592 214.29 366.658 213.979 366.825 213.547V213.557ZM224.143 74.2002C223.719 73.443 223.429 72.7672 223 72.1921C222.205 71.1186 221.396 70.0451 220.458 69.1057C220.186 68.8326 219.434 68.9476 218.944 69.0626C218.796 69.0962 218.606 69.8342 218.744 70.0642C219.734 71.7368 220.758 73.3903 221.881 74.9718C222.091 75.2641 222.833 75.3648 223.248 75.2497C223.59 75.1539 223.809 74.6076 224.138 74.2002H224.143ZM146.646 278.371L146.893 278.256L146.231 277.11C145.917 277.503 145.327 277.901 145.336 278.28C145.403 280.873 145.546 283.465 145.803 286.044C145.85 286.494 146.569 286.878 146.979 287.29C147.136 286.772 147.46 286.24 147.422 285.737C147.217 283.278 146.917 280.829 146.646 278.376V278.371ZM329.85 183.388C329.445 182.803 329.283 182.324 329.026 182.267C328.779 182.209 328.288 182.506 328.155 182.775C327.112 184.859 326.098 186.963 325.16 189.101C325.017 189.422 325.312 189.939 325.408 190.366C325.793 190.265 326.403 190.284 326.526 190.045C327.688 187.84 328.769 185.593 329.85 183.393V183.388ZM341.819 97.3049C341.062 95.3208 340.4 93.4613 339.62 91.6497C339.491 91.3526 338.867 91.2759 338.467 91.0938C338.339 91.5012 338.029 91.9517 338.11 92.3063C338.51 94.07 338.967 95.8288 339.524 97.5493C339.658 97.9519 340.286 98.4503 340.667 98.4359C341.024 98.4216 341.357 97.7842 341.81 97.3001L341.819 97.3049ZM278.686 87.1591C278.267 87.2167 278.182 87.2215 278.101 87.2358C277.015 87.4419 273.863 90.9692 273.854 92.0667C273.854 92.359 274.04 92.7951 274.273 92.915C274.501 93.0348 275.025 92.9533 275.187 92.7616C276.425 91.2759 277.63 89.7615 278.782 88.2087C278.939 87.9978 278.729 87.5186 278.691 87.1591H278.686ZM172.299 97.7937L172.27 97.1707C171.718 96.8209 171.194 96.2458 170.613 96.1739C169.732 96.0684 169.156 96.7154 169.19 97.6356C169.218 98.4982 169.813 99.1021 170.623 98.9392C171.237 98.8145 171.746 98.1915 172.303 97.7937H172.299ZM176.945 198.978C177.145 198.978 177.345 198.978 177.545 198.978C177.898 198.437 178.55 197.876 178.521 197.358C178.493 196.889 177.788 196.194 177.274 196.074C176.474 195.887 175.769 196.5 175.903 197.353C175.993 197.938 176.584 198.441 176.95 198.978H176.945ZM244.716 277.043C245.297 276.186 245.825 275.735 245.892 275.227C245.996 274.431 245.377 273.842 244.616 274.053C244.149 274.182 243.563 274.848 243.525 275.318C243.492 275.745 244.116 276.229 244.72 277.048L244.716 277.043ZM188.239 258.487C187.425 257.945 186.915 257.337 186.496 257.394C186.058 257.456 185.706 258.156 185.32 258.578C185.754 258.956 186.154 259.565 186.634 259.642C186.996 259.699 187.463 259.076 188.239 258.487V258.487ZM321.751 293.132C320.98 292.614 320.504 292.044 320.094 292.092C319.666 292.14 319.304 292.777 318.909 293.156C319.323 293.558 319.694 294.201 320.166 294.287C320.523 294.349 321.008 293.707 321.751 293.137V293.132ZM258.237 48.6225C257.471 48.1385 257.014 47.6257 256.657 47.688C256.252 47.7599 255.7 48.3302 255.662 48.7232C255.633 49.0539 256.276 49.744 256.59 49.7296C257.038 49.7056 257.461 49.1785 258.233 48.6225H258.237ZM351.894 150.583C351.17 150.2 350.794 149.84 350.447 149.869C350.161 149.888 349.904 150.368 349.637 150.641C349.918 150.909 350.194 151.384 350.48 151.388C350.832 151.398 351.189 151.01 351.894 150.583Z" fill="#DDC094"/>
<path d="M106.038 114.668C104 114.587 103.324 116.087 102.515 117.505C100.448 121.133 97.0202 123.218 93.5636 125.226C92.1829 126.026 90.6355 126.53 89.25 127.316C88.3835 127.809 87.6836 128.6 86.8837 129.228C86.3743 129.626 85.8505 130.22 85.284 130.287C83.7985 130.464 82.2749 130.541 80.7894 130.407C74.5142 129.837 68.7961 127.618 63.3827 124.431C60.8164 122.921 57.9121 121.938 55.4887 120.242C53.5033 118.852 51.456 118.895 49.3563 118.833C43.5049 118.66 37.7915 117.826 32.4638 115.286C28.2311 113.269 24.446 110.628 22.1226 106.329C20.3752 103.099 21.1084 101.268 24.646 100.339C29.2738 99.1261 33.735 99.7395 38.0153 101.81C39.3008 102.433 40.5673 103.099 41.848 103.727C42.7288 104.158 43.7049 104.35 44.2429 103.348C44.7952 102.327 43.9524 101.767 43.1716 101.316C39.1151 98.9871 35.0348 96.7059 30.9974 94.3431C24.2175 90.3749 19.5944 84.5952 16.9234 77.1955C16.8663 77.0326 16.8187 76.8648 16.7568 76.7019C15.1618 72.3071 17.5852 69.8582 21.7369 69.5179C25.0792 69.2399 28.1502 70.4668 30.8593 72.6091C34.3206 75.3456 37.2773 78.5087 39.9245 82.0455C41.5528 84.2213 43.5811 86.1 45.4046 88.132C46.414 89.2631 47.3757 90.4372 48.3613 91.5922C48.9612 92.2967 49.6611 92.9198 50.5704 92.2296C51.4989 91.5299 51.0799 90.6577 50.5276 89.934C49.6087 88.7263 48.7183 87.4803 47.6614 86.4019C40.2911 78.8873 34.035 70.5339 29.2262 61.1502C28.0597 58.8689 27.4122 56.2714 26.8313 53.7505C26.3457 51.637 26.9456 50.9613 28.8453 49.9069C32.1876 48.0426 35.2395 49.0778 37.9153 51.1051C41.6242 53.9183 44.6666 57.4408 47.3043 61.3035C47.8423 62.0895 48.447 62.8323 49.0231 63.5944C51.3179 66.6472 53.5985 69.7048 55.9077 72.7433C58.0359 75.5373 60.188 78.3122 62.3495 81.087C62.6399 81.4609 62.9685 81.9257 63.3732 82.0551C63.9159 82.2277 64.7777 82.3427 65.0729 82.0455C65.3824 81.7388 65.2538 80.9001 65.1681 80.3154C65.1253 80.0231 64.7491 79.7835 64.5396 79.5055C62.0543 76.2754 59.569 73.0404 57.0884 69.8055C56.7171 69.3214 56.4266 68.7751 56.0362 68.3198C51.6512 63.2062 47.9518 57.5798 44.2286 51.9917C42.3955 49.236 41.091 46.1208 39.5912 43.1447C39.3675 42.699 39.3103 42.1335 39.296 41.6207C39.2341 39.2388 39.9007 38.5822 42.2194 38.7068C43.8144 38.7931 45.4141 38.8889 47.0043 39.0423C47.4519 39.0854 47.9375 39.2723 48.3041 39.5359C49.1849 40.1637 50.0896 40.7916 50.8371 41.5632C56.9694 47.8797 63.0875 54.2154 69.158 60.5894C69.815 61.2796 70.3816 62.2237 70.5958 63.1439C71.61 67.5146 74.081 70.8694 77.5233 73.558C78.2184 74.0996 78.4708 74.5405 78.0946 75.3887C77.5471 76.6156 77.1472 77.9144 76.6234 79.1509C73.4906 86.5313 73.5335 93.8016 77.4709 100.875C78.8421 103.334 80.4228 105.677 81.9369 108.055C82.213 108.486 82.5844 108.917 83.0129 109.157C83.37 109.353 83.8794 109.267 84.3222 109.305C84.346 108.879 84.5317 108.366 84.3603 108.04C83.7128 106.765 82.9224 105.562 82.2416 104.302C80.9799 101.973 79.6611 99.6676 78.5422 97.2714C76.1664 92.1961 76.4663 86.9675 77.8899 81.7053C78.4565 79.6109 79.0135 77.5118 79.6087 75.4271C79.6849 75.1539 79.942 74.8759 80.1895 74.7178C81.2037 74.0804 81.2798 73.3663 80.3419 72.566C79.8134 72.1155 79.2325 71.7321 78.6993 71.2911C75.7998 68.9141 73.7668 66.0194 72.9336 62.2525C72.3432 59.5734 71.3862 56.9855 72.3575 54.1962C73.2002 51.7808 74.5238 49.8494 77.0329 48.9724C78.247 48.5507 79.0945 48.7232 80.0277 49.8638C83.708 54.3544 87.4884 58.7635 91.3782 63.0768C92.5114 64.3372 94.0397 65.3149 95.53 66.1584C100.505 68.9764 102.695 73.4142 102.986 78.9352C103.1 81.1014 103.062 83.306 102.786 85.453C102.077 90.9596 102.505 96.4183 103.367 101.839C103.981 105.692 104.924 109.497 105.719 113.321C105.8 113.7 105.89 114.074 106.028 114.663L106.038 114.668Z" fill="white"/>
<path d="M128.982 182.247C114.836 170.458 104.505 156.032 95.8346 140.021C101.343 138.113 105.1 133.987 109.461 130.412C109.699 130.814 109.947 131.198 110.161 131.595C115.67 141.674 122.64 150.588 131.1 158.323C131.738 158.908 132.348 159.569 133.086 159.991C134.314 160.7 134.481 161.544 134.114 162.886C132.505 168.752 131.01 174.656 129.472 180.541C129.353 180.997 129.21 181.447 128.982 182.243V182.247Z" fill="#DDC094"/>
<path d="M88.412 132.568C88.3073 131.035 89.0405 130.172 90.4069 129.568C94.4587 127.761 98.2628 125.504 101.472 122.399C102.734 121.181 103.743 119.676 104.743 118.215C105.614 116.94 107.271 116.384 108.333 117.51C109.766 119.034 110.951 120.817 112.07 122.595C112.294 122.954 111.946 123.975 111.546 124.383C109.456 126.52 107.371 128.686 105.086 130.603C102.538 132.736 99.8531 134.73 97.0725 136.551C95.8489 137.351 94.2635 137.605 92.8161 138.037C91.5258 138.42 90.4498 137.931 89.8404 136.781C89.1452 135.468 88.6358 134.059 88.0454 132.693L88.412 132.568V132.568Z" fill="white"/>
<path d="M241.383 125.26C241.288 132.065 239.131 141.233 234.046 149.586C231.694 153.449 228.752 156.794 224.995 159.344C216.649 165.009 207.179 163.801 200.485 156.215C196.095 151.24 193.771 145.283 192.653 138.842C190.515 126.549 192.267 114.831 198.228 103.837C201.237 98.2874 205.489 93.9693 211.016 90.8494C216.301 87.8732 221.519 88.0554 226.738 90.7296C231.208 93.0252 234.27 96.7825 236.603 101.168C239.764 107.11 241.359 114.261 241.392 125.26H241.383ZM217.725 91.76C217.458 91.7312 217.306 91.6929 217.158 91.7073C216.815 91.736 216.463 91.7552 216.13 91.8414C212.092 92.8766 208.279 94.3767 205.531 97.7171C203.884 99.7203 202.175 101.743 200.908 103.995C194.509 115.392 192.843 127.565 195.581 140.332C196.785 145.954 199.08 151.096 203.189 155.227C206.641 158.692 210.75 160.533 215.735 159.876C218.691 159.488 221.339 158.362 223.852 156.445C223.533 156.354 223.419 156.282 223.314 156.291C219.153 156.617 215.844 154.858 212.992 152.007C210.24 149.256 208.379 145.93 207.017 142.316C203.651 133.383 202.98 124.148 204.546 114.807C206.089 105.61 208.988 97.0413 217.72 91.7696L217.725 91.76Z" fill="black"/>
<path d="M320.023 130.766C319.932 137.524 317.776 146.692 312.695 155.045C310.324 158.951 307.349 162.32 303.545 164.884C295.274 170.453 285.885 169.274 279.225 161.817C274.773 156.833 272.426 150.842 271.293 144.353C269.145 132.06 270.897 120.343 276.844 109.344C279.848 103.789 284.095 99.4663 289.623 96.3464C294.955 93.3367 300.212 93.538 305.458 96.2649C309.915 98.5797 312.962 102.351 315.281 106.746C318.409 112.67 319.985 119.767 320.023 130.766V130.766ZM296.498 97.1372C295.731 97.2187 295.227 97.2139 294.751 97.3337C290.713 98.3641 286.904 99.8689 284.157 103.214C282.534 105.189 280.886 107.182 279.601 109.377C274.406 118.234 272.521 127.92 273.073 138.094C273.397 144.056 274.754 149.802 277.668 155.083C279.415 158.247 281.619 160.997 284.643 163.029C290.489 166.964 297.174 165.771 302.126 162.205C302.211 162.143 302.245 162.009 302.326 161.86C302.159 161.817 302.04 161.755 301.93 161.764C297.926 162.081 294.694 160.442 291.889 157.743C289.347 155.294 287.561 152.333 286.181 149.102C284.195 144.458 283.091 139.594 282.676 134.572C281.953 125.902 282.848 117.438 286.214 109.353C287.752 105.663 289.818 102.299 292.899 99.6868C293.937 98.805 295.122 98.1005 296.493 97.1324L296.498 97.1372Z" fill="black"/>
<path d="M250.948 169.284C247.687 169.241 244.987 168.028 243.102 165.268C241.854 163.442 241.573 161.395 242.183 159.301C242.335 158.788 243.068 158.443 243.535 158.021C243.863 158.515 244.211 159.004 244.511 159.512C244.587 159.641 244.549 159.852 244.535 160.025C244.202 164.405 247.577 166.72 251.162 166.514C251.462 166.494 251.857 166.427 252.043 166.586C252.524 166.983 253.262 167.506 253.248 167.961C253.233 168.411 252.476 168.905 251.962 169.255C251.724 169.418 251.291 169.284 250.948 169.284Z" fill="black"/>
<path d="M156.13 187.869C156.363 187.054 156.439 186.422 156.715 185.899C157.758 183.91 158.829 181.931 159.972 179.995C160.262 179.506 160.791 179.065 161.31 178.835C161.648 178.687 162.219 178.874 162.586 179.084C162.71 179.156 162.614 179.813 162.462 180.129C161.138 182.847 159.81 185.564 158.396 188.233C158.196 188.607 157.477 188.976 157.082 188.899C156.687 188.823 156.401 188.185 156.13 187.869Z" fill="black"/>
<path d="M224.143 74.2002C223.819 74.6076 223.595 75.1539 223.253 75.2498C222.838 75.3648 222.091 75.2641 221.886 74.9718C220.762 73.3903 219.739 71.7368 218.748 70.0643C218.61 69.8342 218.801 69.0962 218.948 69.0626C219.439 68.9476 220.191 68.8326 220.462 69.1058C221.4 70.0451 222.21 71.1186 223.005 72.1921C223.433 72.7672 223.724 73.4478 224.148 74.2002H224.143Z" fill="black"/>
<path d="M329.845 183.388C328.76 185.588 327.684 187.836 326.522 190.04C326.393 190.28 325.789 190.261 325.403 190.361C325.308 189.935 325.017 189.422 325.155 189.096C326.093 186.959 327.107 184.855 328.15 182.77C328.283 182.501 328.774 182.204 329.021 182.262C329.279 182.319 329.44 182.794 329.845 183.383V183.388Z" fill="black"/>
<path d="M341.815 97.3049C341.357 97.789 341.024 98.4264 340.672 98.4407C340.291 98.4551 339.662 97.9567 339.529 97.5541C338.967 95.8336 338.515 94.0748 338.115 92.3111C338.034 91.9517 338.344 91.506 338.472 91.0986C338.867 91.2807 339.496 91.3574 339.624 91.6545C340.4 93.4661 341.067 95.3256 341.824 97.3097L341.815 97.3049Z" fill="black"/>
<path d="M278.682 87.1639C278.72 87.5234 278.925 88.0026 278.772 88.2135C277.62 89.7663 276.415 91.2807 275.178 92.7664C275.016 92.9581 274.492 93.0396 274.263 92.9198C274.035 92.7999 273.844 92.3638 273.844 92.0715C273.854 90.9788 277.006 87.4515 278.091 87.2406C278.177 87.2262 278.263 87.2167 278.677 87.1639H278.682Z" fill="black"/>
<path d="M172.299 97.7985C171.742 98.1963 171.227 98.8193 170.618 98.9439C169.813 99.1117 169.213 98.503 169.185 97.6404C169.156 96.7202 169.732 96.0732 170.608 96.1787C171.194 96.2506 171.718 96.8257 172.265 97.1755L172.294 97.7985H172.299Z" fill="black"/>
<path d="M258.237 48.6225C257.466 49.1785 257.042 49.7056 256.595 49.7296C256.281 49.744 255.638 49.0539 255.666 48.7232C255.7 48.3302 256.257 47.7599 256.661 47.688C257.019 47.6257 257.476 48.1385 258.242 48.6225H258.237Z" fill="black"/>
<path d="M351.894 150.579C351.189 151.005 350.827 151.388 350.48 151.384C350.194 151.379 349.918 150.904 349.637 150.636C349.904 150.363 350.161 149.884 350.447 149.864C350.794 149.84 351.17 150.2 351.894 150.579Z" fill="black"/>
<path d="M217.725 91.7552C208.993 97.0269 206.093 105.596 204.551 114.793C202.984 124.133 203.656 133.369 207.022 142.302C208.383 145.92 210.245 149.241 212.997 151.992C215.849 154.844 219.158 156.603 223.319 156.277C223.429 156.267 223.538 156.334 223.857 156.43C221.339 158.347 218.696 159.473 215.739 159.862C210.755 160.518 206.646 158.678 203.194 155.213C199.08 151.087 196.79 145.939 195.585 140.318C192.848 127.555 194.514 115.382 200.913 103.981C202.175 101.728 203.884 99.7107 205.536 97.7027C208.283 94.3623 212.097 92.8622 216.135 91.8271C216.468 91.7408 216.815 91.7216 217.163 91.6929C217.311 91.6785 217.463 91.7216 217.73 91.7456L217.725 91.7552Z" fill="white"/>
<path d="M296.503 97.1372C295.132 98.1005 293.946 98.8098 292.908 99.6916C289.828 102.304 287.761 105.668 286.223 109.358C282.853 117.448 281.962 125.907 282.686 134.576C283.105 139.594 284.209 144.463 286.19 149.107C287.571 152.337 289.356 155.299 291.899 157.748C294.703 160.446 297.936 162.085 301.94 161.769C302.049 161.759 302.164 161.822 302.335 161.865C302.249 162.013 302.221 162.148 302.135 162.21C297.184 165.78 290.499 166.969 284.652 163.034C281.629 161.002 279.425 158.247 277.677 155.088C274.759 149.807 273.406 144.061 273.083 138.099C272.526 127.92 274.416 118.234 279.61 109.382C280.896 107.187 282.548 105.189 284.167 103.219C286.914 99.8785 290.723 98.3689 294.76 97.3385C295.236 97.2186 295.741 97.2234 296.507 97.142L296.503 97.1372Z" fill="white"/>
</g>
</g>
<defs>
<clipPath id="clip0_40_6">
<rect width="376.035" height="354.052" fill="white" transform="translate(14 6.76471)"/>
</clipPath>
</defs>
</svg>
