<svg width="557" height="250" viewBox="0 0 557 250" fill="none" xmlns="http://www.w3.org/2000/svg">
<mask id="mask0_435_107" style="mask-type:alpha" maskUnits="userSpaceOnUse" x="0" y="0" width="557" height="250">
<mask id="path-1-inside-1_435_107" fill="white">
<path d="M0 0H557V250H0V0Z"/>
</mask>
<path d="M0 0H557V250H0V0Z" fill="white"/>
<path d="M557 247H0V253H557V247Z" fill="black" mask="url(#path-1-inside-1_435_107)"/>
</mask>
<g mask="url(#mask0_435_107)">
<g clip-path="url(#clip0_435_107)">
<path d="M179.138 223.537C181.017 215.489 183.073 207.992 184.486 200.375C188.669 177.912 193.601 155.641 199.396 133.524C205.974 108.398 216.467 85.2361 230.902 63.6922C239.494 50.8676 249.669 39.3996 260.466 28.5252C268.684 20.2511 278.611 14.3157 289.931 10.9382C297.414 8.7054 304.805 6.14048 312.337 4.07724C317.523 2.657 322.83 1.46286 328.157 0.848129C334.192 0.162737 340.311 0.0355507 346.401 0.00728709C355.771 -0.0351083 365.14 0.0850119 374.51 0.381779C384.416 0.692679 394.089 2.77712 403.812 4.57185C416.538 6.91773 429.072 9.949 440.978 15.0082C456.043 21.4099 470.26 29.3943 482.547 40.3535C489.147 46.2394 496.205 51.9133 501.554 58.8521C520.025 82.7984 534.976 108.879 545.737 137.22C550.041 148.554 552.153 160.438 553.821 172.415C555.743 186.278 557.474 200.135 556.986 214.196C556.23 235.945 553.312 257.397 548.578 278.615C542.727 304.851 536.841 331.087 530.899 357.301C527.818 370.882 521.614 383.233 515.488 395.606C496.354 434.206 469.072 465.996 434.485 491.468C414.163 506.434 391.439 515.895 366.37 519.81C350.457 522.297 334.545 522.481 318.576 521.315C308.415 520.573 298.219 519.789 288.15 518.291C272.259 515.916 257.378 510.009 242.363 504.491C223.102 497.411 206.447 486.325 191.347 472.751C171.047 454.507 158.463 431.846 153.326 404.996C150.606 390.765 150.097 376.45 150.931 362.05C151.941 344.583 155.205 327.42 158.583 310.306C161.664 294.705 165.197 279.188 168.454 263.615C168.595 262.929 168.277 261.785 167.769 261.382C152.457 249.398 140.459 234.51 130.015 218.28C125.79 211.709 121.939 204.89 117.869 198.213C117.601 197.775 116.929 197.344 116.435 197.329C110.86 197.167 108.104 194.856 106.853 189.147C106.649 188.222 106.493 187.282 106.338 186.469C92.4532 187.579 80.3211 183.205 69.0156 175.884C65.836 173.828 62.6281 171.822 59.3989 169.843C58.8902 169.532 58.2331 169.391 57.6254 169.327C50.8068 168.6 43.9246 168.225 37.1696 167.102C29.0863 165.759 21.7095 162.473 15.3431 157.153C11.5275 153.966 8.51744 150.193 6.84282 145.466C5.26006 141 6.60964 137.884 10.8845 135.828C14.5376 134.076 18.4521 133.998 22.3737 133.991C22.8612 133.991 23.3488 133.991 23.9988 133.581C23.4406 133.228 22.8895 132.867 22.3242 132.528C11.3933 126.013 4.00233 116.651 -0.131219 104.653C-3.25434 95.5876 2.20053 88.5359 11.8243 89.3484C15.8448 89.6876 19.5826 91.0301 23.0237 93.1499C23.5466 93.4679 24.0624 93.7858 24.8114 94.238C22.628 90.3023 20.3457 86.7411 18.6287 82.9256C16.9541 79.2089 15.7458 75.2661 14.587 71.3446C14.149 69.8607 14.2761 68.1578 14.4104 66.5751C14.6153 64.1585 15.9366 62.4557 18.1553 61.3675C24.6489 58.1879 30.4146 59.0216 36.2652 64.0737C36.774 64.5118 37.2827 64.9429 38.1235 65.1124C37.5159 63.9466 36.8234 62.816 36.3288 61.6078C35.2901 59.057 34.2302 56.5062 33.4247 53.8847C32.5556 51.0301 33.1421 48.1755 34.7178 45.759C35.4032 44.7132 37.0637 43.7593 38.3072 43.7169C41.9462 43.6039 45.6063 43.8794 49.2453 44.1974C50.2557 44.2892 51.3368 44.904 52.1564 45.5611C54.6436 47.5749 57.152 49.5957 59.4131 51.8497C66.6839 59.0852 73.8487 66.4338 81.1831 73.8671C81.3527 72.9768 81.494 72.0794 81.6848 71.1891C82.9213 65.5576 85.5498 61.0001 91.2944 58.9015C92.0716 58.6189 92.8983 58.4634 93.7109 58.2656C96.0992 57.7003 97.7667 58.4988 99.3283 60.4913C103.935 66.3984 108.57 72.3055 113.573 77.8734C115.968 80.5373 119.049 82.7065 122.123 84.6072C127.097 87.6738 131.316 91.334 132.948 97.0856C133.937 100.569 134.587 104.236 134.75 107.847C134.94 111.995 134.453 116.178 134.198 120.339C133.555 130.811 135.195 141.064 137.025 151.309C137.421 153.521 137.859 155.725 138.382 157.909C138.523 158.495 138.947 159.209 139.456 159.492C143.497 161.753 146.006 165.349 148.161 169.264C149.277 171.292 148.98 173.263 147.567 175.015C146.486 176.358 145.334 177.686 144.055 178.831C142.939 179.827 142.798 180.619 143.589 181.919C149.645 191.868 156.428 201.279 164.504 209.688C168.277 213.616 172.255 217.361 176.17 221.156C176.933 221.898 177.837 222.498 179.138 223.53V223.537ZM333.669 518.135C343.9 518.453 354.04 517.669 364.179 516.213C390.514 512.426 414.029 502.067 435.177 486.127C453.061 472.645 468.868 456.987 482.9 439.577C498.438 420.301 510.252 398.764 520.018 376.111C522.696 369.893 525.013 363.406 526.539 356.821C532.927 329.32 538.982 301.749 545.094 274.192C549.913 252.45 552.563 230.447 552.839 208.161C552.98 196.432 551.178 184.893 549.73 173.305C547.469 155.266 543.059 137.82 534.778 121.604C528.157 108.638 521.099 95.8773 513.722 83.3283C505.292 68.9845 495.393 55.736 482.194 45.2855C481.643 44.8474 481.127 44.3599 480.604 43.8865C468.535 33.1463 454.686 25.2184 439.968 18.8379C428.331 13.7999 416.05 10.7828 403.579 8.47223C394.117 6.71989 384.713 4.51533 375.061 4.27509C364.222 3.99952 353.375 3.99952 342.529 3.97832C338.106 3.97832 333.619 3.8158 329.267 4.4588C317.417 6.21821 305.716 8.59941 294.347 12.634C282.49 16.8382 271.496 22.4486 262.713 31.4576C252.326 42.1129 242.391 53.1993 234.139 65.706C222.48 83.3778 212.354 101.799 206.709 122.297C201.819 140.039 197.113 157.859 193.241 175.842C189.221 194.517 185.914 213.341 180.763 231.769C177.604 243.074 174.693 254.45 171.909 265.847C165.705 291.221 160.745 316.849 156.795 342.675C153.926 361.442 153.227 380.23 156.131 399.047C159.452 420.534 167.203 440.163 181.385 456.874C196.265 474.404 214.121 488.162 235.269 497.305C250.941 504.081 266.896 510.144 283.706 513.606C300.191 516.998 316.937 517.457 333.662 518.135H333.669ZM135.59 159.089C135.386 158.22 135.244 157.669 135.131 157.11C133.944 151.472 132.552 145.861 131.641 140.18C130.362 132.189 129.726 124.141 130.779 116.022C131.188 112.857 131.245 109.606 131.075 106.413C130.644 98.2727 127.401 91.7367 120.01 87.5749C117.799 86.3313 115.53 84.8899 113.849 83.0315C108.083 76.6793 102.473 70.1716 97.0036 63.5509C95.6187 61.8692 94.361 61.6148 92.5592 62.2366C88.8284 63.5297 86.8641 66.3772 85.6205 69.9384C84.179 74.0508 85.5993 77.8664 86.4755 81.8162C87.712 87.3629 90.7291 91.6307 95.0322 95.1425C95.8307 95.7925 96.6927 96.3578 97.47 97.022C98.862 98.202 98.7489 99.2478 97.2439 100.195C96.8764 100.428 96.502 100.838 96.3818 101.24C95.4986 104.314 94.6719 107.409 93.831 110.497C91.7183 118.248 91.2732 125.964 94.7991 133.447C96.4666 136.98 98.4239 140.378 100.289 143.812C101.3 145.671 102.473 147.444 103.434 149.324C103.681 149.811 103.405 150.56 103.377 151.189C102.72 151.133 101.964 151.26 101.434 150.97C100.791 150.617 100.24 149.981 99.8371 149.345C97.5901 145.84 95.2372 142.392 93.2092 138.76C87.3658 128.331 87.3022 117.612 91.9515 106.731C92.7288 104.9 93.3223 102.993 94.1349 101.184C94.6931 99.9332 94.3186 99.2902 93.287 98.4847C88.1713 94.5207 84.5111 89.5746 83.0061 83.1305C82.6881 81.7738 81.8473 80.3818 80.8722 79.3643C71.8632 69.9596 62.7835 60.6256 53.6826 51.3127C52.5733 50.1751 51.2308 49.2424 49.9236 48.3239C49.3795 47.9352 48.6588 47.6597 47.9946 47.5961C45.6346 47.37 43.2604 47.2287 40.8934 47.1015C37.4452 46.9178 36.4631 47.8858 36.5549 51.3975C36.5761 52.1536 36.6609 52.9874 36.993 53.6445C39.2187 58.0324 41.1548 62.6252 43.8752 66.6881C49.4007 74.927 54.8909 83.2223 61.3986 90.7616C61.9851 91.44 62.4161 92.2455 62.9602 92.9521C66.6415 97.7215 70.3299 102.491 74.0183 107.253C74.3292 107.656 74.8874 108.009 74.951 108.448C75.0782 109.31 75.2689 110.539 74.8097 110.998C74.3716 111.436 73.0926 111.26 72.2871 111.012C71.6865 110.829 71.199 110.136 70.768 109.585C67.5671 105.501 64.3663 101.41 61.2078 97.2834C57.7809 92.8037 54.3963 88.2886 50.9905 83.7947C50.1426 82.6712 49.2382 81.576 48.4397 80.4172C44.5252 74.722 40.0031 69.5286 34.5058 65.3809C30.5348 62.385 25.9985 60.8658 21.0453 63.6145C18.233 65.176 17.3357 66.1653 18.0564 69.2813C18.9114 73.005 19.8723 76.8348 21.6105 80.191C28.74 94.0331 38.0246 106.342 48.9697 117.421C50.5383 119.011 51.8596 120.848 53.2234 122.629C54.043 123.696 54.6577 124.982 53.2869 126.013C51.9374 127.024 50.8987 126.105 50.0084 125.074C48.5457 123.371 47.1255 121.64 45.6205 119.972C42.9142 116.976 39.9112 114.206 37.4876 110.998C33.559 105.784 29.164 101.12 24.0341 97.0856C20.0136 93.9271 15.4561 92.1253 10.4959 92.5281C4.33443 93.0298 0.737886 96.6405 3.10496 103.12C3.18975 103.36 3.26748 103.607 3.35227 103.848C7.31623 114.75 14.1772 123.279 24.2391 129.129C30.2309 132.613 36.2864 135.983 42.3065 139.41C43.4654 140.067 44.716 140.901 43.8964 142.406C43.0979 143.876 41.6494 143.6 40.3422 142.964C38.4415 142.039 36.562 141.057 34.6542 140.138C28.2949 137.086 21.6741 136.181 14.8131 137.969C9.56319 139.333 8.47504 142.039 11.0682 146.801C14.5234 153.139 20.1338 157.033 26.4153 160.007C34.3221 163.752 42.8012 164.982 51.4851 165.236C54.6012 165.328 57.6466 165.264 60.586 167.314C64.1826 169.815 68.4927 171.256 72.3013 173.489C80.3352 178.188 88.8213 181.459 98.1342 182.3C100.339 182.498 102.607 182.385 104.804 182.124C105.645 182.025 106.422 181.149 107.179 180.562C108.366 179.636 109.397 178.471 110.69 177.743C112.746 176.577 115.043 175.835 117.092 174.662C122.222 171.709 127.302 168.628 130.376 163.279C131.577 161.187 132.58 158.976 135.605 159.096L135.59 159.089ZM169.641 258.725C169.98 257.552 170.192 256.888 170.369 256.217C172.651 247.533 174.87 238.835 177.258 230.186C177.802 228.207 177.555 226.964 175.732 225.918C174.637 225.289 173.732 224.321 172.785 223.459C160.236 212.055 149.885 198.912 141.71 184.053C141.385 183.466 141.024 182.901 140.671 182.307C134.206 187.579 128.624 193.662 120.448 196.474C133.315 220.082 148.648 241.343 169.641 258.732V258.725ZM109.425 185.48L108.881 185.664C109.758 187.677 110.514 189.755 111.545 191.691C112.45 193.387 114.04 194.107 115.961 193.542C118.102 192.913 120.462 192.532 122.278 191.352C126.405 188.667 130.39 185.734 134.17 182.583C137.562 179.757 140.657 176.57 143.759 173.411C144.352 172.811 144.868 171.299 144.536 170.776C142.868 168.154 141.116 165.526 138.989 163.279C137.413 161.611 134.955 162.438 133.661 164.318C132.185 166.473 130.68 168.684 128.807 170.486C124.045 175.065 118.399 178.393 112.386 181.057C110.365 181.954 109.27 183.226 109.425 185.48V185.48Z" fill="black"/>
<path d="M333.662 518.135C316.937 517.45 300.191 516.998 283.706 513.606C266.896 510.144 250.935 504.088 235.269 497.305C214.121 488.155 196.273 474.405 181.385 456.874C167.197 440.163 159.445 420.534 156.131 399.047C153.227 380.23 153.927 361.442 156.796 342.675C160.745 316.849 165.706 291.221 171.91 265.848C174.701 254.45 177.612 243.074 180.763 231.769C185.907 213.334 189.221 194.517 193.241 175.842C197.114 157.86 201.819 140.039 206.709 122.297C212.355 101.799 222.487 83.3779 234.139 65.7061C242.392 53.1995 252.327 42.1061 262.713 31.4578C271.496 22.4558 282.491 16.8455 294.347 12.6342C305.723 8.59959 317.418 6.21132 329.267 4.45897C333.62 3.81598 338.106 3.97143 342.53 3.97849C353.376 3.99263 364.222 3.99969 375.061 4.27526C384.72 4.52257 394.118 6.72713 403.579 8.4724C416.05 10.7759 428.331 13.793 439.968 18.8381C454.687 25.2186 468.536 33.1394 480.604 43.8867C481.134 44.353 481.643 44.8476 482.194 45.2857C495.393 55.7362 505.293 68.9918 513.722 83.3285C521.099 95.8775 528.158 108.639 534.779 121.604C543.06 137.821 547.469 155.266 549.73 173.306C551.186 184.894 552.987 196.432 552.839 208.162C552.563 230.447 549.914 252.451 545.095 274.192C538.983 301.756 532.927 329.328 526.54 356.821C525.014 363.406 522.696 369.893 520.018 376.111C510.253 398.771 498.432 420.301 482.901 439.577C468.868 456.987 453.062 472.645 435.178 486.127C414.022 502.067 390.514 512.426 364.18 516.213C354.047 517.669 343.908 518.453 333.669 518.135H333.662ZM336.446 174.705C336.397 158.488 334.029 147.946 329.338 139.184C325.875 132.719 321.332 127.179 314.697 123.795C306.96 119.852 299.216 119.584 291.366 123.972C283.155 128.564 276.852 134.931 272.387 143.12C263.547 159.329 260.94 176.605 264.112 194.729C265.773 204.226 269.228 213.009 275.736 220.343C285.67 231.529 299.725 233.309 312.111 224.957C317.693 221.198 322.053 216.266 325.543 210.571C333.09 198.255 336.298 184.738 336.432 174.705H336.446ZM453.153 182.83C453.097 166.614 450.758 156.15 446.116 147.416C442.675 140.944 438.16 135.383 431.539 131.963C423.752 127.943 415.951 127.646 408.038 132.083C399.834 136.683 393.531 143.056 389.073 151.246C380.24 167.462 377.647 184.738 380.834 202.862C382.516 212.422 385.999 221.262 392.606 228.61C402.484 239.605 416.425 241.343 428.698 233.132C434.351 229.352 438.76 224.385 442.279 218.626C449.818 206.303 453.019 192.793 453.153 182.83V182.83ZM350.634 239.612C351.143 239.612 351.793 239.81 352.139 239.57C352.902 239.054 354.033 238.333 354.047 237.662C354.068 236.99 352.98 236.22 352.259 235.634C351.984 235.408 351.39 235.507 350.952 235.528C345.632 235.832 340.622 232.426 341.117 225.961C341.138 225.706 341.194 225.395 341.081 225.205C340.629 224.449 340.12 223.735 339.633 223.007C338.94 223.629 337.852 224.131 337.626 224.894C336.722 227.981 337.131 230.992 338.99 233.691C341.788 237.761 345.794 239.541 350.634 239.612ZM209.917 267.021C210.32 267.494 210.744 268.434 211.33 268.54C211.917 268.653 212.984 268.109 213.28 267.558C215.379 263.622 217.35 259.615 219.315 255.609C219.541 255.15 219.682 254.175 219.498 254.069C218.954 253.758 218.106 253.475 217.605 253.701C216.835 254.04 216.05 254.683 215.619 255.411C213.923 258.266 212.334 261.177 210.786 264.116C210.376 264.894 210.263 265.819 209.917 267.021ZM430.161 376.923L430.309 377.354C433.404 376.401 436.541 375.546 439.573 374.401C440.251 374.147 441.092 372.733 440.915 372.126C440.534 370.826 439.332 371.327 438.329 371.681C436.344 372.387 434.358 373.129 432.323 373.659C430.91 374.026 429.391 373.991 427.956 374.295C427.434 374.401 427.002 374.959 426.529 375.312C426.974 375.786 427.335 376.45 427.886 376.676C428.564 376.952 429.398 376.853 430.161 376.923V376.923ZM522.618 304.887C522.406 304.526 522.23 303.897 521.834 303.678C521.587 303.544 520.859 303.912 520.59 304.244C517.976 307.473 515.397 310.723 512.86 314.009C512.599 314.348 512.429 315.111 512.627 315.372C512.903 315.747 513.701 316.136 514.026 315.987C515.093 315.485 516.33 314.948 516.994 314.051C518.817 311.585 520.392 308.935 522.039 306.335C522.272 305.968 522.371 305.508 522.618 304.873V304.887ZM310.867 99.4246C310.239 98.3082 309.808 97.3119 309.172 96.464C307.992 94.8812 306.79 93.2985 305.398 91.9135C304.996 91.5108 303.879 91.6804 303.151 91.85C302.932 91.8994 302.65 92.9876 302.855 93.3267C304.324 95.7927 305.844 98.2305 307.511 100.562C307.822 100.993 308.924 101.142 309.539 100.972C310.048 100.831 310.373 100.025 310.86 99.4246H310.867ZM195.856 400.446L196.223 400.276L195.241 398.587C194.775 399.167 193.899 399.753 193.913 400.312C194.012 404.134 194.224 407.957 194.605 411.758C194.676 412.423 195.743 412.988 196.35 413.595C196.584 412.832 197.064 412.048 197.008 411.306C196.704 407.681 196.259 404.071 195.856 400.453V400.446ZM467.744 260.407C467.144 259.545 466.904 258.838 466.522 258.753C466.155 258.669 465.427 259.107 465.229 259.502C463.682 262.576 462.176 265.678 460.785 268.829C460.573 269.303 461.011 270.066 461.152 270.695C461.724 270.546 462.629 270.575 462.812 270.221C464.537 266.971 466.14 263.657 467.744 260.414V260.407ZM485.508 133.489C484.385 130.564 483.402 127.822 482.244 125.152C482.053 124.713 481.127 124.6 480.534 124.332C480.343 124.932 479.884 125.597 480.004 126.12C480.597 128.72 481.276 131.313 482.102 133.85C482.3 134.443 483.233 135.178 483.798 135.157C484.328 135.136 484.823 134.196 485.494 133.482L485.508 133.489ZM391.814 118.531C391.193 118.616 391.065 118.623 390.945 118.644C389.334 118.948 384.657 124.148 384.642 125.766C384.642 126.197 384.918 126.84 385.264 127.017C385.603 127.194 386.381 127.073 386.621 126.791C388.458 124.6 390.246 122.368 391.956 120.078C392.189 119.767 391.878 119.061 391.821 118.531H391.814ZM233.927 134.21L233.885 133.291C233.065 132.776 232.288 131.928 231.426 131.822C230.118 131.666 229.263 132.62 229.313 133.977C229.355 135.249 230.239 136.139 231.44 135.899C232.351 135.715 233.107 134.796 233.934 134.21H233.927ZM240.823 283.392C241.12 283.392 241.417 283.392 241.714 283.392C242.236 282.594 243.204 281.767 243.162 281.004C243.12 280.311 242.074 279.287 241.311 279.11C240.124 278.835 239.078 279.739 239.276 280.997C239.41 281.859 240.286 282.601 240.83 283.392H240.823ZM341.399 398.489C342.261 397.224 343.046 396.56 343.144 395.811C343.3 394.638 342.381 393.769 341.251 394.079C340.558 394.27 339.689 395.252 339.633 395.945C339.583 396.574 340.509 397.287 341.406 398.496L341.399 398.489ZM257.584 371.129C256.375 370.331 255.619 369.434 254.997 369.518C254.347 369.61 253.824 370.642 253.252 371.264C253.895 371.822 254.489 372.719 255.202 372.832C255.739 372.917 256.432 371.999 257.584 371.129V371.129ZM455.725 422.209C454.581 421.446 453.874 420.605 453.266 420.675C452.631 420.746 452.093 421.686 451.507 422.244C452.122 422.838 452.673 423.784 453.372 423.912C453.902 424.004 454.623 423.057 455.725 422.216V422.209ZM361.466 61.7139C360.329 61.0003 359.65 60.2442 359.12 60.3361C358.52 60.4421 357.7 61.2829 357.644 61.8623C357.601 62.3498 358.555 63.3673 359.022 63.3461C359.686 63.3108 360.315 62.5336 361.459 61.7139H361.466ZM500.46 212.041C499.386 211.476 498.827 210.946 498.312 210.988C497.888 211.016 497.506 211.723 497.11 212.126C497.527 212.521 497.937 213.221 498.361 213.228C498.884 213.242 499.414 212.67 500.46 212.041Z" fill="#DDC094"/>
<path d="M135.591 159.089C132.567 158.969 131.563 161.18 130.362 163.272C127.295 168.621 122.208 171.695 117.078 174.655C115.029 175.835 112.733 176.577 110.676 177.736C109.391 178.464 108.352 179.63 107.165 180.555C106.409 181.142 105.631 182.018 104.791 182.117C102.586 182.378 100.325 182.491 98.1204 182.293C88.8076 181.453 80.3214 178.181 72.2875 173.482C68.479 171.256 64.1688 169.808 60.5722 167.307C57.6258 165.258 54.5874 165.321 51.4714 165.229C42.7874 164.975 34.3083 163.745 26.4016 160C20.12 157.026 14.5026 153.132 11.0545 146.794C8.46127 142.032 9.54942 139.333 14.7994 137.962C21.6674 136.174 28.2882 137.079 34.6404 140.131C36.5482 141.05 38.4277 142.032 40.3285 142.958C41.6356 143.593 43.0842 143.876 43.8826 142.399C44.7022 140.894 43.4516 140.068 42.2928 139.403C36.2726 135.969 30.2172 132.606 24.2253 129.123C14.1634 123.272 7.30246 114.751 3.3385 103.841C3.2537 103.601 3.18305 103.353 3.09119 103.113C0.724115 96.6335 4.32065 93.0229 10.4821 92.5212C15.4424 92.1114 19.9999 93.9202 24.0204 97.0787C29.1573 101.113 33.5452 105.777 37.4738 110.991C39.8904 114.199 42.9004 116.969 45.6067 119.965C47.1046 121.633 48.532 123.364 49.9946 125.067C50.8849 126.105 51.9236 127.024 53.2732 126.006C54.651 124.975 54.0292 123.689 53.2096 122.622C51.8459 120.841 50.5245 119.004 48.9559 117.414C38.0179 106.335 28.7333 94.0192 21.5968 80.1841C19.8656 76.8208 18.9047 72.9911 18.0426 69.2744C17.3219 66.1583 18.2122 65.162 21.0315 63.6076C25.9918 60.8589 30.521 62.3852 34.492 65.374C39.9964 69.5217 44.5115 74.7151 48.426 80.4103C49.2244 81.5691 50.1218 82.6643 50.9768 83.7877C54.3825 88.2887 57.7671 92.7968 61.194 97.2765C64.3525 101.396 67.5463 105.487 70.7542 109.578C71.1852 110.129 71.6728 110.815 72.2734 111.006C73.0789 111.26 74.3578 111.43 74.7959 110.991C75.2552 110.539 75.0644 109.303 74.9372 108.441C74.8736 108.01 74.3154 107.656 74.0045 107.247C70.3161 102.484 66.6277 97.7146 62.9464 92.9451C62.3952 92.2315 61.9642 91.426 61.3848 90.7547C54.8771 83.2154 49.3869 74.9201 43.8614 66.6812C41.141 62.6183 39.205 58.0255 36.9792 53.6376C36.6471 52.9805 36.5623 52.1467 36.5411 51.3906C36.4493 47.8789 37.4385 46.9108 40.8796 47.0946C43.2467 47.2217 45.6208 47.3631 47.9808 47.5892C48.645 47.6528 49.3657 47.9283 49.9098 48.317C51.217 49.2426 52.5595 50.1682 53.6689 51.3058C62.7697 60.6187 71.8494 69.9598 80.8584 79.3574C81.8335 80.3749 82.6744 81.7669 82.9923 83.1236C84.4974 89.5676 88.1646 94.5138 93.2732 98.4777C94.3048 99.2762 94.6793 99.9263 94.1211 101.177C93.3085 102.986 92.715 104.901 91.9377 106.724C87.2884 117.605 87.352 128.324 93.1955 138.753C95.2304 142.378 97.5763 145.833 99.8233 149.338C100.233 149.974 100.784 150.61 101.42 150.963C101.95 151.253 102.706 151.126 103.363 151.182C103.399 150.553 103.674 149.797 103.42 149.317C102.459 147.437 101.286 145.664 100.276 143.805C98.403 140.371 96.4458 136.973 94.7853 133.44C91.2594 125.957 91.7046 118.248 93.8173 110.49C94.6581 107.402 95.4848 104.307 96.3681 101.233C96.4811 100.831 96.8627 100.421 97.2301 100.188C98.7351 99.2479 98.8482 98.1951 97.4562 97.0151C96.6719 96.3509 95.8099 95.7856 95.0185 95.1356C90.7153 91.6309 87.6982 87.3631 86.4617 81.8093C85.5855 77.8595 84.1653 74.0439 85.6067 69.9315C86.8574 66.3703 88.8217 63.5228 92.5454 62.2297C94.3472 61.6079 95.6049 61.8623 96.9899 63.544C102.452 70.1647 108.062 76.6653 113.835 83.0246C115.517 84.883 117.785 86.3244 119.996 87.568C127.38 91.7227 130.631 98.2658 131.062 106.406C131.231 109.599 131.175 112.85 130.765 116.015C129.712 124.134 130.348 132.182 131.627 140.174C132.538 145.855 133.937 151.465 135.117 157.103C135.238 157.662 135.372 158.213 135.577 159.082L135.591 159.089Z" fill="white"/>
<path d="M169.641 258.725C148.648 241.342 133.315 220.074 120.448 196.467C128.624 193.655 134.199 187.571 140.671 182.3C141.024 182.893 141.392 183.459 141.71 184.045C149.885 198.905 160.229 212.047 172.786 223.452C173.732 224.314 174.637 225.289 175.732 225.911C177.555 226.956 177.802 228.2 177.258 230.178C174.87 238.827 172.651 247.532 170.369 256.209C170.192 256.88 169.98 257.545 169.641 258.717V258.725Z" fill="#DDC094"/>
<path d="M109.433 185.48C109.277 183.218 110.365 181.947 112.393 181.056C118.406 178.392 124.052 175.064 128.814 170.486C130.687 168.691 132.185 166.472 133.669 164.317C134.962 162.438 137.421 161.618 138.996 163.278C141.123 165.525 142.883 168.154 144.543 170.775C144.875 171.305 144.359 172.81 143.766 173.411C140.664 176.562 137.569 179.756 134.178 182.582C130.397 185.727 126.412 188.666 122.286 191.351C120.47 192.531 118.117 192.906 115.969 193.542C114.054 194.107 112.457 193.386 111.553 191.69C110.521 189.754 109.765 187.677 108.889 185.663L109.433 185.48V185.48Z" fill="white"/>
<path d="M336.453 174.704C336.312 184.738 333.111 198.255 325.564 210.571C322.074 216.266 317.707 221.198 312.132 224.957C299.746 233.309 285.691 231.528 275.757 220.343C269.242 213.009 265.794 204.226 264.133 194.729C260.961 176.605 263.561 159.329 272.408 143.12C276.873 134.937 283.183 128.571 291.387 123.971C299.23 119.583 306.974 119.852 314.718 123.795C321.353 127.179 325.896 132.719 329.359 139.184C334.05 147.946 336.418 158.488 336.467 174.704H336.453ZM301.342 125.314C300.947 125.271 300.721 125.215 300.502 125.236C299.993 125.278 299.47 125.307 298.975 125.434C292.984 126.96 287.324 129.172 283.247 134.097C280.802 137.05 278.265 140.032 276.386 143.353C266.889 160.156 264.416 178.103 268.479 196.927C270.267 205.215 273.672 212.797 279.77 218.887C284.893 223.996 290.991 226.709 298.389 225.741C302.777 225.169 306.705 223.508 310.436 220.682C309.963 220.548 309.793 220.442 309.638 220.456C303.462 220.936 298.551 218.343 294.319 214.139C290.235 210.083 287.472 205.18 285.451 199.852C280.456 186.681 279.459 173.065 281.784 159.294C284.073 145.734 288.377 133.1 301.335 125.328L301.342 125.314Z" fill="black"/>
<path d="M453.16 182.823C453.026 192.786 449.825 206.303 442.286 218.619C438.767 224.378 434.351 229.345 428.705 233.125C416.432 241.336 402.498 239.598 392.613 228.603C386.006 221.255 382.522 212.422 380.841 202.855C377.654 184.731 380.254 167.455 389.08 151.239C393.538 143.049 399.841 136.676 408.045 132.076C415.958 127.638 423.759 127.935 431.546 131.956C438.159 135.369 442.681 140.929 446.123 147.409C450.765 156.142 453.104 166.607 453.16 182.823V182.823ZM418.248 133.242C417.11 133.362 416.361 133.355 415.654 133.531C409.663 135.051 404.01 137.269 399.933 142.201C397.523 145.112 395.079 148.052 393.171 151.288C385.462 164.346 382.664 178.626 383.483 193.627C383.964 202.417 385.978 210.889 390.302 218.675C392.895 223.339 396.167 227.395 400.654 230.391C409.33 236.192 419.251 234.432 426.6 229.175C426.727 229.084 426.776 228.886 426.896 228.667C426.649 228.603 426.472 228.511 426.31 228.525C420.367 228.992 415.57 226.575 411.408 222.597C407.635 218.986 404.985 214.62 402.936 209.857C399.989 203.01 398.35 195.838 397.735 188.433C396.661 175.651 397.99 163.173 402.985 151.253C405.268 145.812 408.334 140.852 412.906 137.001C414.446 135.701 416.206 134.662 418.241 133.235L418.248 133.242Z" fill="black"/>
<path d="M350.648 239.612C345.808 239.548 341.802 237.76 339.004 233.69C337.152 230.998 336.736 227.981 337.64 224.893C337.866 224.137 338.954 223.629 339.647 223.007C340.134 223.735 340.65 224.455 341.095 225.204C341.208 225.395 341.152 225.706 341.131 225.96C340.636 232.419 345.646 235.831 350.966 235.528C351.411 235.499 351.998 235.4 352.274 235.634C352.987 236.22 354.082 236.99 354.061 237.662C354.04 238.326 352.916 239.053 352.153 239.569C351.8 239.81 351.157 239.612 350.648 239.612Z" fill="black"/>
<path d="M310.867 99.4243C310.387 100.025 310.055 100.83 309.546 100.972C308.931 101.141 307.822 100.993 307.518 100.562C305.851 98.2302 304.331 95.7924 302.862 93.3264C302.657 92.9873 302.939 91.8991 303.158 91.8497C303.886 91.6801 305.003 91.5105 305.405 91.9132C306.797 93.2982 307.999 94.8809 309.179 96.4637C309.815 97.3116 310.246 98.315 310.874 99.4243H310.867Z" fill="black"/>
<path d="M485.501 133.489C484.823 134.203 484.328 135.143 483.805 135.164C483.24 135.185 482.307 134.45 482.109 133.857C481.275 131.32 480.604 128.727 480.011 126.127C479.891 125.597 480.35 124.939 480.541 124.339C481.127 124.607 482.06 124.72 482.251 125.159C483.402 127.829 484.392 130.571 485.515 133.496L485.501 133.489Z" fill="black"/>
<path d="M391.807 118.537C391.864 119.067 392.167 119.774 391.941 120.085C390.231 122.374 388.444 124.607 386.607 126.797C386.366 127.08 385.589 127.2 385.25 127.023C384.911 126.847 384.628 126.204 384.628 125.773C384.642 124.162 389.32 118.961 390.931 118.65C391.058 118.629 391.185 118.615 391.8 118.537H391.807Z" fill="black"/>
<path d="M233.927 134.216C233.1 134.803 232.337 135.721 231.433 135.905C230.238 136.152 229.348 135.255 229.306 133.983C229.263 132.627 230.118 131.673 231.418 131.828C232.288 131.934 233.065 132.782 233.877 133.298L233.92 134.216H233.927Z" fill="black"/>
<path d="M361.466 61.7136C360.322 62.5332 359.693 63.3105 359.029 63.3458C358.562 63.367 357.608 62.3495 357.651 61.862C357.7 61.2826 358.527 60.4417 359.128 60.3357C359.658 60.2439 360.336 60.9999 361.473 61.7136H361.466Z" fill="black"/>
<path d="M500.46 212.033C499.414 212.662 498.877 213.227 498.361 213.22C497.937 213.213 497.527 212.513 497.11 212.118C497.506 211.715 497.888 211.008 498.312 210.98C498.827 210.945 499.386 211.475 500.46 212.033Z" fill="black"/>
<path d="M301.343 125.307C288.384 133.079 284.081 145.713 281.791 159.273C279.467 173.044 280.463 186.66 285.459 199.831C287.479 205.166 290.242 210.062 294.326 214.118C298.559 218.322 303.469 220.916 309.645 220.435C309.808 220.421 309.97 220.52 310.444 220.661C306.706 223.488 302.784 225.148 298.396 225.72C290.998 226.688 284.9 223.975 279.778 218.867C273.673 212.783 270.274 205.194 268.486 196.906C264.423 178.089 266.896 160.142 276.393 143.332C278.265 140.011 280.802 137.036 283.254 134.076C287.331 129.151 292.991 126.939 298.983 125.413C299.477 125.286 299.993 125.258 300.509 125.215C300.728 125.194 300.954 125.258 301.35 125.293L301.343 125.307Z" fill="white"/>
<path d="M418.255 133.241C416.22 134.661 414.46 135.707 412.92 137.007C408.348 140.858 405.282 145.819 403 151.259C397.997 163.186 396.676 175.658 397.75 188.44C398.371 195.838 400.011 203.017 402.95 209.864C404.999 214.626 407.649 218.993 411.422 222.604C415.584 226.582 420.382 228.998 426.324 228.532C426.487 228.518 426.656 228.61 426.911 228.673C426.783 228.892 426.741 229.09 426.614 229.182C419.265 234.446 409.345 236.198 400.668 230.397C396.181 227.401 392.91 223.338 390.316 218.682C385.985 210.895 383.978 202.423 383.498 193.633C382.671 178.625 385.476 164.345 393.185 151.295C395.093 148.058 397.545 145.112 399.947 142.208C404.024 137.283 409.677 135.057 415.669 133.538C416.375 133.361 417.124 133.368 418.262 133.248L418.255 133.241Z" fill="white"/>
</g>
<path d="M557.064 521H-1V523H557.064V521Z" fill="black" mask="url(#path-3-inside-2_435_107)"/>
</g>
<defs>
<clipPath id="clip0_435_107">
<path d="M-1 0H557.064V522H-1V0Z" fill="white"/>
</clipPath>
</defs>
</svg>
