<svg width="24" height="25" viewBox="0 0 24 25" fill="none" xmlns="http://www.w3.org/2000/svg">
<path d="M11.2488 23.6749C10.9663 23.3845 10.8184 23.0149 10.805 22.566C10.7927 22.1172 10.9278 21.7476 11.2103 21.4571L18.7608 13.6948H1.54093C1.10433 13.6948 0.738106 13.5427 0.442247 13.2385C0.147416 12.9354 0 12.5594 0 12.1106C0 11.6617 0.147416 11.2852 0.442247 10.9811C0.738106 10.678 1.10433 10.5264 1.54093 10.5264H18.7608L11.2103 2.76406C10.9278 2.47363 10.7927 2.10399 10.805 1.65515C10.8184 1.20631 10.9663 0.836668 11.2488 0.546239C11.5313 0.25581 11.8908 0.110596 12.3274 0.110596C12.764 0.110596 13.1236 0.25581 13.4061 0.546239L23.5762 11.0017C23.7303 11.1337 23.8397 11.2985 23.9045 11.4959C23.9682 11.6945 24 11.8994 24 12.1106C24 12.3218 23.9682 12.5198 23.9045 12.7047C23.8397 12.8895 23.7303 13.0611 23.5762 13.2195L13.4061 23.6749C13.1236 23.9654 12.764 24.1106 12.3274 24.1106C11.8908 24.1106 11.5313 23.9654 11.2488 23.6749V23.6749Z" fill="#7D7D7D"/>
</svg>
