<svg width="24" height="25" viewBox="0 0 24 25" fill="none" xmlns="http://www.w3.org/2000/svg">
<path d="M10.5939 23.6366L0.423756 13.2076C0.269663 13.0496 0.160256 12.8784 0.0955374 12.694C0.0318456 12.5097 0 12.3122 0 12.1015C0 11.8908 0.0318456 11.6933 0.0955374 11.5089C0.160256 11.3246 0.269663 11.1534 0.423756 10.9954L10.5939 0.566407C10.8764 0.276713 11.2293 0.12502 11.6525 0.111325C12.0768 0.0986838 12.443 0.250377 12.7512 0.566407C13.0594 0.8561 13.2202 1.21795 13.2335 1.65197C13.2458 2.08704 13.0979 2.46258 12.7897 2.77861L5.23917 10.5213H22.4591C22.8957 10.5213 23.2619 10.6725 23.5578 10.9748C23.8526 11.2782 24 11.6538 24 12.1015C24 12.5492 23.8526 12.9242 23.5578 13.2265C23.2619 13.5299 22.8957 13.6816 22.4591 13.6816H5.23917L12.7897 21.4243C13.0722 21.714 13.2202 22.0827 13.2335 22.5304C13.2458 22.9782 13.0979 23.3469 12.7897 23.6366C12.5072 23.9526 12.1477 24.1106 11.7111 24.1106C11.2745 24.1106 10.9021 23.9526 10.5939 23.6366V23.6366Z" fill="#7D7D7D"/>
</svg>
