<svg width="24" height="24" viewBox="0 0 24 24" fill="none" xmlns="http://www.w3.org/2000/svg">
<path d="M12 24C14.6889 24 17.1 23.2053 19.2333 21.616C21.3667 20.0276 22.8 17.9556 23.5333 15.4C23.6444 15 23.6053 14.6222 23.416 14.2667C23.2276 13.9111 22.9333 13.6889 22.5333 13.6C22.1556 13.5111 21.8164 13.5942 21.516 13.8493C21.2164 14.1053 21.0111 14.4222 20.9 14.8C20.3222 16.7556 19.2053 18.3333 17.5493 19.5333C15.8942 20.7333 14.0444 21.3333 12 21.3333C9.4 21.3333 7.19467 20.4276 5.384 18.616C3.57244 16.8053 2.66667 14.6 2.66667 12C2.66667 9.4 3.57244 7.19422 5.384 5.38267C7.19467 3.572 9.4 2.66667 12 2.66667C13.5333 2.66667 14.9667 3.02222 16.3 3.73333C17.6333 4.44444 18.7556 5.42222 19.6667 6.66667H17.3333C16.9556 6.66667 16.6387 6.79422 16.3827 7.04933C16.1276 7.30533 16 7.62222 16 8C16 8.37778 16.1276 8.69422 16.3827 8.94933C16.6387 9.20533 16.9556 9.33333 17.3333 9.33333H22.6667C23.0444 9.33333 23.3609 9.20533 23.616 8.94933C23.872 8.69422 24 8.37778 24 8V2.66667C24 2.28889 23.872 1.972 23.616 1.716C23.3609 1.46089 23.0444 1.33333 22.6667 1.33333C22.2889 1.33333 21.972 1.46089 21.716 1.716C21.4609 1.972 21.3333 2.28889 21.3333 2.66667V4.46667C20.2 3.04444 18.8164 1.94444 17.1827 1.16667C15.5498 0.388889 13.8222 0 12 0C10.3333 0 8.772 0.316444 7.316 0.949333C5.86089 1.58311 4.59422 2.43867 3.516 3.516C2.43866 4.59422 1.58311 5.86089 0.949333 7.316C0.316444 8.772 -7.15256e-07 10.3333 -7.15256e-07 12C-7.15256e-07 13.6667 0.316444 15.2276 0.949333 16.6827C1.58311 18.1387 2.43866 19.4053 3.516 20.4827C4.59422 21.5609 5.86089 22.4169 7.316 23.0507C8.772 23.6836 10.3333 24 12 24Z" fill="#7D7D7D"/>
</svg>
