<svg width="80" height="80" viewBox="0 0 80 80" fill="none" xmlns="http://www.w3.org/2000/svg">
<path d="M54.5327 46.6665C54.7994 44.4665 54.9993 42.2665 54.9993 39.9998C54.9993 37.7332 54.7994 35.5332 54.5327 33.3332H65.7993C66.3327 35.4665 66.666 37.6998 66.666 39.9998C66.666 42.2998 66.3327 44.5332 65.7993 46.6665M48.6327 65.1998C50.6327 61.4998 52.166 57.4998 53.2327 53.3332H63.066C59.8366 58.8941 54.7131 63.1065 48.6327 65.1998ZM47.7993 46.6665H32.1993C31.866 44.4665 31.666 42.2665 31.666 39.9998C31.666 37.7332 31.866 35.4998 32.1993 33.3332H47.7993C48.0993 35.4998 48.3327 37.7332 48.3327 39.9998C48.3327 42.2665 48.0993 44.4665 47.7993 46.6665ZM39.9993 66.5332C37.2327 62.5332 34.9993 58.0998 33.6327 53.3332H46.366C44.9993 58.0998 42.766 62.5332 39.9993 66.5332ZM26.666 26.6665H16.9327C20.1289 21.0906 25.2487 16.8715 31.3327 14.7998C29.3327 18.4998 27.8327 22.4998 26.666 26.6665ZM16.9327 53.3332H26.666C27.8327 57.4998 29.3327 61.4998 31.3327 65.1998C25.2614 63.1054 20.1488 58.8922 16.9327 53.3332ZM14.1993 46.6665C13.666 44.5332 13.3327 42.2998 13.3327 39.9998C13.3327 37.6998 13.666 35.4665 14.1993 33.3332H25.466C25.1993 35.5332 24.9993 37.7332 24.9993 39.9998C24.9993 42.2665 25.1993 44.4665 25.466 46.6665M39.9993 13.4332C42.766 17.4332 44.9993 21.8998 46.366 26.6665H33.6327C34.9993 21.8998 37.2327 17.4332 39.9993 13.4332ZM63.066 26.6665H53.2327C52.1894 22.538 50.6446 18.5528 48.6327 14.7998C54.766 16.8998 59.866 21.1332 63.066 26.6665ZM39.9993 6.6665C21.566 6.6665 6.66602 21.6665 6.66602 39.9998C6.66602 48.8404 10.1779 57.3188 16.4291 63.5701C19.5244 66.6653 23.199 69.1207 27.2432 70.7958C31.2874 72.471 35.622 73.3332 39.9993 73.3332C48.8399 73.3332 57.3184 69.8213 63.5696 63.5701C69.8208 57.3188 73.3327 48.8404 73.3327 39.9998C73.3327 35.6224 72.4705 31.2879 70.7953 27.2437C69.1202 23.1995 66.6649 19.5249 63.5696 16.4296C60.4743 13.3343 56.7996 10.879 52.7555 9.20385C48.7113 7.5287 44.3767 6.6665 39.9993 6.6665Z" fill="white"/>
</svg>
