<svg width="282" height="202" viewBox="0 0 282 202" fill="none" xmlns="http://www.w3.org/2000/svg">
<mask id="path-1-inside-1_345_2" fill="white">
<path fill-rule="evenodd" clip-rule="evenodd" d="M47 118C23.2425 118 4 137.27 4 161.062C4 180.117 16.3088 196.212 33.4013 201.918C35.5513 202.295 36.3575 201.003 36.3575 199.872C36.3575 198.85 36.3037 195.458 36.3037 191.852C25.5 193.844 22.705 189.214 21.845 186.792C21.3613 185.554 19.265 181.732 17.4375 180.71C15.9325 179.902 13.7825 177.91 17.3837 177.857C20.77 177.803 23.1888 180.979 23.995 182.271C27.865 188.784 34.0462 186.954 36.5187 185.823C36.895 183.024 38.0238 181.14 39.26 180.064C29.6925 178.987 19.695 175.273 19.695 158.802C19.695 154.119 21.3613 150.243 24.1025 147.229C23.6725 146.152 22.1675 141.738 24.5325 135.817C24.5325 135.817 28.1338 134.687 36.3575 140.231C39.7975 139.262 43.4525 138.778 47.1075 138.778C50.7625 138.778 54.4175 139.262 57.8575 140.231C66.0813 134.633 69.6825 135.817 69.6825 135.817C72.0475 141.738 70.5425 146.152 70.1125 147.229C72.8538 150.243 74.52 154.065 74.52 158.802C74.52 175.327 64.4688 178.987 54.9013 180.064C56.46 181.409 57.8037 183.993 57.8037 188.03C57.8037 193.79 57.75 198.419 57.75 199.872C57.75 201.003 58.5562 202.348 60.7062 201.918C69.2425 199.032 76.6602 193.538 81.9151 186.209C87.1701 178.88 89.9977 170.085 90 161.062C90 137.27 70.7575 118 47 118Z"/>
</mask>
<path fill-rule="evenodd" clip-rule="evenodd" d="M47 118C23.2425 118 4 137.27 4 161.062C4 180.117 16.3088 196.212 33.4013 201.918C35.5513 202.295 36.3575 201.003 36.3575 199.872C36.3575 198.85 36.3037 195.458 36.3037 191.852C25.5 193.844 22.705 189.214 21.845 186.792C21.3613 185.554 19.265 181.732 17.4375 180.71C15.9325 179.902 13.7825 177.91 17.3837 177.857C20.77 177.803 23.1888 180.979 23.995 182.271C27.865 188.784 34.0462 186.954 36.5187 185.823C36.895 183.024 38.0238 181.14 39.26 180.064C29.6925 178.987 19.695 175.273 19.695 158.802C19.695 154.119 21.3613 150.243 24.1025 147.229C23.6725 146.152 22.1675 141.738 24.5325 135.817C24.5325 135.817 28.1338 134.687 36.3575 140.231C39.7975 139.262 43.4525 138.778 47.1075 138.778C50.7625 138.778 54.4175 139.262 57.8575 140.231C66.0813 134.633 69.6825 135.817 69.6825 135.817C72.0475 141.738 70.5425 146.152 70.1125 147.229C72.8538 150.243 74.52 154.065 74.52 158.802C74.52 175.327 64.4688 178.987 54.9013 180.064C56.46 181.409 57.8037 183.993 57.8037 188.03C57.8037 193.79 57.75 198.419 57.75 199.872C57.75 201.003 58.5562 202.348 60.7062 201.918C69.2425 199.032 76.6602 193.538 81.9151 186.209C87.1701 178.88 89.9977 170.085 90 161.062C90 137.27 70.7575 118 47 118Z" stroke="black" stroke-width="6" mask="url(#path-1-inside-1_345_2)"/>
<path fill-rule="evenodd" clip-rule="evenodd" d="M181.365 175.099H181.288C181.323 175.099 181.346 175.137 181.38 175.141H181.403L181.365 175.103V175.099ZM181.38 175.141C181.022 175.145 180.121 175.331 179.17 175.331C176.166 175.331 175.126 173.963 175.126 172.178V160.285H181.249C181.596 160.285 181.866 159.981 181.866 159.563V153.106C181.866 152.764 181.558 152.46 181.249 152.46H175.126V144.445C175.126 144.141 174.933 143.952 174.587 143.952H166.268C165.921 143.952 165.729 144.141 165.729 144.445V152.688C165.729 152.688 161.531 153.714 161.261 153.752C160.953 153.828 160.76 154.093 160.76 154.397V159.563C160.76 159.981 161.069 160.285 161.415 160.285H165.69V172.744C165.69 182.012 172.237 182.962 176.705 182.962C178.746 182.962 181.211 182.316 181.596 182.126C181.827 182.05 181.943 181.784 181.943 181.519V175.821C181.948 175.659 181.894 175.501 181.791 175.376C181.688 175.25 181.542 175.165 181.38 175.137V175.141ZM272.641 166.78C272.641 159.905 269.83 158.994 266.864 159.297C264.554 159.449 262.705 160.589 262.705 160.589V173.96C262.705 173.96 264.592 175.251 267.403 175.327C271.37 175.441 272.641 174.036 272.641 166.78ZM282 166.173C282 179.202 277.725 182.924 270.253 182.924C263.937 182.924 260.548 179.771 260.548 179.771C260.548 179.771 260.394 181.519 260.202 181.746C260.086 181.974 259.893 182.05 259.662 182.05H253.962C253.577 182.05 253.231 181.746 253.231 181.405L253.308 139.203C253.308 138.862 253.616 138.558 253.962 138.558H262.166C262.512 138.558 262.82 138.862 262.82 139.203V153.524C262.82 153.524 265.979 151.511 270.6 151.511L270.562 151.435C275.183 151.435 282 153.144 282 166.173ZM248.416 152.46H240.329C239.905 152.46 239.674 152.764 239.674 153.182V173.846C239.674 173.846 237.556 175.327 234.667 175.327C231.779 175.327 230.931 174.036 230.931 171.187V153.144C230.931 152.802 230.623 152.498 230.277 152.498H222.035C221.688 152.498 221.38 152.802 221.38 153.144V172.554C221.38 180.911 226.117 183 232.626 183C237.979 183 242.331 180.075 242.331 180.075C242.331 180.075 242.524 181.557 242.639 181.784C242.717 181.974 242.986 182.126 243.256 182.126H248.416C248.84 182.126 249.071 181.822 249.071 181.481L249.148 153.106C249.148 152.764 248.84 152.46 248.416 152.46ZM157.14 152.422H148.937C148.59 152.422 148.282 152.764 148.282 153.182V181.063C148.282 181.822 148.783 182.088 149.438 182.088H156.832C157.602 182.088 157.795 181.746 157.795 181.063V153.068C157.795 152.726 157.487 152.422 157.14 152.422ZM153.096 139.583C150.131 139.583 147.781 141.9 147.781 144.825C147.781 147.75 150.131 150.067 153.096 150.067C155.985 150.067 158.334 147.75 158.334 144.825C158.334 141.9 155.985 139.583 153.096 139.583ZM216.605 138.634H208.478C208.132 138.634 207.824 138.937 207.824 139.279V154.815H195.076V139.279C195.076 138.937 194.768 138.634 194.421 138.634H186.218C185.871 138.634 185.563 138.937 185.563 139.279V181.481C185.563 181.822 185.91 182.126 186.218 182.126H194.421C194.768 182.126 195.076 181.822 195.076 181.481V163.438H207.824L207.747 181.481C207.747 181.822 208.055 182.126 208.401 182.126H216.605C216.951 182.126 217.259 181.822 217.259 181.481V139.279C217.259 138.937 216.951 138.634 216.605 138.634ZM143.93 157.322V179.126C143.93 179.277 143.892 179.543 143.699 179.619C143.699 179.619 138.885 183 130.951 183C121.361 183 110 180.037 110 160.513C110 140.989 119.936 136.962 129.642 137C138.038 137 141.427 138.862 141.966 139.203C142.12 139.393 142.197 139.545 142.197 139.735L140.579 146.496C140.579 146.838 140.233 147.256 139.809 147.142C138.423 146.724 136.343 145.889 131.452 145.889C125.79 145.889 119.705 147.484 119.705 160.057C119.705 172.63 125.482 174.112 129.642 174.112C133.185 174.112 134.456 173.694 134.456 173.694V164.957H128.794C128.371 164.957 128.063 164.653 128.063 164.311V157.322C128.063 156.98 128.371 156.676 128.794 156.676H143.198C143.622 156.676 143.93 156.98 143.93 157.322Z" fill="black"/>
<mask id="path-3-inside-2_345_2" fill="white">
<path d="M91.2407 42.3536L50.6346 1.75139C49.5089 0.629774 47.9845 0 46.3954 0C44.8062 0 43.2819 0.629774 42.1561 1.75139L33.7435 10.1795L44.4385 20.8745C45.7003 20.447 47.0567 20.382 48.3536 20.6869C49.6505 20.9918 50.8359 21.6543 51.7751 22.5991C52.7143 23.544 53.3696 24.7333 53.6667 26.032C53.9638 27.3307 53.8907 28.6867 53.4556 29.9459L63.7554 40.2534C65.2797 39.7234 66.9388 39.7268 68.461 40.263C69.9831 40.7992 71.278 41.8365 72.1336 43.2049C72.9891 44.5733 73.3545 46.1917 73.17 47.795C72.9855 49.3982 72.2619 50.8913 71.1179 52.0295C70.4567 52.6917 69.6715 53.2171 68.8071 53.5755C67.9427 53.934 67.0161 54.1185 66.0804 54.1185C65.1446 54.1185 64.218 53.934 63.3536 53.5755C62.4893 53.2171 61.704 52.6917 61.0429 52.0295C60.0521 51.0359 59.3754 49.7729 59.0971 48.3977C58.8187 47.0224 58.951 45.5957 59.4774 44.295L49.8325 34.7005V59.9849C50.5145 60.3181 51.1577 60.7715 51.7235 61.3334C53.0506 62.6742 53.7949 64.4844 53.7949 66.3709C53.7949 68.2574 53.0506 70.0676 51.7235 71.4084C51.0599 72.0726 50.2719 72.5995 49.4045 72.959C48.5372 73.3185 47.6075 73.5036 46.6686 73.5036C45.7297 73.5036 44.7999 73.3185 43.9326 72.959C43.0652 72.5995 42.2772 72.0726 41.6136 71.4084C40.9512 70.7482 40.4256 69.9637 40.0669 69.0999C39.7083 68.2361 39.5237 67.31 39.5237 66.3748C39.5237 65.4395 39.7083 64.5134 40.0669 63.6497C40.4256 62.7859 40.9512 62.0014 41.6136 61.3411C42.3189 60.6436 43.1132 60.1166 43.958 59.7679V34.2355C43.0881 33.8799 42.2974 33.3553 41.6316 32.6921C40.9658 32.0288 40.4382 31.2401 40.0793 30.3716C39.7203 29.5031 39.5372 28.572 39.5405 27.6323C39.5438 26.6925 39.7335 25.7627 40.0985 24.8968L29.5895 14.3374L1.74375 42.1638C-0.58125 44.5081 -0.58125 48.3018 1.74375 50.6461L42.3538 91.2445C42.9098 91.8011 43.57 92.2426 44.2967 92.5438C45.0235 92.845 45.8024 93.0001 46.5891 93.0001C47.3758 93.0001 48.1548 92.845 48.8815 92.5438C49.6083 92.2426 50.2685 91.8011 50.8245 91.2445L91.2407 50.8283C91.7983 50.2725 92.2407 49.6121 92.5426 48.8849C92.8444 48.1578 92.9998 47.3783 92.9998 46.591C92.9998 45.8037 92.8444 45.0241 92.5426 44.297C92.2407 43.5699 91.7983 42.9095 91.2407 42.3536Z"/>
</mask>
<path d="M91.2407 42.3536L50.6346 1.75139C49.5089 0.629774 47.9845 0 46.3954 0C44.8062 0 43.2819 0.629774 42.1561 1.75139L33.7435 10.1795L44.4385 20.8745C45.7003 20.447 47.0567 20.382 48.3536 20.6869C49.6505 20.9918 50.8359 21.6543 51.7751 22.5991C52.7143 23.544 53.3696 24.7333 53.6667 26.032C53.9638 27.3307 53.8907 28.6867 53.4556 29.9459L63.7554 40.2534C65.2797 39.7234 66.9388 39.7268 68.461 40.263C69.9831 40.7992 71.278 41.8365 72.1336 43.2049C72.9891 44.5733 73.3545 46.1917 73.17 47.795C72.9855 49.3982 72.2619 50.8913 71.1179 52.0295C70.4567 52.6917 69.6715 53.2171 68.8071 53.5755C67.9427 53.934 67.0161 54.1185 66.0804 54.1185C65.1446 54.1185 64.218 53.934 63.3536 53.5755C62.4893 53.2171 61.704 52.6917 61.0429 52.0295C60.0521 51.0359 59.3754 49.7729 59.0971 48.3977C58.8187 47.0224 58.951 45.5957 59.4774 44.295L49.8325 34.7005V59.9849C50.5145 60.3181 51.1577 60.7715 51.7235 61.3334C53.0506 62.6742 53.7949 64.4844 53.7949 66.3709C53.7949 68.2574 53.0506 70.0676 51.7235 71.4084C51.0599 72.0726 50.2719 72.5995 49.4045 72.959C48.5372 73.3185 47.6075 73.5036 46.6686 73.5036C45.7297 73.5036 44.7999 73.3185 43.9326 72.959C43.0652 72.5995 42.2772 72.0726 41.6136 71.4084C40.9512 70.7482 40.4256 69.9637 40.0669 69.0999C39.7083 68.2361 39.5237 67.31 39.5237 66.3748C39.5237 65.4395 39.7083 64.5134 40.0669 63.6497C40.4256 62.7859 40.9512 62.0014 41.6136 61.3411C42.3189 60.6436 43.1132 60.1166 43.958 59.7679V34.2355C43.0881 33.8799 42.2974 33.3553 41.6316 32.6921C40.9658 32.0288 40.4382 31.2401 40.0793 30.3716C39.7203 29.5031 39.5372 28.572 39.5405 27.6323C39.5438 26.6925 39.7335 25.7627 40.0985 24.8968L29.5895 14.3374L1.74375 42.1638C-0.58125 44.5081 -0.58125 48.3018 1.74375 50.6461L42.3538 91.2445C42.9098 91.8011 43.57 92.2426 44.2967 92.5438C45.0235 92.845 45.8024 93.0001 46.5891 93.0001C47.3758 93.0001 48.1548 92.845 48.8815 92.5438C49.6083 92.2426 50.2685 91.8011 50.8245 91.2445L91.2407 50.8283C91.7983 50.2725 92.2407 49.6121 92.5426 48.8849C92.8444 48.1578 92.9998 47.3783 92.9998 46.591C92.9998 45.8037 92.8444 45.0241 92.5426 44.297C92.2407 43.5699 91.7983 42.9095 91.2407 42.3536Z" stroke="black" stroke-width="6" mask="url(#path-3-inside-2_345_2)"/>
<path d="M148.369 13C146.95 13 145.74 13.5372 144.737 14.6123C143.734 15.6876 143.234 16.9832 143.234 18.4983C143.234 19.9645 143.734 21.2339 144.737 22.309C145.74 23.3843 146.95 23.9231 148.369 23.9231C149.739 23.9231 150.925 23.3843 151.928 22.309C152.93 21.2339 153.432 19.9645 153.432 18.4983C153.432 16.9831 152.93 15.6876 151.928 14.6123C150.925 13.5372 149.739 13 148.369 13ZM159.37 23.4834C159.516 24.3142 159.59 25.4126 159.59 26.7811V29.6391H155.996V36.7494C157.023 36.6028 157.854 36.5318 158.49 36.5318L159.59 36.603V36.7496H159.517V49.8712C159.517 53.9767 160.032 56.9827 161.059 58.8889C162.429 61.4299 164.899 62.6996 168.47 62.6996C171.014 62.6996 173.19 62.2119 175 61.2339V53.9035C173.777 54.7346 172.407 55.1492 170.891 55.1492C168.738 55.1492 167.663 53.5118 167.663 50.2373V36.6028H170.817C171.405 36.6028 172.029 36.6273 172.689 36.6759C173.35 36.7249 173.801 36.7491 174.045 36.7491V29.6387H167.664V26.6341C167.664 25.4614 167.737 24.4117 167.884 23.483H159.371L159.37 23.4833L159.37 23.4834ZM125.768 29.2727C122.441 29.2727 119.581 30.3733 117.183 32.5724C114.689 34.9181 113.44 37.8494 113.44 41.3682C113.44 43.7139 114.125 45.9133 115.494 47.9656C116.717 49.8713 118.112 51.0941 119.677 51.6318V51.7784C118.112 52.4619 117.33 54.1735 117.33 56.9101C117.33 59.0118 118.161 60.5739 119.824 61.6001V61.7467C115.275 63.2616 113 66.0713 113 70.1761C113 73.744 114.517 76.3599 117.55 78.0213C119.947 79.3409 123.004 80 126.722 80C135.771 80 140.296 76.2124 140.296 68.6373C140.296 63.8971 136.798 60.9895 129.803 59.9146C128.189 59.6703 126.967 59.0847 126.135 58.156C125.499 57.5209 125.181 56.8839 125.181 56.2486C125.181 54.4405 126.159 53.3908 128.115 53.0974C131.099 52.6581 133.533 51.2773 135.417 48.956C137.3 46.6345 138.242 43.9096 138.242 40.782C138.242 39.8046 138.047 38.7546 137.655 37.6308C138.927 37.3374 139.904 37.0689 140.589 36.8247V29.2725C137.507 30.4454 134.793 31.0332 132.445 31.0332C130.39 29.8605 128.165 29.2725 125.768 29.2725V29.2727H125.768ZM144.188 29.6391C144.285 30.5187 144.334 32.108 144.334 34.4044V57.2033C144.334 59.5492 144.285 61.2095 144.188 62.1864H152.479C152.381 61.0626 152.332 59.2541 152.332 56.7616V34.2578C152.332 32.1076 152.381 30.5675 152.479 29.6391H144.188V29.6391ZM126.061 36.0167C127.529 36.0167 128.677 36.5805 129.509 37.7043C130.194 38.731 130.536 39.9512 130.536 41.3684C130.536 44.7893 129.045 46.5001 126.061 46.5001C122.98 46.5001 121.438 44.8137 121.438 41.4416C121.438 37.8255 122.98 36.0167 126.061 36.0167V36.0167ZM126.575 65.8528C130.684 65.8528 132.739 67.0977 132.739 69.59C132.739 72.2292 130.855 73.5492 127.088 73.5492C122.784 73.5492 120.631 72.2774 120.631 69.7364C120.631 67.1462 122.613 65.8526 126.575 65.8526L126.575 65.8528V65.8528Z" fill="black"/>
</svg>
