<svg width="218" height="39" viewBox="0 0 218 39" fill="none" xmlns="http://www.w3.org/2000/svg">
<mask id="path-1-inside-1_305_494" fill="white">
<path fill-rule="evenodd" clip-rule="evenodd" d="M118.959 1C109.037 1 101 9.04822 101 18.9849C101 26.9432 106.141 33.665 113.279 36.048C114.177 36.2054 114.514 35.6658 114.514 35.1937C114.514 34.7666 114.492 33.3503 114.492 31.844C109.979 32.6758 108.812 30.7425 108.453 29.7308C108.251 29.2137 107.375 27.6176 106.612 27.1904C105.984 26.8532 105.086 26.0214 106.59 25.999C108.004 25.9765 109.014 27.3029 109.351 27.8424C110.967 30.5626 113.549 29.7983 114.581 29.3262C114.738 28.1571 115.21 27.3703 115.726 26.9207C111.73 26.4711 107.555 24.9199 107.555 18.0407C107.555 16.0848 108.251 14.4662 109.396 13.2072C109.216 12.7576 108.588 10.9142 109.575 8.44124C109.575 8.44124 111.079 7.96913 114.514 10.2847C115.951 9.88002 117.477 9.67769 119.004 9.67769C120.53 9.67769 122.057 9.88002 123.493 10.2847C126.928 7.94665 128.432 8.44124 128.432 8.44124C129.42 10.9142 128.791 12.7576 128.612 13.2072C129.757 14.4662 130.452 16.0623 130.452 18.0407C130.452 24.9423 126.255 26.4711 122.259 26.9207C122.91 27.4827 123.471 28.5618 123.471 30.2479C123.471 32.6534 123.449 34.5867 123.449 35.1937C123.449 35.6658 123.785 36.2278 124.683 36.048C128.248 34.8427 131.346 32.5481 133.541 29.4872C135.736 26.4262 136.917 22.7531 136.918 18.9849C136.918 9.04822 128.881 1 118.959 1Z"/>
</mask>
<path fill-rule="evenodd" clip-rule="evenodd" d="M118.959 1C109.037 1 101 9.04822 101 18.9849C101 26.9432 106.141 33.665 113.279 36.048C114.177 36.2054 114.514 35.6658 114.514 35.1937C114.514 34.7666 114.492 33.3503 114.492 31.844C109.979 32.6758 108.812 30.7425 108.453 29.7308C108.251 29.2137 107.375 27.6176 106.612 27.1904C105.984 26.8532 105.086 26.0214 106.59 25.999C108.004 25.9765 109.014 27.3029 109.351 27.8424C110.967 30.5626 113.549 29.7983 114.581 29.3262C114.738 28.1571 115.21 27.3703 115.726 26.9207C111.73 26.4711 107.555 24.9199 107.555 18.0407C107.555 16.0848 108.251 14.4662 109.396 13.2072C109.216 12.7576 108.588 10.9142 109.575 8.44124C109.575 8.44124 111.079 7.96913 114.514 10.2847C115.951 9.88002 117.477 9.67769 119.004 9.67769C120.53 9.67769 122.057 9.88002 123.493 10.2847C126.928 7.94665 128.432 8.44124 128.432 8.44124C129.42 10.9142 128.791 12.7576 128.612 13.2072C129.757 14.4662 130.452 16.0623 130.452 18.0407C130.452 24.9423 126.255 26.4711 122.259 26.9207C122.91 27.4827 123.471 28.5618 123.471 30.2479C123.471 32.6534 123.449 34.5867 123.449 35.1937C123.449 35.6658 123.785 36.2278 124.683 36.048C128.248 34.8427 131.346 32.5481 133.541 29.4872C135.736 26.4262 136.917 22.7531 136.918 18.9849C136.918 9.04822 128.881 1 118.959 1Z" stroke="black" stroke-width="3" mask="url(#path-1-inside-1_305_494)"/>
<path fill-rule="evenodd" clip-rule="evenodd" d="M175.076 24.8473H175.044C175.058 24.8473 175.068 24.8632 175.082 24.8647H175.092L175.076 24.8489V24.8473ZM175.082 24.8647C174.933 24.8663 174.556 24.9441 174.159 24.9441C172.904 24.9441 172.47 24.373 172.47 23.6273V18.6602H175.028C175.172 18.6602 175.285 18.5333 175.285 18.3588V15.6619C175.285 15.5191 175.156 15.3922 175.028 15.3922H172.47V12.0448C172.47 11.9179 172.39 11.8386 172.245 11.8386H168.771C168.626 11.8386 168.545 11.9179 168.545 12.0448V15.4874C168.545 15.4874 166.792 15.9157 166.68 15.9316C166.551 15.9633 166.47 16.0743 166.47 16.2013V18.3588C166.47 18.5333 166.599 18.6602 166.744 18.6602H168.529V23.8637C168.529 27.7346 171.264 28.1312 173.13 28.1312C173.982 28.1312 175.012 27.8615 175.172 27.7822C175.269 27.7505 175.317 27.6394 175.317 27.5284V25.1487C175.319 25.0812 175.297 25.0152 175.254 24.9628C175.211 24.9103 175.15 24.875 175.082 24.8632V24.8647ZM213.197 21.373C213.197 18.5016 212.023 18.1208 210.784 18.2478C209.819 18.3112 209.047 18.7871 209.047 18.7871V24.3714C209.047 24.3714 209.835 24.9108 211.01 24.9425C212.666 24.9901 213.197 24.4031 213.197 21.373ZM217.106 21.1192C217.106 26.5606 215.32 28.1153 212.2 28.1153C209.562 28.1153 208.146 26.7986 208.146 26.7986C208.146 26.7986 208.082 27.5284 208.002 27.6235C207.953 27.7187 207.873 27.7505 207.777 27.7505H205.396C205.235 27.7505 205.09 27.6235 205.09 27.4808L205.123 9.85554C205.123 9.71276 205.251 9.58585 205.396 9.58585H208.822C208.967 9.58585 209.096 9.71276 209.096 9.85554V15.8364C209.096 15.8364 210.414 14.9956 212.345 14.9956L212.329 14.9638C214.259 14.9638 217.106 15.6777 217.106 21.1192ZM203.08 15.3922H199.702C199.525 15.3922 199.428 15.5191 199.428 15.6936V24.3238C199.428 24.3238 198.544 24.9425 197.337 24.9425C196.131 24.9425 195.777 24.4031 195.777 23.2133V15.6777C195.777 15.535 195.649 15.408 195.504 15.408H192.062C191.917 15.408 191.788 15.535 191.788 15.6777V23.7844C191.788 27.2745 193.767 28.1471 196.485 28.1471C198.721 28.1471 200.538 26.9255 200.538 26.9255C200.538 26.9255 200.619 27.5442 200.667 27.6394C200.699 27.7187 200.812 27.7822 200.924 27.7822H203.08C203.257 27.7822 203.353 27.6553 203.353 27.5125L203.385 15.6619C203.385 15.5191 203.257 15.3922 203.08 15.3922ZM164.958 15.3763H161.532C161.388 15.3763 161.259 15.5191 161.259 15.6936V27.338C161.259 27.6553 161.468 27.7663 161.741 27.7663H164.83C165.151 27.7663 165.232 27.6235 165.232 27.338V15.646C165.232 15.5032 165.103 15.3763 164.958 15.3763ZM163.27 10.0142C162.031 10.0142 161.05 10.9819 161.05 12.2035C161.05 13.425 162.031 14.3927 163.27 14.3927C164.476 14.3927 165.457 13.425 165.457 12.2035C165.457 10.9819 164.476 10.0142 163.27 10.0142ZM189.794 9.61758H186.4C186.255 9.61758 186.126 9.74449 186.126 9.88727V16.3758H180.802V9.88727C180.802 9.74449 180.673 9.61758 180.529 9.61758H177.103C176.958 9.61758 176.829 9.74449 176.829 9.88727V27.5125C176.829 27.6553 176.974 27.7822 177.103 27.7822H180.529C180.673 27.7822 180.802 27.6553 180.802 27.5125V19.977H186.126L186.094 27.5125C186.094 27.6553 186.223 27.7822 186.368 27.7822H189.794C189.938 27.7822 190.067 27.6553 190.067 27.5125V9.88727C190.067 9.74449 189.938 9.61758 189.794 9.61758ZM159.441 17.4228V26.5289C159.441 26.5924 159.425 26.7034 159.345 26.7351C159.345 26.7351 157.334 28.1471 154.021 28.1471C150.016 28.1471 145.271 26.9097 145.271 18.7554C145.271 10.6012 149.42 8.91955 153.474 8.93541C156.98 8.93541 158.396 9.71276 158.621 9.85554C158.685 9.93486 158.718 9.99832 158.718 10.0776L158.042 12.9015C158.042 13.0443 157.897 13.2188 157.72 13.1712C157.141 12.9967 156.273 12.6477 154.23 12.6477C151.865 12.6477 149.324 13.314 149.324 18.565C149.324 23.8161 151.737 24.4348 153.474 24.4348C154.954 24.4348 155.484 24.2603 155.484 24.2603V20.6115H153.12C152.943 20.6115 152.814 20.4846 152.814 20.3418V17.4228C152.814 17.28 152.943 17.1531 153.12 17.1531H159.136C159.313 17.1531 159.441 17.28 159.441 17.4228Z" fill="black"/>
<mask id="path-3-inside-2_305_494" fill="white">
<path d="M38.1064 17.6889L21.1474 0.731465C20.6772 0.263023 20.0406 0 19.3769 0C18.7132 0 18.0765 0.263023 17.6064 0.731465L14.0929 4.25145L18.5596 8.71818C19.0866 8.53965 19.6531 8.5125 20.1947 8.63982C20.7364 8.76715 21.2315 9.04383 21.6237 9.43845C22.016 9.83307 22.2897 10.3298 22.4137 10.8722C22.5378 11.4146 22.5073 11.9809 22.3256 12.5068L26.6272 16.8117C27.2639 16.5904 27.9568 16.5918 28.5925 16.8157C29.2282 17.0397 29.7691 17.4729 30.1264 18.0444C30.4837 18.6159 30.6363 19.2918 30.5592 19.9614C30.4822 20.631 30.18 21.2546 29.7022 21.73C29.426 22.0065 29.0981 22.226 28.7371 22.3757C28.3761 22.5254 27.9891 22.6024 27.5983 22.6024C27.2075 22.6024 26.8205 22.5254 26.4595 22.3757C26.0985 22.226 25.7705 22.0065 25.4944 21.73C25.0806 21.315 24.798 20.7875 24.6817 20.2131C24.5655 19.6388 24.6207 19.0429 24.8406 18.4997L20.8124 14.4926V25.0525C21.0972 25.1917 21.3659 25.381 21.6022 25.6157C22.1564 26.1757 22.4673 26.9317 22.4673 27.7196C22.4673 28.5075 22.1564 29.2635 21.6022 29.8235C21.325 30.1009 20.9959 30.321 20.6337 30.4711C20.2714 30.6213 19.8831 30.6985 19.491 30.6985C19.0989 30.6985 18.7106 30.6213 18.3483 30.4711C17.9861 30.321 17.657 30.1009 17.3798 29.8235C17.1031 29.5478 16.8836 29.2201 16.7338 28.8594C16.5841 28.4986 16.507 28.1118 16.507 27.7212C16.507 27.3306 16.5841 26.9438 16.7338 26.5831C16.8836 26.2223 17.1031 25.8947 17.3798 25.6189C17.6744 25.3276 18.0061 25.1075 18.3589 24.9619V14.2984C17.9956 14.1498 17.6654 13.9307 17.3873 13.6537C17.1093 13.3767 16.8889 13.0473 16.739 12.6846C16.5891 12.3219 16.5126 11.933 16.514 11.5405C16.5154 11.148 16.5946 10.7597 16.747 10.3981L12.358 5.98797L0.728272 17.6096C-0.242757 18.5887 -0.242757 20.1731 0.728272 21.1522L17.6889 38.108C17.9211 38.3404 18.1969 38.5248 18.5004 38.6506C18.8039 38.7764 19.1293 38.8412 19.4578 38.8412C19.7864 38.8412 20.1117 38.7764 20.4152 38.6506C20.7187 38.5248 20.9945 38.3404 21.2267 38.108L38.1064 21.2283C38.3393 20.9961 38.5241 20.7203 38.6501 20.4166C38.7762 20.113 38.8411 19.7874 38.8411 19.4586C38.8411 19.1298 38.7762 18.8042 38.6501 18.5005C38.5241 18.1968 38.3393 17.921 38.1064 17.6889Z"/>
</mask>
<path d="M38.1064 17.6889L21.1474 0.731465C20.6772 0.263023 20.0406 0 19.3769 0C18.7132 0 18.0765 0.263023 17.6064 0.731465L14.0929 4.25145L18.5596 8.71818C19.0866 8.53965 19.6531 8.5125 20.1947 8.63982C20.7364 8.76715 21.2315 9.04383 21.6237 9.43845C22.016 9.83307 22.2897 10.3298 22.4137 10.8722C22.5378 11.4146 22.5073 11.9809 22.3256 12.5068L26.6272 16.8117C27.2639 16.5904 27.9568 16.5918 28.5925 16.8157C29.2282 17.0397 29.7691 17.4729 30.1264 18.0444C30.4837 18.6159 30.6363 19.2918 30.5592 19.9614C30.4822 20.631 30.18 21.2546 29.7022 21.73C29.426 22.0065 29.0981 22.226 28.7371 22.3757C28.3761 22.5254 27.9891 22.6024 27.5983 22.6024C27.2075 22.6024 26.8205 22.5254 26.4595 22.3757C26.0985 22.226 25.7705 22.0065 25.4944 21.73C25.0806 21.315 24.798 20.7875 24.6817 20.2131C24.5655 19.6388 24.6207 19.0429 24.8406 18.4997L20.8124 14.4926V25.0525C21.0972 25.1917 21.3659 25.381 21.6022 25.6157C22.1564 26.1757 22.4673 26.9317 22.4673 27.7196C22.4673 28.5075 22.1564 29.2635 21.6022 29.8235C21.325 30.1009 20.9959 30.321 20.6337 30.4711C20.2714 30.6213 19.8831 30.6985 19.491 30.6985C19.0989 30.6985 18.7106 30.6213 18.3483 30.4711C17.9861 30.321 17.657 30.1009 17.3798 29.8235C17.1031 29.5478 16.8836 29.2201 16.7338 28.8594C16.5841 28.4986 16.507 28.1118 16.507 27.7212C16.507 27.3306 16.5841 26.9438 16.7338 26.5831C16.8836 26.2223 17.1031 25.8947 17.3798 25.6189C17.6744 25.3276 18.0061 25.1075 18.3589 24.9619V14.2984C17.9956 14.1498 17.6654 13.9307 17.3873 13.6537C17.1093 13.3767 16.8889 13.0473 16.739 12.6846C16.5891 12.3219 16.5126 11.933 16.514 11.5405C16.5154 11.148 16.5946 10.7597 16.747 10.3981L12.358 5.98797L0.728272 17.6096C-0.242757 18.5887 -0.242757 20.1731 0.728272 21.1522L17.6889 38.108C17.9211 38.3404 18.1969 38.5248 18.5004 38.6506C18.8039 38.7764 19.1293 38.8412 19.4578 38.8412C19.7864 38.8412 20.1117 38.7764 20.4152 38.6506C20.7187 38.5248 20.9945 38.3404 21.2267 38.108L38.1064 21.2283C38.3393 20.9961 38.5241 20.7203 38.6501 20.4166C38.7762 20.113 38.8411 19.7874 38.8411 19.4586C38.8411 19.1298 38.7762 18.8042 38.6501 18.5005C38.5241 18.1968 38.3393 17.921 38.1064 17.6889Z" stroke="black" stroke-width="3" mask="url(#path-3-inside-2_305_494)"/>
<path d="M61.9658 5.42944C61.3733 5.42944 60.8678 5.65379 60.4489 6.10281C60.0302 6.55192 59.8213 7.09302 59.8213 7.72578C59.8213 8.33813 60.0301 8.86831 60.4489 9.3173C60.8678 9.76641 61.3734 9.99146 61.9658 9.99146C62.5379 9.99146 63.0333 9.76641 63.4521 9.3173C63.871 8.86831 64.0805 8.33813 64.0805 7.72578C64.0805 7.09299 63.871 6.55192 63.4521 6.10281C63.0333 5.65382 62.5379 5.42944 61.9658 5.42944ZM66.5603 9.8078C66.6215 10.1548 66.6522 10.6135 66.6522 11.1851V12.3787H65.1511V15.3483C65.5801 15.2871 65.9271 15.2574 66.1927 15.2574L66.6523 15.2872V15.3484H66.6217V20.8286C66.6217 22.5433 66.8369 23.7987 67.2659 24.5948C67.838 25.6561 68.8696 26.1863 70.361 26.1863C71.4234 26.1863 72.3325 25.9826 73.0885 25.5742V22.5127C72.5775 22.8598 72.0053 23.0329 71.372 23.0329C70.4731 23.0329 70.0241 22.3491 70.0241 20.9815V15.2871H71.3414C71.5867 15.2871 71.8473 15.2973 72.1231 15.3176C72.399 15.3381 72.5874 15.3482 72.6895 15.3482V12.3786H70.0242V11.1237C70.0242 10.6339 70.0549 10.1955 70.1161 9.80764H66.5607L66.5603 9.80775L66.5603 9.8078ZM52.5266 12.2257C51.1373 12.2257 49.9425 12.6853 48.9413 13.6038C47.8995 14.5835 47.3781 15.8077 47.3781 17.2773C47.3781 18.257 47.6638 19.1756 48.2358 20.0327C48.7466 20.8286 49.3292 21.3393 49.983 21.5639V21.6251C49.3292 21.9106 49.0026 22.6255 49.0026 23.7684C49.0026 24.6461 49.3497 25.2986 50.0443 25.7271V25.7884C48.1444 26.421 47.1943 27.5945 47.1943 29.3089C47.1943 30.799 47.8278 31.8915 49.0946 32.5854C50.0955 33.1365 51.3723 33.4118 52.9249 33.4118C56.7044 33.4118 58.5943 31.8299 58.5943 28.6662C58.5943 26.6865 57.1333 25.4721 54.2117 25.0232C53.5376 24.9212 53.0272 24.6766 52.6799 24.2887C52.4143 24.0235 52.2816 23.7574 52.2816 23.4921C52.2816 22.7369 52.69 22.2986 53.507 22.176C54.7532 21.9925 55.7699 21.4158 56.5565 20.4464C57.3431 19.4768 57.7364 18.3388 57.7364 17.0325C57.7364 16.6243 57.6548 16.1858 57.4914 15.7164C58.0227 15.5939 58.4307 15.4818 58.7168 15.3798V12.2256C57.4295 12.7155 56.2959 12.961 55.3154 12.961C54.4572 12.4712 53.5277 12.2256 52.5266 12.2256V12.2257H52.5266ZM60.2196 12.3787C60.2604 12.7461 60.2809 13.4098 60.2809 14.3689V23.8908C60.2809 24.8706 60.2604 25.564 60.2196 25.972H63.6822C63.6413 25.5027 63.621 24.7473 63.621 23.7063V14.3077C63.621 13.4097 63.6413 12.7665 63.6822 12.3787H60.2196V12.3787ZM52.6491 15.0423C53.2621 15.0423 53.7417 15.2778 54.089 15.7471C54.375 16.1759 54.5179 16.6855 54.5179 17.2774C54.5179 18.7061 53.8953 19.4207 52.6491 19.4207C51.3621 19.4207 50.7182 18.7164 50.7182 17.308C50.7182 15.7977 51.3621 15.0423 52.6491 15.0423V15.0423ZM52.8636 27.5032C54.5798 27.5032 55.4379 28.0232 55.4379 29.0641C55.4379 30.1663 54.6512 30.7177 53.0781 30.7177C51.2803 30.7177 50.3813 30.1865 50.3813 29.1252C50.3813 28.0435 51.2088 27.5032 52.8637 27.5032L52.8636 27.5033V27.5032Z" fill="black"/>
</svg>
